<?xml version="1.0" standalone="no"?>
<!DOCTYPE svg PUBLIC "-//W3C//DTD SVG 20010904//EN"
 "http://www.w3.org/TR/2001/REC-SVG-20010904/DTD/svg10.dtd">
<svg version="1.0" xmlns="http://www.w3.org/2000/svg"
 width="500.000000pt" height="500.000000pt" viewBox="0 0 500.000000 500.000000"
 preserveAspectRatio="xMidYMid meet">

<g transform="translate(0.000000,500.000000) scale(0.100000,-0.100000)"
fill="#000000" stroke="none">
<path d="M2158 3658 c32 -7 45 -16 53 -34 12 -33 12 -545 0 -578 -8 -18 -21
-27 -53 -34 -40 -9 -37 -10 41 -11 73 -1 82 1 66 12 -12 10 -14 16 -7 21 8 5
12 55 12 158 l0 150 100 -4 c57 -2 104 -8 111 -15 6 -6 15 -26 19 -45 6 -23 8
-6 8 62 0 52 -3 86 -5 75 -12 -47 -30 -55 -135 -55 l-98 0 0 129 c0 158 2 161
118 161 104 0 143 -25 155 -100 2 -14 5 8 6 48 l1 72 -217 -1 c-165 -1 -208
-3 -175 -11z"/>
<path d="M2502 3034 c-184 -261 -331 -478 -328 -481 3 -4 8 -4 10 -2 18 21
666 948 666 953 0 3 -3 6 -7 6 -5 0 -158 -214 -341 -476z"/>
<path d="M2750 3154 c0 -5 33 -9 73 -9 57 -1 81 -6 114 -25 46 -25 87 -78 98
-122 10 -41 22 -34 18 10 -9 98 -12 102 -60 124 -48 21 -243 39 -243 22z"/>
<path d="M2476 2777 l-28 -49 31 -63 c37 -74 92 -127 169 -163 82 -37 223 -43
321 -13 81 25 91 37 91 113 l-1 53 -24 -46 c-48 -93 -128 -136 -236 -126 -140
12 -265 138 -286 287 l-8 55 -29 -48z"/>
<path d="M937 1973 c-4 -3 -7 -39 -7 -80 l0 -73 60 0 c33 0 60 4 60 10 0 6
-20 10 -45 10 -41 0 -45 2 -45 25 0 22 4 25 35 25 19 0 35 5 35 10 0 6 -16 10
-35 10 -28 0 -35 4 -35 20 0 17 7 20 40 20 29 0 40 4 40 15 0 11 -12 15 -48
15 -27 0 -52 -3 -55 -7z"/>
<path d="M1170 1900 c0 -47 4 -80 10 -80 6 0 10 26 10 58 l1 57 25 -47 c13
-27 29 -48 34 -48 5 0 21 21 34 48 l25 47 1 -57 c0 -32 5 -58 10 -58 6 0 10
34 10 81 0 94 -11 99 -50 26 -14 -26 -28 -47 -31 -47 -3 0 -16 23 -29 50 -35
75 -50 66 -50 -30z"/>
<path d="M1470 1900 c0 -47 4 -80 10 -80 6 0 10 33 10 80 0 47 -4 80 -10 80
-6 0 -10 -33 -10 -80z"/>
<path d="M1626 1973 c-3 -3 -6 -39 -6 -80 l0 -73 50 0 c28 0 50 5 50 10 0 6
-16 10 -35 10 l-35 0 0 64 c0 60 -8 84 -24 69z"/>
<path d="M1836 1973 c-3 -3 -6 -39 -6 -80 0 -58 3 -73 15 -73 12 0 15 15 15
74 0 69 -8 95 -24 79z"/>
<path d="M2024 1966 c-77 -34 -48 -146 38 -146 36 0 78 40 78 74 0 28 -35 72
-65 80 -11 3 -34 -1 -51 -8z m73 -28 c21 -27 21 -47 2 -72 -24 -31 -52 -33
-79 -6 -24 24 -26 53 -4 74 19 19 68 21 81 4z"/>
<path d="M2455 1972 c-46 -10 -70 -54 -54 -100 15 -44 68 -64 110 -41 28 15
14 31 -16 17 -34 -16 -75 12 -75 51 0 40 22 55 71 48 27 -3 39 -2 36 6 -4 14
-45 24 -72 19z"/>
<path d="M2700 1976 c0 -2 -16 -38 -35 -80 -25 -56 -31 -76 -20 -76 7 0 17 9
20 20 9 30 77 28 98 -2 8 -13 18 -20 21 -17 9 9 -60 159 -73 159 -6 0 -11 -2
-11 -4z m28 -61 c16 -35 16 -35 -17 -35 -28 0 -29 1 -18 30 14 37 20 37 35 5z"/>
<path d="M2920 1962 c-32 -26 -19 -55 32 -76 40 -15 41 -17 25 -33 -14 -14
-20 -15 -43 -4 -16 7 -31 8 -36 3 -5 -5 4 -14 22 -22 45 -19 84 -4 88 33 3 25
-2 30 -37 44 -52 20 -56 46 -7 42 45 -4 57 7 22 21 -36 13 -40 13 -66 -8z"/>
<path d="M3120 1965 c0 -9 9 -15 25 -15 24 0 25 -2 25 -65 0 -37 4 -65 10 -65
6 0 10 28 10 65 0 63 1 65 25 65 16 0 25 6 25 15 0 12 -13 15 -60 15 -47 0
-60 -3 -60 -15z"/>
<path d="M3356 1973 c-3 -3 -6 -39 -6 -80 0 -58 3 -73 15 -73 12 0 15 15 15
74 0 69 -8 95 -24 79z"/>
<path d="M3516 1973 c-3 -3 -6 -39 -6 -80 l0 -73 45 0 c25 0 45 5 45 10 0 6
-13 10 -30 10 l-30 0 0 64 c0 60 -8 84 -24 69z"/>
<path d="M3720 1900 l0 -80 45 0 c52 0 61 17 13 22 l-33 3 -3 68 c-4 94 -22
84 -22 -13z"/>
<path d="M3964 1966 c-77 -34 -48 -146 38 -146 36 0 78 40 78 74 0 28 -35 72
-65 80 -11 3 -34 -1 -51 -8z m73 -28 c21 -27 21 -47 2 -72 -24 -31 -52 -33
-79 -6 -24 24 -26 53 -4 74 19 19 68 21 81 4z"/>
<path d="M2546 1611 c-4 -6 -9 -34 -11 -63 l-5 -53 14 60 c14 59 14 77 2 56z"/>
<path d="M3305 1583 c-3 -21 -9 -48 -12 -60 -3 -13 -1 -23 4 -23 5 0 10 6 10
13 0 6 3 33 7 60 9 56 1 64 -9 10z"/>
<path d="M3393 1565 c-5 -31 -6 -58 -3 -60 8 -5 25 104 17 111 -2 2 -8 -21
-14 -51z"/>
<path d="M1497 1593 c-11 -18 -18 -93 -9 -93 5 0 12 21 15 48 5 47 3 61 -6 45z"/>
<path d="M1548 1570 c2 -17 0 -36 -4 -43 -5 -7 -1 -4 9 6 20 23 22 41 4 56
-11 8 -13 5 -9 -19z"/>
<path d="M1968 1583 c7 -3 16 -2 19 1 4 3 -2 6 -13 5 -11 0 -14 -3 -6 -6z"/>
<path d="M1638 1535 c-6 -30 -3 -43 8 -33 3 4 4 19 2 35 l-3 28 -7 -30z"/>
<path d="M1947 1546 c-4 -10 -7 -25 -6 -34 0 -11 4 -9 10 7 5 13 8 29 6 35 -2
5 -6 2 -10 -8z"/>
<path d="M1980 1528 c0 -36 4 -35 14 5 4 16 2 27 -4 27 -5 0 -10 -14 -10 -32z"/>
<path d="M2105 1536 c0 -13 3 -22 8 -19 4 2 7 13 7 24 0 10 -3 19 -7 19 -5 0
-8 -11 -8 -24z"/>
<path d="M2288 1519 c3 -22 8 -37 12 -32 9 9 1 73 -9 73 -4 0 -5 -18 -3 -41z"/>
<path d="M2730 1548 c0 -8 7 -21 15 -28 19 -16 19 -1 0 24 -12 16 -15 17 -15
4z"/>
<path d="M2867 1541 c-2 -10 -1 -25 4 -32 6 -10 9 -4 9 19 0 36 -5 42 -13 13z"/>
<path d="M2958 1530 c-3 -16 -1 -30 4 -30 4 0 8 6 8 14 0 8 3 21 6 30 3 9 2
16 -4 16 -5 0 -12 -13 -14 -30z"/>
<path d="M3068 1530 c-3 -16 -1 -30 4 -30 4 0 8 6 8 14 0 8 3 21 6 30 3 9 2
16 -4 16 -5 0 -12 -13 -14 -30z"/>
<path d="M3175 1539 c-4 -12 -3 -25 2 -30 6 -6 10 2 10 21 0 35 -3 38 -12 9z"/>
<path d="M3210 1534 c0 -14 4 -23 10 -19 6 3 10 15 10 26 0 10 -4 19 -10 19
-5 0 -10 -12 -10 -26z"/>
<path d="M3515 1536 c0 -13 3 -22 8 -19 4 2 7 13 7 24 0 10 -3 19 -7 19 -5 0
-8 -11 -8 -24z"/>
<path d="M1730 1535 c7 -9 15 -13 17 -11 7 7 -7 26 -19 26 -6 0 -6 -6 2 -15z"/>
<path d="M1825 1537 c-4 -11 -3 -23 4 -30 15 -15 19 -7 11 23 -6 22 -8 23 -15
7z"/>
<path d="M2063 1534 c-3 -8 -1 -20 6 -27 8 -8 11 -4 11 16 0 30 -7 35 -17 11z"/>
<path d="M2615 1537 c-4 -11 -3 -23 4 -30 15 -15 19 -7 11 23 -6 22 -8 23 -15
7z"/>
<path d="M3473 1534 c-3 -8 -1 -20 6 -27 8 -8 11 -4 11 16 0 30 -7 35 -17 11z"/>
<path d="M2487 1527 c-3 -9 -2 -19 4 -23 15 -9 18 -2 9 20 -6 17 -7 18 -13 3z"/>
<path d="M2827 1527 c-3 -9 -2 -19 4 -23 15 -9 18 -2 9 20 -6 17 -7 18 -13 3z"/>
<path d="M2260 1459 c0 -5 5 -7 10 -4 6 3 10 8 10 11 0 2 -4 4 -10 4 -5 0 -10
-5 -10 -11z"/>
</g>
</svg>
