<?xml version="1.0" standalone="no"?>
<!DOCTYPE svg PUBLIC "-//W3C//DTD SVG 20010904//EN"
 "http://www.w3.org/TR/2001/REC-SVG-20010904/DTD/svg10.dtd">
<svg version="1.0" xmlns="http://www.w3.org/2000/svg"
 width="500.000000pt" height="500.000000pt" viewBox="0 0 500.000000 500.000000"
 preserveAspectRatio="xMidYMid meet">

<g 
id="svgMarca" 
transform="translate(0.000000,500.000000) scale(0.100000,-0.100000)"
fill="#000000" stroke="none">
<path d="M2438 3893 c12 -2 30 -2 40 0 9 3 -1 5 -23 4 -22 0 -30 -2 -17 -4z"/>
<path d="M2298 3883 c12 -2 32 -2 45 0 12 2 2 4 -23 4 -25 0 -35 -2 -22 -4z"/>
<path d="M2573 3883 c15 -2 37 -2 50 0 12 2 0 4 -28 4 -27 0 -38 -2 -22 -4z"/>
<path d="M2213 3873 c9 -2 25 -2 35 0 9 3 1 5 -18 5 -19 0 -27 -2 -17 -5z"/>
<path d="M2668 3873 c6 -2 18 -2 25 0 6 3 1 5 -13 5 -14 0 -19 -2 -12 -5z"/>
<path d="M2115 3855 c-54 -17 -33 -18 30 -1 28 8 41 14 30 14 -11 0 -38 -5
-60 -13z"/>
<path d="M2718 3863 c6 -2 18 -2 25 0 6 3 1 5 -13 5 -14 0 -19 -2 -12 -5z"/>
<path d="M2768 3853 c6 -2 18 -2 25 0 6 3 1 5 -13 5 -14 0 -19 -2 -12 -5z"/>
<path d="M2818 3843 c7 -3 16 -2 19 1 4 3 -2 6 -13 5 -11 0 -14 -3 -6 -6z"/>
<path d="M1987 3818 c-32 -11 -57 -22 -54 -24 2 -2 35 7 73 20 38 14 62 24 54
24 -8 0 -41 -9 -73 -20z"/>
<path d="M2895 3820 c27 -12 43 -12 25 0 -8 5 -22 9 -30 9 -10 0 -8 -3 5 -9z"/>
<path d="M2980 3790 c8 -5 20 -10 25 -10 6 0 3 5 -5 10 -8 5 -19 10 -25 10 -5
0 -3 -5 5 -10z"/>
<path d="M1860 3765 c-25 -13 -40 -24 -35 -24 6 0 30 11 55 24 25 13 41 24 35
24 -5 0 -30 -11 -55 -24z"/>
<path d="M3127 3721 c62 -32 143 -80 180 -107 153 -109 341 -318 428 -476 20
-38 39 -68 42 -68 10 0 -70 137 -125 213 -74 104 -266 289 -372 359 -79 52
-240 138 -257 138 -5 0 42 -27 104 -59z"/>
<path d="M1778 3724 c-38 -20 -36 -28 2 -9 17 9 30 18 30 20 0 7 -1 6 -32 -11z"/>
<path d="M2470 3660 c0 -33 4 -60 10 -60 6 0 10 27 10 60 0 33 -4 60 -10 60
-6 0 -10 -27 -10 -60z"/>
<path d="M1679 3664 c-173 -116 -339 -293 -423 -449 -31 -58 -21 -44 48 63 61
96 275 311 369 371 60 39 75 51 63 51 -2 0 -28 -16 -57 -36z"/>
<path d="M2244 3648 c9 -65 9 -66 46 -60 36 5 41 22 6 22 -20 0 -25 6 -30 45
-4 25 -12 45 -18 45 -7 0 -8 -17 -4 -52z"/>
<path d="M2672 3684 c-26 -18 -30 -65 -6 -88 47 -48 123 23 82 76 -20 25 -51
30 -76 12z m63 -35 c14 -42 -45 -66 -61 -24 -10 25 4 45 30 45 16 0 27 -7 31
-21z"/>
<path d="M2053 3636 c3 -8 11 -32 18 -55 14 -46 35 -57 26 -13 -9 46 -26 82
-38 82 -6 0 -9 -6 -6 -14z"/>
<path d="M1863 3572 c-8 -5 -9 -19 -4 -45 10 -44 6 -46 -30 -11 -15 14 -32 24
-37 20 -13 -8 18 -118 32 -113 12 5 12 5 0 52 l-7 30 30 -27 c40 -38 47 -35
39 15 l-6 42 25 -30 c16 -19 28 -26 34 -20 13 14 -60 98 -76 87z"/>
<path d="M3082 3518 c-17 -17 -15 -64 4 -82 17 -18 64 -22 64 -6 0 6 -8 10
-17 10 -32 0 -46 16 -39 44 8 33 47 35 69 4 15 -22 16 -22 16 -2 1 28 -18 44
-54 44 -17 0 -36 -5 -43 -12z"/>
<path d="M1602 3400 l-24 -19 34 -41 c38 -45 48 -48 73 -20 21 23 13 39 -9 21
-24 -20 -40 -3 -20 20 14 15 14 19 3 19 -8 0 -20 -5 -26 -11 -7 -7 -13 -7 -17
-1 -3 5 1 15 9 22 16 13 20 30 8 30 -5 -1 -18 -9 -31 -20z"/>
<path d="M3300 3342 c-48 -23 -52 -26 -30 -30 33 -5 50 -20 50 -43 0 -35 18
-19 34 29 27 80 25 82 -54 44z m44 -17 c-7 -17 -20 -20 -28 -6 -4 5 0 12 6 14
23 9 28 7 22 -8z"/>
<path d="M3484 3177 c-3 -8 0 -25 5 -40 7 -17 7 -28 1 -32 -16 -10 -31 5 -28
25 2 11 -1 20 -7 22 -5 2 -11 -6 -13 -18 -4 -25 30 -57 55 -52 14 3 17 12 15
46 -1 24 2 42 8 42 5 0 11 -4 11 -10 1 -5 3 -14 4 -20 1 -5 3 -13 4 -17 0 -4
6 -2 12 4 9 9 8 18 -5 37 -18 28 -53 35 -62 13z"/>
<path d="M1176 3065 c-9 -26 -7 -32 5 -12 6 10 9 21 6 23 -2 3 -7 -2 -11 -11z"/>
<path d="M3780 3057 c0 -4 8 -22 17 -40 9 -18 31 -72 49 -122 18 -49 33 -85
34 -78 0 18 -53 161 -78 208 -12 22 -21 36 -22 32z"/>
<path d="M2139 2991 c27 -27 34 -108 30 -368 -4 -232 -7 -244 -54 -263 -12 -6
27 -9 101 -9 l121 -1 0 -74 c1 -131 64 -230 181 -288 59 -29 76 -33 147 -33
61 1 92 6 130 23 51 24 109 72 127 107 7 13 -1 10 -23 -11 -46 -43 -90 -64
-148 -71 -163 -19 -315 112 -329 283 l-5 64 100 0 99 0 18 58 c30 99 30 99 -8
55 -42 -48 -125 -93 -173 -93 -28 0 -33 4 -33 23 0 31 43 118 71 144 94 86
244 65 343 -49 l45 -51 16 38 c8 22 14 44 11 51 -3 7 -34 27 -71 45 -176 87
-380 26 -460 -138 -30 -61 -31 -62 -72 -62 l-43 -1 0 133 c0 90 4 137 12 145
17 17 66 15 122 -4 76 -26 129 -6 165 63 11 22 11 22 -18 5 -26 -15 -35 -15
-78 -3 -26 8 -69 16 -95 19 -42 3 -51 1 -78 -26 l-30 -30 0 164 0 164 93 0
c50 0 110 -5 132 -11 52 -14 109 -53 135 -93 l21 -31 -7 28 c-4 16 -12 47 -19
70 l-12 42 -242 3 c-238 2 -241 2 -222 -17z"/>
<path d="M3640 2970 c0 -13 -12 -25 -35 -34 -19 -8 -35 -20 -35 -25 0 -15 16
-14 51 5 24 12 34 13 45 3 23 -19 26 -4 8 35 -19 40 -34 47 -34 16z"/>
<path d="M1101 2833 c-55 -239 -53 -482 8 -715 39 -151 134 -353 230 -488 69
-97 249 -280 268 -273 10 4 14 2 10 -4 -4 -6 3 -19 15 -29 12 -11 18 -13 13
-5 -5 9 -3 12 6 9 8 -3 13 -10 12 -16 -2 -6 12 -21 30 -34 21 -15 27 -17 18
-5 -17 21 -8 22 24 1 14 -9 25 -14 25 -11 0 3 -16 15 -35 27 -19 12 -33 25
-30 30 3 4 -3 7 -13 6 -9 0 -16 4 -15 10 1 7 -5 11 -14 10 -11 -1 -17 8 -18
27 -1 16 2 26 9 24 6 -3 10 -9 9 -15 -2 -6 7 -16 18 -23 17 -9 20 -8 14 2 -6
9 -3 11 8 6 28 -11 19 1 -13 18 -17 9 -29 19 -26 23 2 4 -3 8 -13 8 -12 0 -18
-7 -17 -20 1 -10 -4 -21 -10 -23 -6 -2 -10 18 -9 56 1 33 -2 58 -6 55 -4 -2
-6 -13 -4 -24 2 -11 0 -22 -5 -25 -5 -3 -7 -14 -5 -24 2 -10 -3 -18 -11 -18
-9 0 -11 4 -5 10 5 5 -6 23 -31 45 -26 24 -35 38 -27 43 8 5 -4 24 -37 60 -29
32 -34 41 -13 21 19 -18 38 -30 41 -26 4 3 11 -4 18 -15 6 -12 8 -21 4 -21 -3
0 0 -8 7 -17 12 -14 12 -16 0 -9 -9 6 -12 4 -9 -5 3 -8 9 -14 14 -14 18 0 34
-17 28 -27 -4 -6 -2 -8 4 -5 5 4 9 15 7 25 -1 9 3 24 9 32 6 9 2 8 -10 -3 -18
-15 -22 -16 -27 -3 -3 8 1 20 8 26 8 7 12 16 10 21 -3 4 3 12 12 18 14 8 15
11 3 12 -8 1 -22 0 -29 -1 -13 -2 -13 1 0 17 13 17 13 17 -4 4 -17 -13 -18
-12 -13 13 4 23 3 26 -9 16 -8 -7 -12 -17 -8 -24 4 -7 1 -7 -7 1 -11 10 -11
15 -1 27 11 13 9 14 -11 11 -16 -3 -36 8 -68 37 -42 38 -39 44 5 9 18 -15 19
-15 6 1 -7 10 -10 25 -7 34 5 14 9 14 24 3 15 -13 16 -12 3 3 -7 10 -17 16
-21 13 -9 -6 -23 12 -26 31 -1 7 -23 38 -50 70 -163 200 -262 443 -279 685 -8
100 5 243 31 343 8 32 13 60 11 63 -3 2 -14 -35 -26 -84z m294 -1063 c10 -11
16 -20 13 -20 -3 0 -13 9 -23 20 -10 11 -16 20 -13 20 3 0 13 -9 23 -20z m5
-45 c7 -8 8 -15 2 -15 -5 0 -15 7 -22 15 -7 8 -8 15 -2 15 5 0 15 -7 22 -15z
m87 -117 c11 15 12 15 7 1 -7 -21 50 -64 68 -53 10 6 11 5 1 -8 -7 -8 -11 -17
-8 -20 3 -3 -2 -11 -12 -19 -12 -10 -14 -10 -9 -1 5 8 -11 31 -46 65 -29 28
-45 44 -34 35 18 -16 20 -16 33 0z m110 -235 c0 -9 -4 -10 -14 -2 -7 6 -13 12
-13 14 0 1 6 2 13 2 8 0 14 -6 14 -14z m98 -73 c3 -5 2 -10 -4 -10 -5 0 -13 5
-16 10 -3 6 -2 10 4 10 5 0 13 -4 16 -10z"/>
<path d="M3881 2784 c0 -11 3 -14 6 -6 3 7 2 16 -1 19 -3 4 -6 -2 -5 -13z"/>
<path d="M3688 2744 c-55 -17 -67 -40 -15 -29 50 11 77 23 77 35 0 12 -4 12
-62 -6z"/>
<path d="M3891 2744 c0 -11 3 -14 6 -6 3 7 2 16 -1 19 -3 4 -6 -2 -5 -13z"/>
<path d="M3902 2700 c0 -14 2 -19 5 -12 2 6 2 18 0 25 -3 6 -5 1 -5 -13z"/>
<path d="M3912 2645 c0 -16 2 -22 5 -12 2 9 2 23 0 30 -3 6 -5 -1 -5 -18z"/>
<path d="M3923 2575 c0 -22 2 -30 4 -17 2 12 2 30 0 40 -3 9 -5 -1 -4 -23z"/>
<path d="M3708 2563 c-23 -4 -28 -9 -28 -34 0 -16 5 -29 10 -29 6 0 10 8 10
19 0 15 10 20 45 25 25 4 45 11 45 17 0 9 -30 10 -82 2z"/>
<path d="M3934 2410 c0 -58 1 -81 3 -52 2 28 2 76 0 105 -2 28 -3 5 -3 -53z"/>
<path d="M3690 2313 c0 -18 5 -33 10 -33 6 0 10 9 10 20 0 17 7 20 45 20 64 0
56 17 -10 22 l-55 3 0 -32z"/>
<path d="M3923 2245 c0 -22 2 -30 4 -17 2 12 2 30 0 40 -3 9 -5 -1 -4 -23z"/>
<path d="M3912 2170 c0 -14 2 -19 5 -12 2 6 2 18 0 25 -3 6 -5 1 -5 -13z"/>
<path d="M3670 2110 c-11 -11 -20 -29 -20 -40 0 -25 34 -60 58 -60 24 0 49 20
57 47 4 17 -1 29 -19 48 -30 30 -49 32 -76 5z m68 -36 c2 -11 -3 -26 -11 -33
-29 -24 -70 17 -46 46 17 20 53 12 57 -13z"/>
<path d="M3901 2114 c0 -11 3 -14 6 -6 3 7 2 16 -1 19 -3 4 -6 -2 -5 -13z"/>
<path d="M3891 2074 c0 -11 3 -14 6 -6 3 7 2 16 -1 19 -3 4 -6 -2 -5 -13z"/>
<path d="M3881 2034 c0 -11 3 -14 6 -6 3 7 2 16 -1 19 -3 4 -6 -2 -5 -13z"/>
<path d="M3826 1875 c-9 -26 -7 -32 5 -12 6 10 9 21 6 23 -2 3 -7 -2 -11 -11z"/>
<path d="M3777 1765 c-15 -30 -25 -55 -22 -55 7 0 57 101 53 106 -2 2 -16 -21
-31 -51z"/>
<path d="M3730 1680 c-6 -11 -8 -20 -6 -20 3 0 10 9 16 20 6 11 8 20 6 20 -3
0 -10 -9 -16 -20z"/>
<path d="M1456 1662 c-3 -6 1 -15 8 -21 8 -7 17 -8 20 -3 3 6 -1 15 -8 21 -8
7 -17 8 -20 3z"/>
<path d="M3695 1624 c-9 -15 -12 -23 -6 -20 11 7 35 46 28 46 -3 0 -12 -12
-22 -26z"/>
<path d="M1648 1633 c7 -3 16 -2 19 1 4 3 -2 6 -13 5 -11 0 -14 -3 -6 -6z"/>
<path d="M1748 1623 c7 -3 16 -2 19 1 4 3 -2 6 -13 5 -11 0 -14 -3 -6 -6z"/>
<path d="M1688 1603 c7 -3 16 -2 19 1 4 3 -2 6 -13 5 -11 0 -14 -3 -6 -6z"/>
<path d="M1773 1593 c9 -2 23 -2 30 0 6 3 -1 5 -18 5 -16 0 -22 -2 -12 -5z"/>
<path d="M1878 1583 c6 -2 18 -2 25 0 6 3 1 5 -13 5 -14 0 -19 -2 -12 -5z"/>
<path d="M1968 1573 c7 -3 16 -2 19 1 4 3 -2 6 -13 5 -11 0 -14 -3 -6 -6z"/>
<path d="M1708 1553 c7 -3 16 -2 19 1 4 3 -2 6 -13 5 -11 0 -14 -3 -6 -6z"/>
<path d="M1878 1553 c7 -3 16 -2 19 1 4 3 -2 6 -13 5 -11 0 -14 -3 -6 -6z"/>
<path d="M3634 1538 l-19 -23 23 19 c12 11 22 21 22 23 0 8 -8 2 -26 -19z"/>
<path d="M1758 1543 c7 -3 16 -2 19 1 4 3 -2 6 -13 5 -11 0 -14 -3 -6 -6z"/>
<path d="M1818 1533 c7 -3 16 -2 19 1 4 3 -2 6 -13 5 -11 0 -14 -3 -6 -6z"/>
<path d="M1878 1523 c7 -3 16 -2 19 1 4 3 -2 6 -13 5 -11 0 -14 -3 -6 -6z"/>
<path d="M1938 1513 c7 -3 16 -2 19 1 4 3 -2 6 -13 5 -11 0 -14 -3 -6 -6z"/>
<path d="M1988 1503 c7 -3 16 -2 19 1 4 3 -2 6 -13 5 -11 0 -14 -3 -6 -6z"/>
<path d="M3525 1419 c-168 -169 -352 -265 -549 -285 -77 -8 -156 7 -260 49
l-82 32 -24 -29 c-22 -27 -22 -28 -3 -17 12 6 23 16 25 22 3 8 13 7 33 -4 17
-9 26 -16 22 -17 -5 0 -17 4 -27 10 -13 7 -19 6 -23 -5 -4 -9 -1 -12 9 -8 7 3
14 1 14 -5 0 -5 20 -15 44 -21 84 -21 63 -39 -27 -24 -28 4 -35 8 -25 15 9 7
8 8 -5 4 -10 -3 -23 -6 -28 -6 -5 0 -9 -4 -9 -10 0 -5 10 -10 22 -10 41 0 4
-18 -67 -33 -38 -9 -59 -16 -45 -16 14 -1 52 6 83 14 32 8 79 14 105 14 28 -1
37 -4 22 -6 -14 -3 -47 -11 -74 -17 l-50 -13 65 -9 64 -9 -120 -5 c-118 -6
-119 -6 -40 -10 123 -7 181 -2 294 25 264 64 481 186 671 379 46 47 82 86 80
86 -3 0 -46 -41 -95 -91z"/>
<path d="M2200 1436 c0 -2 7 -7 16 -10 8 -3 12 -2 9 4 -6 10 -25 14 -25 6z"/>
<path d="M2270 1436 c0 -2 8 -10 18 -17 15 -13 16 -12 3 4 -13 16 -21 21 -21
13z"/>
<path d="M2360 1427 c0 -2 15 -16 33 -33 l32 -29 -29 33 c-28 30 -36 37 -36
29z"/>
<path d="M1918 1393 c7 -3 16 -2 19 1 4 3 -2 6 -13 5 -11 0 -14 -3 -6 -6z"/>
<path d="M2375 1380 c10 -11 20 -20 23 -20 3 0 -3 9 -13 20 -10 11 -20 20 -23
20 -3 0 3 -9 13 -20z"/>
<path d="M1760 1360 c8 -5 20 -10 25 -10 6 0 3 5 -5 10 -8 5 -19 10 -25 10 -5
0 -3 -5 5 -10z"/>
<path d="M1760 1335 c25 -13 50 -24 55 -24 6 0 -10 11 -35 24 -25 13 -49 24
-55 24 -5 0 10 -11 35 -24z"/>
<path d="M1700 1345 c0 -2 18 -14 40 -25 22 -11 40 -18 40 -15 0 2 -18 14 -40
25 -22 11 -40 18 -40 15z"/>
<path d="M2420 1346 c0 -2 8 -10 18 -17 15 -13 16 -12 3 4 -13 16 -21 21 -21
13z"/>
<path d="M2450 1346 c0 -2 8 -10 18 -17 15 -13 16 -12 3 4 -13 16 -21 21 -21
13z"/>
<path d="M1850 1295 c14 -8 30 -14 35 -14 6 0 -1 6 -15 14 -14 8 -29 14 -35
14 -5 0 1 -6 15 -14z"/>
<path d="M2241 1286 c10 -9 89 -46 89 -41 0 5 -75 45 -86 45 -4 0 -5 -2 -3 -4z"/>
<path d="M1910 1270 c8 -5 22 -9 30 -9 10 0 8 3 -5 9 -27 12 -43 12 -25 0z"/>
<path d="M2539 1253 c-13 -16 -12 -17 4 -4 16 13 21 21 13 21 -2 0 -10 -8 -17
-17z"/>
<path d="M1770 1255 c0 -2 18 -14 40 -25 22 -11 40 -18 40 -15 0 2 -18 14 -40
25 -22 11 -40 18 -40 15z"/>
<path d="M1890 1250 c8 -5 20 -10 25 -10 6 0 3 5 -5 10 -8 5 -19 10 -25 10 -5
0 -3 -5 5 -10z"/>
<path d="M1760 1236 c0 -3 9 -10 20 -16 11 -6 20 -8 20 -6 0 3 -9 10 -20 16
-11 6 -20 8 -20 6z"/>
<path d="M2025 1230 c27 -12 43 -12 25 0 -8 5 -22 9 -30 9 -10 0 -8 -3 5 -9z"/>
<path d="M2310 1220 c8 -5 20 -10 25 -10 6 0 3 5 -5 10 -8 5 -19 10 -25 10 -5
0 -3 -5 5 -10z"/>
<path d="M1910 1210 c8 -5 20 -10 25 -10 6 0 3 5 -5 10 -8 5 -19 10 -25 10 -5
0 -3 -5 5 -10z"/>
<path d="M2569 1203 c-13 -16 -12 -17 4 -4 9 7 17 15 17 17 0 8 -8 3 -21 -13z"/>
<path d="M1810 1206 c0 -3 14 -12 30 -21 17 -9 30 -13 30 -11 0 3 -13 12 -30
21 -16 9 -30 13 -30 11z"/>
<path d="M2290 1200 c8 -5 20 -10 25 -10 6 0 3 5 -5 10 -8 5 -19 10 -25 10 -5
0 -3 -5 5 -10z"/>
<path d="M2584 1188 l-19 -23 23 19 c21 18 27 26 19 26 -2 0 -12 -10 -23 -22z"/>
<path d="M2430 1190 c8 -5 20 -10 25 -10 6 0 3 5 -5 10 -8 5 -19 10 -25 10 -5
0 -3 -5 5 -10z"/>
<path d="M1910 1180 c8 -5 20 -10 25 -10 6 0 3 5 -5 10 -8 5 -19 10 -25 10 -5
0 -3 -5 5 -10z"/>
<path d="M2480 1160 c-8 -5 -10 -10 -5 -10 6 0 17 5 25 10 8 5 11 10 5 10 -5
0 -17 -5 -25 -10z"/>
<path d="M1980 1150 c8 -5 20 -10 25 -10 6 0 3 5 -5 10 -8 5 -19 10 -25 10 -5
0 -3 -5 5 -10z"/>
<path d="M2510 1150 c-8 -5 -10 -10 -5 -10 6 0 17 5 25 10 8 5 11 10 5 10 -5
0 -17 -5 -25 -10z"/>
<path d="M2475 1130 c11 -5 27 -9 35 -9 9 0 8 4 -5 9 -11 5 -27 9 -35 9 -9 0
-8 -4 5 -9z"/>
<path d="M2575 1130 c-3 -5 -2 -10 4 -10 5 0 13 5 16 10 3 6 2 10 -4 10 -5 0
-13 -4 -16 -10z"/>
<path d="M2538 1113 c7 -3 16 -2 19 1 4 3 -2 6 -13 5 -11 0 -14 -3 -6 -6z"/>
<path d="M2190 1080 c30 -11 64 -19 75 -19 11 0 -9 9 -45 19 -82 24 -103 24
-30 0z"/>
<path d="M2458 1093 c7 -3 16 -2 19 1 4 3 -2 6 -13 5 -11 0 -14 -3 -6 -6z"/>
<path d="M2548 1093 c7 -3 16 -2 19 1 4 3 -2 6 -13 5 -11 0 -14 -3 -6 -6z"/>
<path d="M2288 1083 c6 -2 18 -2 25 0 6 3 1 5 -13 5 -14 0 -19 -2 -12 -5z"/>
<path d="M2408 1083 c7 -3 16 -2 19 1 4 3 -2 6 -13 5 -11 0 -14 -3 -6 -6z"/>
<path d="M2508 1083 c7 -3 16 -2 19 1 4 3 -2 6 -13 5 -11 0 -14 -3 -6 -6z"/>
<path d="M2338 1073 c7 -3 16 -2 19 1 4 3 -2 6 -13 5 -11 0 -14 -3 -6 -6z"/>
<path d="M2448 1073 c6 -2 18 -2 25 0 6 3 1 5 -13 5 -14 0 -19 -2 -12 -5z"/>
<path d="M2378 1063 c6 -2 18 -2 25 0 6 3 1 5 -13 5 -14 0 -19 -2 -12 -5z"/>
<path d="M2298 1053 c6 -2 18 -2 25 0 6 3 1 5 -13 5 -14 0 -19 -2 -12 -5z"/>
<path d="M2443 1053 c9 -2 23 -2 30 0 6 3 -1 5 -18 5 -16 0 -22 -2 -12 -5z"/>
<path d="M2353 1043 c9 -2 23 -2 30 0 6 3 -1 5 -18 5 -16 0 -22 -2 -12 -5z"/>
<path d="M2523 1043 c15 -2 39 -2 55 0 15 2 2 4 -28 4 -30 0 -43 -2 -27 -4z"/>
<path d="M2268 1033 c7 -3 16 -2 19 1 4 3 -2 6 -13 5 -11 0 -14 -3 -6 -6z"/>
<path d="M2413 1033 c9 -2 25 -2 35 0 9 3 1 5 -18 5 -19 0 -27 -2 -17 -5z"/>
<path d="M2323 1023 c9 -2 23 -2 30 0 6 3 -1 5 -18 5 -16 0 -22 -2 -12 -5z"/>
<path d="M2398 1013 c12 -2 32 -2 45 0 12 2 2 4 -23 4 -25 0 -35 -2 -22 -4z"/>
</g>
</svg>
