<?xml version="1.0"?>
<svg width="500" height="500" xmlns="http://www.w3.org/2000/svg" xmlns:svg="http://www.w3.org/2000/svg" preserveAspectRatio="xMidYMid meet" version="1.0">
 <g class="layer">
  <title>Layer 1</title>
  <g fill="#000000" id="svgMarca" transform="matrix(0.1 0 0 -0.1 0 0)">
   <path d="m2438,-1107c12,-2 30,-2 40,0c9,3 -1,5 -23,4c-22,0 -30,-2 -17,-4z" fill="#7f00ff" id="svg_1"/>
   <path d="m2298,-1117c12,-2 32,-2 45,0c12,2 2,4 -23,4c-25,0 -35,-2 -22,-4z" fill="#7f00ff" id="svg_2"/>
   <path d="m2573,-1117c15,-2 37,-2 50,0c12,2 0,4 -28,4c-27,0 -38,-2 -22,-4z" fill="#7f00ff" id="svg_3"/>
   <path d="m2213,-1127c9,-2 25,-2 35,0c9,3 1,5 -18,5c-19,0 -27,-2 -17,-5z" fill="#7f00ff" id="svg_4"/>
   <path d="m2668,-1127c6,-2 18,-2 25,0c6,3 1,5 -13,5c-14,0 -19,-2 -12,-5z" fill="#7f00ff" id="svg_5"/>
   <path d="m2115,-1145c-54,-17 -33,-18 30,-1c28,8 41,14 30,14c-11,0 -38,-5 -60,-13z" fill="#7f00ff" id="svg_6"/>
   <path d="m2718,-1137c6,-2 18,-2 25,0c6,3 1,5 -13,5c-14,0 -19,-2 -12,-5z" fill="#7f00ff" id="svg_7"/>
   <path d="m2768,-1147c6,-2 18,-2 25,0c6,3 1,5 -13,5c-14,0 -19,-2 -12,-5z" fill="#7f00ff" id="svg_8"/>
   <path d="m2818,-1157c7,-3 16,-2 19,1c4,3 -2,6 -13,5c-11,0 -14,-3 -6,-6z" fill="#7f00ff" id="svg_9"/>
   <path d="m1987,-1182c-32,-11 -57,-22 -54,-24c2,-2 35,7 73,20c38,14 62,24 54,24c-8,0 -41,-9 -73,-20z" fill="#7f00ff" id="svg_10"/>
   <path d="m2895,-1180c27,-12 43,-12 25,0c-8,5 -22,9 -30,9c-10,0 -8,-3 5,-9z" fill="#7f00ff" id="svg_11"/>
   <path d="m2980,-1210c8,-5 20,-10 25,-10c6,0 3,5 -5,10c-8,5 -19,10 -25,10c-5,0 -3,-5 5,-10z" fill="#7f00ff" id="svg_12"/>
   <path d="m1860,-1235c-25,-13 -40,-24 -35,-24c6,0 30,11 55,24c25,13 41,24 35,24c-5,0 -30,-11 -55,-24z" fill="#7f00ff" id="svg_13"/>
   <path d="m3127,-1279c62,-32 143,-80 180,-107c153,-109 341,-318 428,-476c20,-38 39,-68 42,-68c10,0 -70,137 -125,213c-74,104 -266,289 -372,359c-79,52 -240,138 -257,138c-5,0 42,-27 104,-59z" fill="#7f00ff" id="svg_14"/>
   <path d="m1778,-1276c-38,-20 -36,-28 2,-9c17,9 30,18 30,20c0,7 -1,6 -32,-11z" fill="#7f00ff" id="svg_15"/>
   <path d="m2470,-1340c0,-33 4,-60 10,-60c6,0 10,27 10,60c0,33 -4,60 -10,60c-6,0 -10,-27 -10,-60z" fill="#7f00ff" id="svg_16"/>
   <path d="m1679,-1336c-173,-116 -339,-293 -423,-449c-31,-58 -21,-44 48,63c61,96 275,311 369,371c60,39 75,51 63,51c-2,0 -28,-16 -57,-36z" fill="#7f00ff" id="svg_17"/>
   <path d="m2244,-1352c9,-65 9,-66 46,-60c36,5 41,22 6,22c-20,0 -25,6 -30,45c-4,25 -12,45 -18,45c-7,0 -8,-17 -4,-52z" fill="#7f00ff" id="svg_18"/>
   <path d="m2672,-1316c-26,-18 -30,-65 -6,-88c47,-48 123,23 82,76c-20,25 -51,30 -76,12zm63,-35c14,-42 -45,-66 -61,-24c-10,25 4,45 30,45c16,0 27,-7 31,-21z" fill="#7f00ff" id="svg_19"/>
   <path d="m2053,-1364c3,-8 11,-32 18,-55c14,-46 35,-57 26,-13c-9,46 -26,82 -38,82c-6,0 -9,-6 -6,-14z" fill="#7f00ff" id="svg_20"/>
   <path d="m1863,-1428c-8,-5 -9,-19 -4,-45c10,-44 6,-46 -30,-11c-15,14 -32,24 -37,20c-13,-8 18,-118 32,-113c12,5 12,5 0,52l-7,30l30,-27c40,-38 47,-35 39,15l-6,42l25,-30c16,-19 28,-26 34,-20c13,14 -60,98 -76,87z" fill="#7f00ff" id="svg_21"/>
   <path d="m3082,-1482c-17,-17 -15,-64 4,-82c17,-18 64,-22 64,-6c0,6 -8,10 -17,10c-32,0 -46,16 -39,44c8,33 47,35 69,4c15,-22 16,-22 16,-2c1,28 -18,44 -54,44c-17,0 -36,-5 -43,-12z" fill="#7f00ff" id="svg_22"/>
   <path d="m1602,-1600l-24,-19l34,-41c38,-45 48,-48 73,-20c21,23 13,39 -9,21c-24,-20 -40,-3 -20,20c14,15 14,19 3,19c-8,0 -20,-5 -26,-11c-7,-7 -13,-7 -17,-1c-3,5 1,15 9,22c16,13 20,30 8,30c-5,-1 -18,-9 -31,-20z" fill="#7f00ff" id="svg_23"/>
   <path d="m3300,-1658c-48,-23 -52,-26 -30,-30c33,-5 50,-20 50,-43c0,-35 18,-19 34,29c27,80 25,82 -54,44zm44,-17c-7,-17 -20,-20 -28,-6c-4,5 0,12 6,14c23,9 28,7 22,-8z" fill="#7f00ff" id="svg_24"/>
   <path d="m3484,-1823c-3,-8 0,-25 5,-40c7,-17 7,-28 1,-32c-16,-10 -31,5 -28,25c2,11 -1,20 -7,22c-5,2 -11,-6 -13,-18c-4,-25 30,-57 55,-52c14,3 17,12 15,46c-1,24 2,42 8,42c5,0 11,-4 11,-10c1,-5 3,-14 4,-20c1,-5 3,-13 4,-17c0,-4 6,-2 12,4c9,9 8,18 -5,37c-18,28 -53,35 -62,13z" fill="#7f00ff" id="svg_25"/>
   <path d="m1176,-1935c-9,-26 -7,-32 5,-12c6,10 9,21 6,23c-2,3 -7,-2 -11,-11z" fill="#7f00ff" id="svg_26"/>
   <path d="m3780,-1943c0,-4 8,-22 17,-40c9,-18 31,-72 49,-122c18,-49 33,-85 34,-78c0,18 -53,161 -78,208c-12,22 -21,36 -22,32z" fill="#7f00ff" id="svg_27"/>
   <path d="m2139,-2009c27,-27 34,-108 30,-368c-4,-232 -7,-244 -54,-263c-12,-6 27,-9 101,-9l121,-1l0,-74c1,-131 64,-230 181,-288c59,-29 76,-33 147,-33c61,1 92,6 130,23c51,24 109,72 127,107c7,13 -1,10 -23,-11c-46,-43 -90,-64 -148,-71c-163,-19 -315,112 -329,283l-5,64l100,0l99,0l18,58c30,99 30,99 -8,55c-42,-48 -125,-93 -173,-93c-28,0 -33,4 -33,23c0,31 43,118 71,144c94,86 244,65 343,-49l45,-51l16,38c8,22 14,44 11,51c-3,7 -34,27 -71,45c-176,87 -380,26 -460,-138c-30,-61 -31,-62 -72,-62l-43,-1l0,133c0,90 4,137 12,145c17,17 66,15 122,-4c76,-26 129,-6 165,63c11,22 11,22 -18,5c-26,-15 -35,-15 -78,-3c-26,8 -69,16 -95,19c-42,3 -51,1 -78,-26l-30,-30l0,164l0,164l93,0c50,0 110,-5 132,-11c52,-14 109,-53 135,-93l21,-31l-7,28c-4,16 -12,47 -19,70l-12,42l-242,3c-238,2 -241,2 -222,-17z" fill="#7f00ff" id="svg_28"/>
   <path d="m3640,-2030c0,-13 -12,-25 -35,-34c-19,-8 -35,-20 -35,-25c0,-15 16,-14 51,5c24,12 34,13 45,3c23,-19 26,-4 8,35c-19,40 -34,47 -34,16z" fill="#7f00ff" id="svg_29"/>
   <path d="m1101,-2167c-55,-239 -53,-482 8,-715c39,-151 134,-353 230,-488c69,-97 249,-280 268,-273c10,4 14,2 10,-4c-4,-6 3,-19 15,-29c12,-11 18,-13 13,-5c-5,9 -3,12 6,9c8,-3 13,-10 12,-16c-2,-6 12,-21 30,-34c21,-15 27,-17 18,-5c-17,21 -8,22 24,1c14,-9 25,-14 25,-11c0,3 -16,15 -35,27c-19,12 -33,25 -30,30c3,4 -3,7 -13,6c-9,0 -16,4 -15,10c1,7 -5,11 -14,10c-11,-1 -17,8 -18,27c-1,16 2,26 9,24c6,-3 10,-9 9,-15c-2,-6 7,-16 18,-23c17,-9 20,-8 14,2c-6,9 -3,11 8,6c28,-11 19,1 -13,18c-17,9 -29,19 -26,23c2,4 -3,8 -13,8c-12,0 -18,-7 -17,-20c1,-10 -4,-21 -10,-23c-6,-2 -10,18 -9,56c1,33 -2,58 -6,55c-4,-2 -6,-13 -4,-24c2,-11 0,-22 -5,-25c-5,-3 -7,-14 -5,-24c2,-10 -3,-18 -11,-18c-9,0 -11,4 -5,10c5,5 -6,23 -31,45c-26,24 -35,38 -27,43c8,5 -4,24 -37,60c-29,32 -34,41 -13,21c19,-18 38,-30 41,-26c4,3 11,-4 18,-15c6,-12 8,-21 4,-21c-3,0 0,-8 7,-17c12,-14 12,-16 0,-9c-9,6 -12,4 -9,-5c3,-8 9,-14 14,-14c18,0 34,-17 28,-27c-4,-6 -2,-8 4,-5c5,4 9,15 7,25c-1,9 3,24 9,32c6,9 2,8 -10,-3c-18,-15 -22,-16 -27,-3c-3,8 1,20 8,26c8,7 12,16 10,21c-3,4 3,12 12,18c14,8 15,11 3,12c-8,1 -22,0 -29,-1c-13,-2 -13,1 0,17c13,17 13,17 -4,4c-17,-13 -18,-12 -13,13c4,23 3,26 -9,16c-8,-7 -12,-17 -8,-24c4,-7 1,-7 -7,1c-11,10 -11,15 -1,27c11,13 9,14 -11,11c-16,-3 -36,8 -68,37c-42,38 -39,44 5,9c18,-15 19,-15 6,1c-7,10 -10,25 -7,34c5,14 9,14 24,3c15,-13 16,-12 3,3c-7,10 -17,16 -21,13c-9,-6 -23,12 -26,31c-1,7 -23,38 -50,70c-163,200 -262,443 -279,685c-8,100 5,243 31,343c8,32 13,60 11,63c-3,2 -14,-35 -26,-84zm294,-1063c10,-11 16,-20 13,-20c-3,0 -13,9 -23,20c-10,11 -16,20 -13,20c3,0 13,-9 23,-20zm5,-45c7,-8 8,-15 2,-15c-5,0 -15,7 -22,15c-7,8 -8,15 -2,15c5,0 15,-7 22,-15zm87,-117c11,15 12,15 7,1c-7,-21 50,-64 68,-53c10,6 11,5 1,-8c-7,-8 -11,-17 -8,-20c3,-3 -2,-11 -12,-19c-12,-10 -14,-10 -9,-1c5,8 -11,31 -46,65c-29,28 -45,44 -34,35c18,-16 20,-16 33,0zm110,-235c0,-9 -4,-10 -14,-2c-7,6 -13,12 -13,14c0,1 6,2 13,2c8,0 14,-6 14,-14zm98,-73c3,-5 2,-10 -4,-10c-5,0 -13,5 -16,10c-3,6 -2,10 4,10c5,0 13,-4 16,-10z" fill="#7f00ff" id="svg_30"/>
   <path d="m3881,-2216c0,-11 3,-14 6,-6c3,7 2,16 -1,19c-3,4 -6,-2 -5,-13z" fill="#7f00ff" id="svg_31"/>
   <path d="m3688,-2256c-55,-17 -67,-40 -15,-29c50,11 77,23 77,35c0,12 -4,12 -62,-6z" fill="#7f00ff" id="svg_32"/>
   <path d="m3891,-2256c0,-11 3,-14 6,-6c3,7 2,16 -1,19c-3,4 -6,-2 -5,-13z" fill="#7f00ff" id="svg_33"/>
   <path d="m3902,-2300c0,-14 2,-19 5,-12c2,6 2,18 0,25c-3,6 -5,1 -5,-13z" fill="#7f00ff" id="svg_34"/>
   <path d="m3912,-2355c0,-16 2,-22 5,-12c2,9 2,23 0,30c-3,6 -5,-1 -5,-18z" fill="#7f00ff" id="svg_35"/>
   <path d="m3923,-2425c0,-22 2,-30 4,-17c2,12 2,30 0,40c-3,9 -5,-1 -4,-23z" fill="#7f00ff" id="svg_36"/>
   <path d="m3708,-2437c-23,-4 -28,-9 -28,-34c0,-16 5,-29 10,-29c6,0 10,8 10,19c0,15 10,20 45,25c25,4 45,11 45,17c0,9 -30,10 -82,2z" fill="#7f00ff" id="svg_37"/>
   <path d="m3934,-2590c0,-58 1,-81 3,-52c2,28 2,76 0,105c-2,28 -3,5 -3,-53z" fill="#7f00ff" id="svg_38"/>
   <path d="m3690,-2687c0,-18 5,-33 10,-33c6,0 10,9 10,20c0,17 7,20 45,20c64,0 56,17 -10,22l-55,3l0,-32z" fill="#7f00ff" id="svg_39"/>
   <path d="m3923,-2755c0,-22 2,-30 4,-17c2,12 2,30 0,40c-3,9 -5,-1 -4,-23z" fill="#7f00ff" id="svg_40"/>
   <path d="m3912,-2830c0,-14 2,-19 5,-12c2,6 2,18 0,25c-3,6 -5,1 -5,-13z" fill="#7f00ff" id="svg_41"/>
   <path d="m3670,-2890c-11,-11 -20,-29 -20,-40c0,-25 34,-60 58,-60c24,0 49,20 57,47c4,17 -1,29 -19,48c-30,30 -49,32 -76,5zm68,-36c2,-11 -3,-26 -11,-33c-29,-24 -70,17 -46,46c17,20 53,12 57,-13z" fill="#7f00ff" id="svg_42"/>
   <path d="m3901,-2886c0,-11 3,-14 6,-6c3,7 2,16 -1,19c-3,4 -6,-2 -5,-13z" fill="#7f00ff" id="svg_43"/>
   <path d="m3891,-2926c0,-11 3,-14 6,-6c3,7 2,16 -1,19c-3,4 -6,-2 -5,-13z" fill="#7f00ff" id="svg_44"/>
   <path d="m3881,-2966c0,-11 3,-14 6,-6c3,7 2,16 -1,19c-3,4 -6,-2 -5,-13z" fill="#7f00ff" id="svg_45"/>
   <path d="m3826,-3125c-9,-26 -7,-32 5,-12c6,10 9,21 6,23c-2,3 -7,-2 -11,-11z" fill="#7f00ff" id="svg_46"/>
   <path d="m3777,-3235c-15,-30 -25,-55 -22,-55c7,0 57,101 53,106c-2,2 -16,-21 -31,-51z" fill="#7f00ff" id="svg_47"/>
   <path d="m3730,-3320c-6,-11 -8,-20 -6,-20c3,0 10,9 16,20c6,11 8,20 6,20c-3,0 -10,-9 -16,-20z" fill="#7f00ff" id="svg_48"/>
   <path d="m1456,-3338c-3,-6 1,-15 8,-21c8,-7 17,-8 20,-3c3,6 -1,15 -8,21c-8,7 -17,8 -20,3z" fill="#7f00ff" id="svg_49"/>
   <path d="m3695,-3376c-9,-15 -12,-23 -6,-20c11,7 35,46 28,46c-3,0 -12,-12 -22,-26z" fill="#7f00ff" id="svg_50"/>
   <path d="m1648,-3367c7,-3 16,-2 19,1c4,3 -2,6 -13,5c-11,0 -14,-3 -6,-6z" fill="#7f00ff" id="svg_51"/>
   <path d="m1748,-3377c7,-3 16,-2 19,1c4,3 -2,6 -13,5c-11,0 -14,-3 -6,-6z" fill="#7f00ff" id="svg_52"/>
   <path d="m1688,-3397c7,-3 16,-2 19,1c4,3 -2,6 -13,5c-11,0 -14,-3 -6,-6z" fill="#7f00ff" id="svg_53"/>
   <path d="m1773,-3407c9,-2 23,-2 30,0c6,3 -1,5 -18,5c-16,0 -22,-2 -12,-5z" fill="#7f00ff" id="svg_54"/>
   <path d="m1878,-3417c6,-2 18,-2 25,0c6,3 1,5 -13,5c-14,0 -19,-2 -12,-5z" fill="#7f00ff" id="svg_55"/>
   <path d="m1968,-3427c7,-3 16,-2 19,1c4,3 -2,6 -13,5c-11,0 -14,-3 -6,-6z" fill="#7f00ff" id="svg_56"/>
   <path d="m1708,-3447c7,-3 16,-2 19,1c4,3 -2,6 -13,5c-11,0 -14,-3 -6,-6z" fill="#7f00ff" id="svg_57"/>
   <path d="m1878,-3447c7,-3 16,-2 19,1c4,3 -2,6 -13,5c-11,0 -14,-3 -6,-6z" fill="#7f00ff" id="svg_58"/>
   <path d="m3634,-3462l-19,-23l23,19c12,11 22,21 22,23c0,8 -8,2 -26,-19z" fill="#7f00ff" id="svg_59"/>
   <path d="m1758,-3457c7,-3 16,-2 19,1c4,3 -2,6 -13,5c-11,0 -14,-3 -6,-6z" fill="#7f00ff" id="svg_60"/>
   <path d="m1818,-3467c7,-3 16,-2 19,1c4,3 -2,6 -13,5c-11,0 -14,-3 -6,-6z" fill="#7f00ff" id="svg_61"/>
   <path d="m1878,-3477c7,-3 16,-2 19,1c4,3 -2,6 -13,5c-11,0 -14,-3 -6,-6z" fill="#7f00ff" id="svg_62"/>
   <path d="m1938,-3487c7,-3 16,-2 19,1c4,3 -2,6 -13,5c-11,0 -14,-3 -6,-6z" fill="#7f00ff" id="svg_63"/>
   <path d="m1988,-3497c7,-3 16,-2 19,1c4,3 -2,6 -13,5c-11,0 -14,-3 -6,-6z" fill="#7f00ff" id="svg_64"/>
   <path d="m3525,-3581c-168,-169 -352,-265 -549,-285c-77,-8 -156,7 -260,49l-82,32l-24,-29c-22,-27 -22,-28 -3,-17c12,6 23,16 25,22c3,8 13,7 33,-4c17,-9 26,-16 22,-17c-5,0 -17,4 -27,10c-13,7 -19,6 -23,-5c-4,-9 -1,-12 9,-8c7,3 14,1 14,-5c0,-5 20,-15 44,-21c84,-21 63,-39 -27,-24c-28,4 -35,8 -25,15c9,7 8,8 -5,4c-10,-3 -23,-6 -28,-6c-5,0 -9,-4 -9,-10c0,-5 10,-10 22,-10c41,0 4,-18 -67,-33c-38,-9 -59,-16 -45,-16c14,-1 52,6 83,14c32,8 79,14 105,14c28,-1 37,-4 22,-6c-14,-3 -47,-11 -74,-17l-50,-13l65,-9l64,-9l-120,-5c-118,-6 -119,-6 -40,-10c123,-7 181,-2 294,25c264,64 481,186 671,379c46,47 82,86 80,86c-3,0 -46,-41 -95,-91z" fill="#7f00ff" id="svg_65"/>
   <path d="m2200,-3564c0,-2 7,-7 16,-10c8,-3 12,-2 9,4c-6,10 -25,14 -25,6z" fill="#7f00ff" id="svg_66"/>
   <path d="m2270,-3564c0,-2 8,-10 18,-17c15,-13 16,-12 3,4c-13,16 -21,21 -21,13z" fill="#7f00ff" id="svg_67"/>
   <path d="m2360,-3573c0,-2 15,-16 33,-33l32,-29l-29,33c-28,30 -36,37 -36,29z" fill="#7f00ff" id="svg_68"/>
   <path d="m1918,-3607c7,-3 16,-2 19,1c4,3 -2,6 -13,5c-11,0 -14,-3 -6,-6z" fill="#7f00ff" id="svg_69"/>
   <path d="m2375,-3620c10,-11 20,-20 23,-20c3,0 -3,9 -13,20c-10,11 -20,20 -23,20c-3,0 3,-9 13,-20z" fill="#7f00ff" id="svg_70"/>
   <path d="m1760,-3640c8,-5 20,-10 25,-10c6,0 3,5 -5,10c-8,5 -19,10 -25,10c-5,0 -3,-5 5,-10z" fill="#7f00ff" id="svg_71"/>
   <path d="m1760,-3665c25,-13 50,-24 55,-24c6,0 -10,11 -35,24c-25,13 -49,24 -55,24c-5,0 10,-11 35,-24z" fill="#7f00ff" id="svg_72"/>
   <path d="m1700,-3655c0,-2 18,-14 40,-25c22,-11 40,-18 40,-15c0,2 -18,14 -40,25c-22,11 -40,18 -40,15z" fill="#7f00ff" id="svg_73"/>
   <path d="m2420,-3654c0,-2 8,-10 18,-17c15,-13 16,-12 3,4c-13,16 -21,21 -21,13z" fill="#7f00ff" id="svg_74"/>
   <path d="m2450,-3654c0,-2 8,-10 18,-17c15,-13 16,-12 3,4c-13,16 -21,21 -21,13z" fill="#7f00ff" id="svg_75"/>
   <path d="m1850,-3705c14,-8 30,-14 35,-14c6,0 -1,6 -15,14c-14,8 -29,14 -35,14c-5,0 1,-6 15,-14z" fill="#7f00ff" id="svg_76"/>
   <path d="m2241,-3714c10,-9 89,-46 89,-41c0,5 -75,45 -86,45c-4,0 -5,-2 -3,-4z" fill="#7f00ff" id="svg_77"/>
   <path d="m1910,-3730c8,-5 22,-9 30,-9c10,0 8,3 -5,9c-27,12 -43,12 -25,0z" fill="#7f00ff" id="svg_78"/>
   <path d="m2539,-3747c-13,-16 -12,-17 4,-4c16,13 21,21 13,21c-2,0 -10,-8 -17,-17z" fill="#7f00ff" id="svg_79"/>
   <path d="m1770,-3745c0,-2 18,-14 40,-25c22,-11 40,-18 40,-15c0,2 -18,14 -40,25c-22,11 -40,18 -40,15z" fill="#7f00ff" id="svg_80"/>
   <path d="m1890,-3750c8,-5 20,-10 25,-10c6,0 3,5 -5,10c-8,5 -19,10 -25,10c-5,0 -3,-5 5,-10z" fill="#7f00ff" id="svg_81"/>
   <path d="m1760,-3764c0,-3 9,-10 20,-16c11,-6 20,-8 20,-6c0,3 -9,10 -20,16c-11,6 -20,8 -20,6z" fill="#7f00ff" id="svg_82"/>
   <path d="m2025,-3770c27,-12 43,-12 25,0c-8,5 -22,9 -30,9c-10,0 -8,-3 5,-9z" fill="#7f00ff" id="svg_83"/>
   <path d="m2310,-3780c8,-5 20,-10 25,-10c6,0 3,5 -5,10c-8,5 -19,10 -25,10c-5,0 -3,-5 5,-10z" fill="#7f00ff" id="svg_84"/>
   <path d="m1910,-3790c8,-5 20,-10 25,-10c6,0 3,5 -5,10c-8,5 -19,10 -25,10c-5,0 -3,-5 5,-10z" fill="#7f00ff" id="svg_85"/>
   <path d="m2569,-3797c-13,-16 -12,-17 4,-4c9,7 17,15 17,17c0,8 -8,3 -21,-13z" fill="#7f00ff" id="svg_86"/>
   <path d="m1810,-3794c0,-3 14,-12 30,-21c17,-9 30,-13 30,-11c0,3 -13,12 -30,21c-16,9 -30,13 -30,11z" fill="#7f00ff" id="svg_87"/>
   <path d="m2290,-3800c8,-5 20,-10 25,-10c6,0 3,5 -5,10c-8,5 -19,10 -25,10c-5,0 -3,-5 5,-10z" fill="#7f00ff" id="svg_88"/>
   <path d="m2584,-3812l-19,-23l23,19c21,18 27,26 19,26c-2,0 -12,-10 -23,-22z" fill="#7f00ff" id="svg_89"/>
   <path d="m2430,-3810c8,-5 20,-10 25,-10c6,0 3,5 -5,10c-8,5 -19,10 -25,10c-5,0 -3,-5 5,-10z" fill="#7f00ff" id="svg_90"/>
   <path d="m1910,-3820c8,-5 20,-10 25,-10c6,0 3,5 -5,10c-8,5 -19,10 -25,10c-5,0 -3,-5 5,-10z" fill="#7f00ff" id="svg_91"/>
   <path d="m2480,-3840c-8,-5 -10,-10 -5,-10c6,0 17,5 25,10c8,5 11,10 5,10c-5,0 -17,-5 -25,-10z" fill="#7f00ff" id="svg_92"/>
   <path d="m1980,-3850c8,-5 20,-10 25,-10c6,0 3,5 -5,10c-8,5 -19,10 -25,10c-5,0 -3,-5 5,-10z" fill="#7f00ff" id="svg_93"/>
   <path d="m2510,-3850c-8,-5 -10,-10 -5,-10c6,0 17,5 25,10c8,5 11,10 5,10c-5,0 -17,-5 -25,-10z" fill="#7f00ff" id="svg_94"/>
   <path d="m2475,-3870c11,-5 27,-9 35,-9c9,0 8,4 -5,9c-11,5 -27,9 -35,9c-9,0 -8,-4 5,-9z" fill="#7f00ff" id="svg_95"/>
   <path d="m2575,-3870c-3,-5 -2,-10 4,-10c5,0 13,5 16,10c3,6 2,10 -4,10c-5,0 -13,-4 -16,-10z" fill="#7f00ff" id="svg_96"/>
   <path d="m2538,-3887c7,-3 16,-2 19,1c4,3 -2,6 -13,5c-11,0 -14,-3 -6,-6z" fill="#7f00ff" id="svg_97"/>
   <path d="m2190,-3920c30,-11 64,-19 75,-19c11,0 -9,9 -45,19c-82,24 -103,24 -30,0z" fill="#7f00ff" id="svg_98"/>
   <path d="m2458,-3907c7,-3 16,-2 19,1c4,3 -2,6 -13,5c-11,0 -14,-3 -6,-6z" fill="#7f00ff" id="svg_99"/>
   <path d="m2548,-3907c7,-3 16,-2 19,1c4,3 -2,6 -13,5c-11,0 -14,-3 -6,-6z" fill="#7f00ff" id="svg_100"/>
   <path d="m2288,-3917c6,-2 18,-2 25,0c6,3 1,5 -13,5c-14,0 -19,-2 -12,-5z" fill="#7f00ff" id="svg_101"/>
   <path d="m2408,-3917c7,-3 16,-2 19,1c4,3 -2,6 -13,5c-11,0 -14,-3 -6,-6z" fill="#7f00ff" id="svg_102"/>
   <path d="m2508,-3917c7,-3 16,-2 19,1c4,3 -2,6 -13,5c-11,0 -14,-3 -6,-6z" fill="#7f00ff" id="svg_103"/>
   <path d="m2338,-3927c7,-3 16,-2 19,1c4,3 -2,6 -13,5c-11,0 -14,-3 -6,-6z" fill="#7f00ff" id="svg_104"/>
   <path d="m2448,-3927c6,-2 18,-2 25,0c6,3 1,5 -13,5c-14,0 -19,-2 -12,-5z" fill="#7f00ff" id="svg_105"/>
   <path d="m2378,-3937c6,-2 18,-2 25,0c6,3 1,5 -13,5c-14,0 -19,-2 -12,-5z" fill="#7f00ff" id="svg_106"/>
   <path d="m2298,-3947c6,-2 18,-2 25,0c6,3 1,5 -13,5c-14,0 -19,-2 -12,-5z" fill="#7f00ff" id="svg_107"/>
   <path d="m2443,-3947c9,-2 23,-2 30,0c6,3 -1,5 -18,5c-16,0 -22,-2 -12,-5z" fill="#7f00ff" id="svg_108"/>
   <path d="m2353,-3957c9,-2 23,-2 30,0c6,3 -1,5 -18,5c-16,0 -22,-2 -12,-5z" fill="#7f00ff" id="svg_109"/>
   <path d="m2523,-3957c15,-2 39,-2 55,0c15,2 2,4 -28,4c-30,0 -43,-2 -27,-4z" fill="#7f00ff" id="svg_110"/>
   <path d="m2268,-3967c7,-3 16,-2 19,1c4,3 -2,6 -13,5c-11,0 -14,-3 -6,-6z" fill="#7f00ff" id="svg_111"/>
   <path d="m2413,-3967c9,-2 25,-2 35,0c9,3 1,5 -18,5c-19,0 -27,-2 -17,-5z" fill="#7f00ff" id="svg_112"/>
   <path d="m2323,-3977c9,-2 23,-2 30,0c6,3 -1,5 -18,5c-16,0 -22,-2 -12,-5z" fill="#7f00ff" id="svg_113"/>
   <path d="m2398,-3987c12,-2 32,-2 45,0c12,2 2,4 -23,4c-25,0 -35,-2 -22,-4z" fill="#7f00ff" id="svg_114"/>
  </g>
 </g>
</svg>