<?xml version="1.0" encoding="utf-8"?>
<!-- Generator: Adobe Illustrator 27.1.0, SVG Export Plug-In . SVG Version: 6.00 Build 0)  -->
<svg version="1.1" id="Layer_1" xmlns="http://www.w3.org/2000/svg" xmlns:xlink="http://www.w3.org/1999/xlink" x="0px" y="0px"
	 viewBox="0 208.5 1280 327.5" enable-background="new 0 208.5 1280 327.5" xml:space="preserve">
<g>
	
		<g id="solid" xmlns:inkscape="http://www.inkscape.org/namespaces/inkscape" xmlns:cc="http://creativecommons.org/ns#" xmlns:dc="http://purl.org/dc/elements/1.1/" xmlns:sodipodi="http://sodipodi.sourceforge.net/DTD/sodipodi-0.dtd" xmlns:svg="http://www.w3.org/2000/svg" xmlns:rdf="http://www.w3.org/1999/02/22-rdf-syntax-ns#" inkscape:version="0.48.1 r9760">
		<path id="bg" fill="#563D7C" d="M323.8,480.4c0,29.7-24.3,54.1-54.1,54.1H53.6c-29.7,0-54.1-24.3-54.1-54.1V264.1
			c0-29.7,24.3-54.1,54.1-54.1h216.2c29.7,0,54.1,24.3,54.1,54.1V480.4z"/>
		<g id="B" enable-background="new    ">
			<path fill="#FFFFFF" d="M87.7,280.6h91.9c17,0,30.6,3.9,40.8,11.7s15.4,19.5,15.4,35.2c0,9.5-2.3,17.7-7,24.5s-11.3,12.1-20,15.8
				v0.5c11.7,2.5,20.5,8,26.5,16.5c6,8.6,9,19.3,9,32.2c0,7.4-1.3,14.4-4,20.8c-2.6,6.5-6.8,12-12.5,16.7
				c-5.7,4.7-12.9,8.4-21.7,11.1c-8.8,2.8-19.3,4.1-31.5,4.1H87.7L87.7,280.6L87.7,280.6z M120.8,359.8h54.1
				c7.9,0,14.6-2.2,19.9-6.8c5.3-4.6,7.9-11,7.9-19.5c0-9.5-2.4-16.3-7.2-20.1c-4.8-3.9-11.7-5.8-20.7-5.8h-54.1L120.8,359.8
				L120.8,359.8z M120.8,442.7h58.6c10.1,0,17.9-2.6,23.4-7.8c5.6-5.2,8.4-12.6,8.4-22.2c0-9.4-2.8-16.5-8.4-21.6
				s-13.4-7.5-23.4-7.5h-58.6V442.7z"/>
		</g>
	</g>
	<g>
		<path fill="#563D7C" d="M394.7,443.8V291.7h57.1c11.6,0,20.9,1.5,28,4.6c7,3.1,12.5,7.8,16.5,14.2c4,6.4,6,13.1,6,20.1
			c0,6.5-1.8,12.6-5.3,18.4c-3.5,5.7-8.9,10.4-16,13.9c9.2,2.7,16.3,7.3,21.2,13.8c4.9,6.5,7.4,14.2,7.4,23c0,7.1-1.5,13.8-4.5,19.9
			c-3,6.1-6.7,10.8-11.2,14.2c-4.4,3.3-10,5.8-16.7,7.5c-6.7,1.7-14.9,2.5-24.5,2.5H394.7z M414.8,355.6h32.9
			c8.9,0,15.3-0.6,19.2-1.8c5.1-1.5,9-4,11.6-7.6c2.6-3.5,3.9-8,3.9-13.3c0-5-1.2-9.5-3.6-13.3c-2.4-3.8-5.9-6.5-10.4-7.9
			c-4.5-1.4-12.2-2.1-23.1-2.1h-30.4V355.6z M414.8,425.9h37.9c6.5,0,11.1-0.2,13.7-0.7c4.6-0.8,8.5-2.2,11.6-4.2
			c3.1-1.9,5.7-4.8,7.7-8.5c2-3.7,3-8,3-12.8c0-5.7-1.5-10.6-4.4-14.8c-2.9-4.2-6.9-7.1-12.1-8.8c-5.2-1.7-12.6-2.5-22.3-2.5h-35.2
			V425.9z"/>
		<path fill="#563D7C" d="M528,388.7c0-20.4,5.7-35.5,17-45.4c9.5-8.2,21-12.2,34.7-12.2c15.2,0,27.5,5,37.2,14.9
			c9.6,9.9,14.4,23.6,14.4,41.2c0,14.2-2.1,25.3-6.4,33.5c-4.3,8.1-10.4,14.4-18.6,18.9c-8.1,4.5-17,6.7-26.6,6.7
			c-15.4,0-27.9-4.9-37.4-14.8C532.7,421.6,528,407.3,528,388.7z M547.2,388.7c0,14.1,3.1,24.7,9.2,31.7c6.2,7,13.9,10.5,23.2,10.5
			c9.3,0,17-3.5,23.1-10.6c6.2-7.1,9.2-17.8,9.2-32.3c0-13.6-3.1-24-9.3-31c-6.2-7-13.9-10.5-23.1-10.5c-9.3,0-17.1,3.5-23.2,10.5
			C550.2,364,547.2,374.6,547.2,388.7z"/>
		<path fill="#563D7C" d="M646.2,388.7c0-20.4,5.7-35.5,17-45.4c9.5-8.2,21-12.2,34.7-12.2c15.2,0,27.5,5,37.2,14.9
			c9.6,9.9,14.4,23.6,14.4,41.2c0,14.2-2.1,25.3-6.4,33.5c-4.3,8.1-10.4,14.4-18.6,18.9c-8.1,4.5-17,6.7-26.6,6.7
			c-15.4,0-27.9-4.9-37.4-14.8C650.9,421.6,646.2,407.3,646.2,388.7z M665.4,388.7c0,14.1,3.1,24.7,9.2,31.7
			c6.2,7,13.9,10.5,23.2,10.5c9.3,0,17-3.5,23.1-10.6c6.2-7.1,9.2-17.8,9.2-32.3c0-13.6-3.1-24-9.3-31c-6.2-7-13.9-10.5-23.1-10.5
			c-9.3,0-17.1,3.5-23.2,10.5C668.5,364,665.4,374.6,665.4,388.7z"/>
		<path fill="#563D7C" d="M812.1,427.1l2.7,16.5c-5.3,1.1-10,1.7-14.1,1.7c-6.8,0-12-1.1-15.8-3.2c-3.7-2.1-6.4-5-7.9-8.5
			c-1.5-3.5-2.3-10.8-2.3-22.1v-63.4h-13.7v-14.5h13.7v-27.3l18.6-11.2v38.5h18.8v14.5h-18.8v64.5c0,5.3,0.3,8.8,1,10.3
			c0.7,1.5,1.7,2.7,3.2,3.6c1.5,0.9,3.6,1.3,6.4,1.3C806,427.8,808.8,427.6,812.1,427.1z"/>
		<path fill="#563D7C" d="M822.9,410.9l18.5-2.9c1,7.4,3.9,13.1,8.7,17c4.7,3.9,11.4,5.9,19.9,5.9c8.6,0,14.9-1.7,19.1-5.2
			c4.2-3.5,6.2-7.6,6.2-12.3c0-4.2-1.8-7.5-5.5-10c-2.6-1.7-8.9-3.8-19.1-6.3c-13.7-3.5-23.2-6.5-28.5-9c-5.3-2.5-9.3-6-12-10.5
			c-2.7-4.5-4.1-9.4-4.1-14.8c0-4.9,1.1-9.5,3.4-13.6c2.2-4.2,5.3-7.7,9.2-10.4c2.9-2.1,6.9-4,11.9-5.4c5-1.5,10.4-2.2,16.1-2.2
			c8.6,0,16.2,1.2,22.8,3.7c6.5,2.5,11.4,5.9,14.5,10.1c3.1,4.3,5.3,9.9,6.4,17.1l-18.3,2.5c-0.8-5.7-3.2-10.1-7.2-13.3
			c-4-3.2-9.6-4.8-16.9-4.8c-8.6,0-14.7,1.4-18.4,4.3c-3.7,2.8-5.5,6.2-5.5,10c0,2.4,0.8,4.6,2.3,6.5c1.5,2,3.9,3.7,7.2,5
			c1.9,0.7,7.4,2.3,16.5,4.8c13.2,3.5,22.4,6.4,27.7,8.7c5.2,2.3,9.3,5.5,12.3,9.8c3,4.3,4.5,9.6,4.5,16c0,6.2-1.8,12.1-5.4,17.6
			c-3.6,5.5-8.9,9.8-15.7,12.8c-6.9,3-14.6,4.5-23.2,4.5c-14.3,0-25.2-3-32.7-8.9C829.8,431.4,825,422.6,822.9,410.9z"/>
		<path fill="#563D7C" d="M977.5,427.1l2.7,16.5c-5.3,1.1-10,1.7-14.1,1.7c-6.8,0-12-1.1-15.8-3.2c-3.7-2.1-6.4-5-7.9-8.5
			c-1.5-3.5-2.3-10.8-2.3-22.1v-63.4h-13.7v-14.5h13.7v-27.3l18.6-11.2v38.5h18.8v14.5h-18.8v64.5c0,5.3,0.3,8.8,1,10.3
			c0.7,1.5,1.7,2.7,3.2,3.6c1.5,0.9,3.6,1.3,6.4,1.3C971.4,427.8,974.1,427.6,977.5,427.1z"/>
		<path fill="#563D7C" d="M995.6,443.8V333.6h16.8v16.7c4.3-7.8,8.3-13,11.9-15.5c3.6-2.5,7.6-3.7,12-3.7c6.3,0,12.7,2,19.2,6
			l-6.4,17.3c-4.6-2.7-9.1-4-13.7-4c-4.1,0-7.8,1.2-11,3.7c-3.3,2.5-5.6,5.9-7,10.2c-2.1,6.6-3.1,13.9-3.1,21.8v57.7H995.6z"/>
		<path fill="#563D7C" d="M1138.5,430.2c-6.9,5.9-13.6,10-20,12.5c-6.4,2.4-13.3,3.6-20.6,3.6c-12.1,0-21.4-3-27.9-8.9
			c-6.5-5.9-9.8-13.5-9.8-22.7c0-5.4,1.2-10.3,3.7-14.8s5.7-8,9.7-10.7c4-2.7,8.5-4.7,13.4-6.1c3.7-1,9.2-1.9,16.6-2.8
			c15.1-1.8,26.2-3.9,33.3-6.4c0.1-2.6,0.1-4.2,0.1-4.9c0-7.6-1.8-13-5.3-16.1c-4.8-4.2-11.9-6.3-21.3-6.3c-8.8,0-15.3,1.5-19.5,4.6
			c-4.2,3.1-7.3,8.5-9.3,16.3l-18.3-2.5c1.7-7.8,4.4-14.1,8.2-18.9c3.8-4.8,9.3-8.5,16.5-11.1c7.2-2.6,15.5-3.9,25-3.9
			c9.4,0,17.1,1.1,22.9,3.3c5.9,2.2,10.2,5,13,8.4c2.8,3.4,4.7,7.6,5.8,12.7c0.6,3.2,0.9,8.9,0.9,17.2v24.9c0,17.4,0.4,28.4,1.2,33
			c0.8,4.6,2.4,9,4.7,13.2h-19.5C1140.3,440,1139,435.4,1138.5,430.2z M1136.9,388.5c-6.8,2.8-17,5.1-30.5,7.1
			c-7.7,1.1-13.1,2.4-16.3,3.7c-3.2,1.4-5.6,3.4-7.4,6.1c-1.7,2.7-2.6,5.6-2.6,8.9c0,5,1.9,9.1,5.7,12.5c3.8,3.3,9.3,5,16.6,5
			c7.2,0,13.6-1.6,19.2-4.7c5.6-3.1,9.7-7.5,12.4-12.9c2-4.2,3-10.4,3-18.7V388.5z"/>
		<path fill="#563D7C" d="M1184.8,486.1V333.6h17v14.3c4-5.6,8.5-9.8,13.6-12.6c5-2.8,11.2-4.2,18.4-4.2c9.4,0,17.7,2.4,24.9,7.3
			c7.2,4.8,12.6,11.7,16.3,20.5c3.7,8.8,5.5,18.5,5.5,29c0,11.3-2,21.4-6.1,30.5c-4,9-9.9,15.9-17.6,20.8
			c-7.7,4.8-15.8,7.2-24.3,7.2c-6.2,0-11.8-1.3-16.8-3.9c-4.9-2.6-9-6-12.2-10v53.7H1184.8z M1201.7,389.3c0,14.2,2.9,24.7,8.6,31.4
			c5.7,6.8,12.7,10.2,20.9,10.2c8.3,0,15.4-3.5,21.3-10.5c5.9-7,8.9-17.9,8.9-32.6c0-14-2.9-24.6-8.7-31.6
			c-5.8-7-12.7-10.5-20.7-10.5c-8,0-15,3.7-21.1,11.2C1204.7,364.3,1201.7,375.2,1201.7,389.3z"/>
	</g>
</g>
</svg>
