<?xml version="1.0" encoding="utf-8"?>
<!-- Generator: Adobe Illustrator 27.1.0, SVG Export Plug-In . SVG Version: 6.00 Build 0)  -->
<svg version="1.1" id="Layer_2" xmlns="http://www.w3.org/2000/svg" xmlns:xlink="http://www.w3.org/1999/xlink" x="0px" y="0px"
	 viewBox="0 0 3081 913" style="enable-background:new 0 0 3081 913;" xml:space="preserve">
<style type="text/css">
	.st0{fill:#009DDB;}
	.st1{fill-rule:evenodd;clip-rule:evenodd;fill:#009DDB;}
</style>
<g>
	<g>
		<rect x="547.4" y="3.2" class="st0" width="128.1" height="128.1"/>
		<rect x="547.4" y="164.2" class="st0" width="128.1" height="128.1"/>
		<rect x="547.4" y="325.2" class="st0" width="128.1" height="128.1"/>
		<rect x="391.9" y="164.2" class="st0" width="128.1" height="128.1"/>
		<rect x="391.9" y="325.2" class="st0" width="128.1" height="128.1"/>
		<rect x="236.4" y="164.2" class="st0" width="128.1" height="128.1"/>
		<rect x="236.4" y="325.2" class="st0" width="128.1" height="128.1"/>
		<rect x="82.7" y="325.2" class="st0" width="128.1" height="128.1"/>
		<rect x="702.9" y="325.2" class="st0" width="128.1" height="128.1"/>
		<path class="st0" d="M429,909.8c-471.7,0-416.8-415.3-416.8-415.3s654.6,0,787.4,0s176.7-42.1,176.7-42.1s-75-97,12.8-214
			c98.8,56.7,95.1,140.9,95.1,140.9s100.6-32.9,162.8,23.8c-34.8,113.4-188.4,106.1-188.4,106.1S916,909.8,429,909.8z"/>
	</g>
	<path id="docker" class="st1" d="M2621.9,720.2c38.9-33.3,77.8-66.7,116.6-100.2c13.2-11.4,27.8-23.3,40.9-35.3
		c-10.6-13.3-28.2-22.9-43.1-28.6c-30.2-11.5-60-7.6-87.7,8.4c-36.3,20.9-51.7,54.3-50.4,95.8c0.5,16.3,4.9,32.1,13.6,46
		C2614.8,711.2,2618.2,715.8,2621.9,720.2 M2666.9,751.8c19.1,6.7,40.8,5.7,60.4,2.3c10-4.3,35.6-15.4,45-13.8l1.5,0.2l1.4,0.7
		c5.7,2.8,11.2,6.7,14.2,12.6c6.9,13.7,3.6,27.5-9.9,35.3l-4.5,2.6c-49.7,28.7-102.6,24.7-152.1-2.1c-23.7-12.8-41.8-31.8-55.2-55
		l-3.1-5.4c-31.9-55.3-27.6-113.4,8.4-165.9c12.4-18.2,28.7-32.2,47.6-43.2l7.2-4.1c46.8-27,97-25.2,145.1-1.5
		c25.8,12.8,46.8,31.8,61.2,56.8l2.6,4.5c10.5,18.2-3.1,34-17.1,44.8c-16.3,12.6-32.7,27.7-48.3,41.1
		C2736.3,691.7,2701.6,721.8,2666.9,751.8z M3039.3,500.4h5.2c15.7,0,26.2,10.6,26.2,26.2c0,21.7-20.7,27.2-38.7,27.2
		c-23.5,0-46,14.2-62.2,30.2c-20.2,19.9-29.1,45.5-29.1,73.6v126.9c0,14.5-9.1,26.2-24.1,26.2h-4.1c-15.1,0-24.1-11.7-24.1-26.2
		V650.4c0-51.5,25.1-93.6,66.9-123C2980.2,509.7,3008.7,500.4,3039.3,500.4z M2386.2,590.5c20.4-20.4,40.8-40.7,61.4-60.8
		c5.8-5.6,27.6-29.3,36.1-29.3h9.4l1.1,0.2c12,2.5,20.9,10.1,20.9,22.9v5.2c0,8.8-10.3,18.9-15.9,24.9c-12,12.8-24.7,25.1-37,37.6
		l-63.3,64.3c27.3,27.3,54.5,54.7,81.5,82.2c7.5,7.6,15,15.2,22.3,23c2.6,2.7,6.4,6.1,8.6,9.9c2.3,3.6,3.8,7.6,3.8,11.8v5.4
		l-0.3,1.2c-2.9,12-10.5,21.6-23.8,21.6h-4.2c-8.7,0-18.5-9.8-24.4-15.4c-12.2-11.5-24.1-23.7-36-35.5l-40.2-39.5v63.1
		c0,14.5-9.1,26.2-24.1,26.2h-4.1c-15,0-24.1-11.7-24.1-26.2V427.9c0-14.5,9.1-26.2,24.1-26.2h4.1c15,0,24.1,11.6,24.1,26.2V590.5z
		 M2216.2,555c-7.9-3.7-22.7-4.9-31.3-5.3c-43.8-1.6-75.5,23-94,61.6c-6.4,13.3-9.3,27.4-9.3,42.2c0,44.9,23.6,76.3,63.6,95.5
		c14.6,7,33.5,8.3,49.5,8.3c14.1,0,33.9-8.6,46.4-14.6l2.2-1h9.7l1.1,0.2c11.9,2.5,20.9,10,20.9,22.9v5.2
		c0,31.9-58.3,39.2-80.6,40.8c-78.5,5.4-137.2-37.7-159.6-112.6c-3.9-13-5.6-25.9-5.6-39.5v-10.4c0-56.8,28.2-101.8,76.9-130.8
		c22.7-13.5,47.7-20.2,74.1-20.2h10.4c27.9,0,53.7,7.9,76.7,23.7l1.9,1.3l1.2,2c2.5,4.1,4.6,8.9,4.6,13.8v5.2
		c0,13.4-10,20.6-22.1,22.9l-1,0.2h-3.1C2241,566.4,2223.2,558.3,2216.2,555z M1738.4,654.6c0,39.8,19.6,69.1,53.2,89.7
		c15.8,9.7,33.2,14.1,51.7,14.1c39.4,0,68.4-20,88.7-53.2c9.7-15.8,14-33.2,14-51.7c0-37-17.8-65.3-48.3-85.8
		c-16.7-11.2-35.3-16.9-55.4-16.9c-43.9,0-75.5,22.2-94.4,61.6C1741.4,625.7,1738.4,639.8,1738.4,654.6z M1837,498.4h7.3
		c60.7,0,106.9,29.5,136.1,82.5c11.7,21.2,18,44.3,18,68.6v10.4c0,56.8-28,102.1-77,130.8c-22.7,13.3-47.7,20.2-74,20.2H1837
		c-56.8,0-102-28.1-130.8-77c-13.4-22.7-20.2-47.7-20.2-74v-10.4c0-56.8,28.2-101.9,76.9-130.8
		C1785.6,505.1,1810.7,498.4,1837,498.4z M1395.3,654.6c0,41,19.9,71.9,55.8,91.6c14.5,8,30.3,12.2,46.9,12.2
		c40.3,0,70.1-19,90.8-53.1c9.6-15.9,14-33.2,14-51.7c0-35.6-16.8-63.3-45.5-83.9c-17.4-12.5-36.9-18.8-58.3-18.8
		c-43.9,0-75.5,22.2-94.5,61.6C1398.2,625.7,1395.3,639.8,1395.3,654.6z M1602.8,537.5V426.8c0-14.5,9.1-26.2,24.1-26.2h4.2
		c15,0,24.1,11.7,24.1,26.2v232.9c0,56.8-28.1,102-77,130.8c-22.7,13.3-47.7,20.2-74,20.2h-10.4c-56.8,0-102-28.1-130.8-77
		c-13.4-22.7-20.2-47.7-20.2-74v-10.4c0-56.8,28.1-102,76.9-130.8c22.7-13.4,47.7-20.2,74-20.2h10.4
		C1542.7,498.4,1575.3,513.3,1602.8,537.5z"/>
</g>
</svg>
