<?xml version="1.0"?>
<svg width="500" height="500" xmlns="http://www.w3.org/2000/svg" xmlns:svg="http://www.w3.org/2000/svg" preserveAspectRatio="xMidYMid meet" version="1.0">
 <g class="layer">
  <title>Layer 1</title>
  <g fill="#000000" id="svg_1" transform="matrix(0.1 0 0 -0.1 0 0)">
   <path d="m2745,-1200c-71,-4 -319,-11 -550,-15l-420,-8l-130,-69c-71,-38 -134,-74 -140,-79c-5,-5 38,-9 113,-9l122,0l0,-448l0,-448l-80,-39c-91,-44 -88,-53 18,-54l62,-1l0,-195l0,-195l145,0l145,0l2,198l3,197l215,12c128,7 228,8 248,3c29,-8 49,-2 153,45c138,61 169,80 169,100c0,25 -46,28 -224,16c-94,-6 -260,-11 -368,-11l-198,0l0,410l0,410l38,0c20,0 159,5 309,11c149,6 282,9 296,5c30,-7 42,-33 25,-54c-16,-19 -20,-22 134,78c64,41 130,83 147,92c38,21 39,35 5,48c-27,11 -36,11 -239,0z" fill="#7f00ff" id="svg_2"/>
   <path d="m3129,-2255c-185,-35 -500,-153 -618,-232c-71,-46 -152,-123 -205,-193c-66,-85 -67,-80 21,-80l78,1l34,59c120,210 365,340 640,340c195,0 391,-61 391,-122c0,-10 2,-18 5,-18c22,0 114,59 162,105l58,55l-32,29c-44,41 -145,62 -318,67c-94,2 -165,-1 -216,-11z" fill="#7f00ff" id="svg_3"/>
   <path d="m1495,-2809c-8,-14 39,-21 52,-8c10,9 6,12 -17,14c-16,1 -32,-2 -35,-6z" fill="#7f00ff" id="svg_4"/>
   <path d="m770,-2839l-35,-6l0,-98l0,-97l40,0c22,0 47,5 55,10c12,8 10,10 -10,9c-55,-4 -60,-1 -60,40c0,21 3,59 6,85c6,44 8,46 38,46c73,-1 111,-85 65,-144c-14,-18 -16,-24 -5,-20c24,9 48,54 48,91c0,63 -58,97 -142,84z" fill="#7f00ff" id="svg_5"/>
   <path d="m970,-2840c-11,-7 -12,-10 -2,-10c10,0 13,-21 10,-95c-3,-81 -1,-95 13,-95c11,0 15,8 12,28c-2,15 0,62 5,105c7,67 6,77 -7,77c-9,0 -23,-5 -31,-10z" fill="#7f00ff" id="svg_6"/>
   <path d="m1145,-2839c-17,-7 -16,-9 10,-13c35,-7 53,1 34,13c-16,10 -18,10 -44,0z" fill="#7f00ff" id="svg_7"/>
   <path d="m1305,-2837l-50,-4l3,-99l3,-100l47,2c40,1 42,2 12,5c-35,4 -35,4 -32,48c3,38 7,45 26,45c11,0 28,5 36,10c11,7 5,10 -22,10c-37,0 -38,1 -38,35c0,33 2,35 34,35c19,0 38,5 41,10c3,6 3,9 -2,8c-4,-1 -30,-3 -58,-5z" fill="#7f00ff" id="svg_8"/>
   <path d="m1436,-2840c-11,-31 -11,-200 0,-200c6,0 9,13 6,30c-2,16 -1,46 3,66l6,37l64,-68c60,-63 64,-66 69,-44c7,33 12,189 6,189c-3,0 -12,-5 -20,-10c-10,-6 -11,-10 -2,-10c8,0 12,-21 12,-70c0,-38 -2,-70 -5,-70c-13,0 -108,106 -120,134c-9,21 -15,26 -19,16z" fill="#7f00ff" id="svg_9"/>
   <path d="m1723,-2845c-69,-30 -92,-126 -40,-171c34,-29 71,-30 115,-4c73,44 76,147 6,176c-40,17 -41,17 -81,-1zm75,-25c26,-24 37,-61 28,-94c-23,-91 -146,-64 -146,32c0,72 69,108 118,62z" fill="#7f00ff" id="svg_10"/>
   <path d="m2014,-2837c-21,-4 -21,-6 12,-60c25,-41 34,-69 34,-100c0,-38 3,-43 23,-42c12,0 16,3 10,6c-26,10 -15,80 22,138c33,51 34,55 15,55c-12,0 -18,-4 -15,-10c3,-5 -3,-26 -13,-47l-19,-37l-27,42c-15,24 -24,47 -21,52c4,6 5,9 3,9c-2,-1 -13,-4 -24,-6z" fill="#7f00ff" id="svg_11"/>
   <path d="m2325,-2840c-22,-4 -34,-8 -27,-9c11,-1 13,-22 10,-96l-3,-95l33,0c138,0 200,165 74,200c-20,5 -39,9 -42,9c-3,-1 -23,-5 -45,-9zm98,-30c33,-26 41,-62 23,-104c-11,-26 -23,-37 -51,-45c-60,-16 -65,-9 -65,85l0,84l34,0c18,0 45,-9 59,-20z" fill="#7f00ff" id="svg_12"/>
   <path d="m2585,-2840c-33,-4 -54,-7 -47,-8c9,-2 12,-26 10,-97l-3,-95l45,2c37,1 39,2 13,5c-32,4 -33,6 -33,49c0,42 1,44 29,44c17,0 33,5 36,10c4,6 -8,10 -29,10c-34,0 -36,2 -36,35c0,34 1,35 39,35c22,0 43,5 46,10c3,6 3,9 -2,8c-4,-1 -35,-4 -68,-8z" fill="#7f00ff" id="svg_13"/>
   <path d="m2765,-2839c-30,-13 -57,-47 -53,-67c2,-10 22,-31 46,-47c47,-32 53,-52 18,-68c-17,-8 -29,-8 -46,1c-16,8 -25,9 -33,1c-16,-16 32,-31 63,-19c70,26 77,67 20,103c-23,14 -43,32 -47,41c-8,23 17,45 48,42c16,-1 29,2 29,7c1,13 -20,16 -45,6z" fill="#7f00ff" id="svg_14"/>
   <path d="m3091,-2839c-8,-5 -9,-10 -3,-12c8,-3 9,-33 4,-96c-7,-84 -6,-93 10,-93c9,0 20,5 23,10c3,6 3,10 -2,10c-4,0 -7,38 -5,85c3,81 5,85 27,85c12,0 28,-7 35,-15c17,-20 5,-62 -20,-70c-20,-6 -19,-9 16,-48c46,-51 60,-61 82,-52c15,6 13,8 -8,20c-14,7 -36,27 -48,45c-22,29 -22,33 -8,49c22,24 20,68 -3,81c-24,12 -81,13 -100,1z" fill="#7f00ff" id="svg_15"/>
   <path d="m3311,-2839c-8,-5 -9,-10 -3,-12c8,-3 9,-33 4,-96c-7,-84 -6,-93 10,-93c9,0 20,5 23,10c3,6 3,10 -2,10c-4,0 -7,38 -5,85c3,81 5,85 27,85c12,0 28,-7 35,-15c17,-20 5,-62 -20,-70c-20,-6 -19,-9 16,-48c46,-51 60,-61 82,-52c15,6 13,8 -8,20c-14,7 -36,27 -48,45c-22,29 -22,33 -8,49c22,24 20,68 -3,81c-24,12 -81,13 -100,1z" fill="#7f00ff" id="svg_16"/>
   <path d="m3583,-2845c-38,-16 -73,-68 -73,-107c0,-39 45,-88 81,-88c68,0 119,49 119,115c0,70 -63,109 -127,80zm74,-29c55,-47 28,-146 -40,-146c-47,0 -77,34 -77,87c0,77 60,108 117,59z" fill="#7f00ff" id="svg_17"/>
   <path d="m3770,-2840c-11,-7 -12,-10 -2,-10c10,0 13,-21 10,-95l-3,-95l47,0c26,0 50,5 53,10c4,6 -10,10 -34,10c-47,0 -46,-2 -32,123c6,57 5,67 -8,67c-9,0 -23,-5 -31,-10z" fill="#7f00ff" id="svg_18"/>
   <path d="m3930,-2840c-11,-7 -12,-10 -2,-10c10,0 13,-21 10,-95l-3,-95l47,0c26,0 50,5 53,10c4,6 -10,10 -34,10c-47,0 -46,-2 -32,123c6,57 5,67 -8,67c-9,0 -23,-5 -31,-10z" fill="#7f00ff" id="svg_19"/>
   <path d="m4154,-2844c-72,-32 -98,-118 -49,-170c29,-32 77,-35 119,-7c58,39 74,110 34,155c-29,32 -64,39 -104,22zm72,-29c21,-19 26,-31 26,-66c-1,-53 -24,-81 -66,-81c-55,1 -92,48 -82,106c12,62 73,82 122,41z" fill="#7f00ff" id="svg_20"/>
   <path d="m2942,-2853c-5,-6 -22,-43 -37,-82c-15,-38 -34,-78 -43,-87c-14,-16 -13,-18 7,-18c12,0 20,4 16,9c-7,13 15,61 29,61c6,0 21,3 33,6c18,5 23,0 34,-35c12,-40 39,-56 54,-31c3,6 0,10 -7,10c-8,0 -22,33 -37,85c-25,90 -32,103 -49,82zm17,-79c1,-12 -6,-18 -19,-18c-24,0 -23,-2 -8,40c10,30 12,32 19,14c4,-10 8,-27 8,-36z" fill="#7f00ff" id="svg_21"/>
   <path d="m1097,-2868c-27,-29 -20,-49 25,-79c24,-16 44,-36 46,-45c5,-25 -35,-43 -64,-29c-16,7 -25,7 -30,0c-17,-28 47,-29 84,-2c42,31 40,58 -8,88c-47,29 -58,49 -40,70c18,21 6,19 -13,-3z" fill="#7f00ff" id="svg_22"/>
   <path d="m1747,-3127c-4,-3 -7,-34 -7,-67c0,-69 -22,-171 -46,-219c-9,-18 -33,-52 -52,-76c-34,-42 -35,-44 -12,-38c14,4 107,13 208,19c176,12 183,13 178,33c-3,11 -8,44 -12,73l-7,52l-51,0l-51,0l31,22c50,35 73,78 80,146l7,62l-130,0c-71,0 -133,-3 -136,-7z" fill="#7f00ff" id="svg_23"/>
   <path d="m2113,-3132c-16,-28 -16,-254 1,-338c74,-363 359,-602 779,-651c150,-17 270,6 443,86c64,29 238,138 249,155c2,4 -34,-4 -82,-16c-300,-80 -560,-70 -763,31c-171,84 -276,192 -344,353c-37,87 -55,171 -62,290l-7,102l-103,0c-71,0 -105,-4 -111,-12z" fill="#7f00ff" id="svg_24"/>
   <path d="m2800,-3331c-48,-13 -103,-18 -207,-18c-162,-1 -156,4 -122,-87l21,-56l46,7c95,14 236,80 312,145c40,34 39,34 -50,9z" fill="#7f00ff" id="svg_25"/>
  </g>
 </g>
</svg>