<?xml version="1.0" encoding="utf-8"?>
<!-- Generator: Adobe Illustrator 27.1.0, SVG Export Plug-In . SVG Version: 6.00 Build 0)  -->
<svg version="1.1" id="Capa_1" xmlns="http://www.w3.org/2000/svg" xmlns:xlink="http://www.w3.org/1999/xlink" x="0px" y="0px"
	 viewBox="0 0 365 108" style="enable-background:new 0 0 365 108;" xml:space="preserve">
<style type="text/css">
	.st0{fill:#AC743A;}
	.st1{clip-path:url(#SVGID_00000131331595742559866200000005305851410877713568_);fill:#AC743A;}
	.st2{clip-path:url(#SVGID_00000131331595742559866200000005305851410877713568_);fill:#232D5C;}
	.st3{fill:#CB9F68;}
	.st4{fill:#232D5C;}
</style>
<g>
	<path class="st0" d="M290.7,70.4c0-3.2-1.1-5.9-3.2-8.1c-2.2-2.2-4.8-3.3-8-3.3c-3.1,0-5.7,1.1-7.9,3.4c-2.2,2.3-3.2,4.9-3.2,8.1
		s1.1,5.8,3.3,8.1c2.2,2.3,4.8,3.4,7.8,3.4c3.1,0,5.7-1.1,7.9-3.3C289.6,76.5,290.7,73.8,290.7,70.4 M294,56.2v28.2h-3.6v-4.8
		c-3.2,3.9-6.9,5.8-11,5.8c-4.1,0-7.6-1.5-10.5-4.4c-2.8-3-4.2-6.5-4.2-10.6c0-4.1,1.4-7.6,4.3-10.5c2.9-2.9,6.3-4.4,10.3-4.4
		c4.6,0,8.3,2,11.2,5.9v-5.1H294"/>
	<path class="st0" d="M305.8,80.8h4.4c4.6,0,7.9-0.2,10-0.7c2.1-0.5,3.9-1.4,5.5-2.7c1.6-1.4,2.7-3,3.6-5c0.8-1.9,1.2-4.2,1.2-6.7
		c0-2.5-0.5-4.8-1.4-6.9c-0.9-2.1-2.2-3.9-4-5.3c-1.7-1.4-3.8-2.3-6.2-2.8c-2.3-0.5-5.8-0.7-10.3-0.7h-2.7L305.8,80.8 M302.1,84.4
		V46.3h7.9c5.4,0,9.4,0.4,11.9,1.2c2.5,0.8,4.7,2,6.6,3.8c1.8,1.7,3.3,3.8,4.2,6.3c1,2.5,1.5,5.4,1.5,8.7c0,3.3-0.8,6.4-2.3,9.3
		c-1.5,2.9-3.6,5.1-6.3,6.6c-2.6,1.5-6.4,2.2-11.3,2.2H302.1"/>
	<path class="st0" d="M254.2,56.2h3.7v28.2h-3.7V56.2 M253,48.4c0-0.8,0.3-1.5,0.8-2.1c0.6-0.6,1.3-0.9,2.1-0.9
		c0.8,0,1.6,0.3,2.1,0.9c0.6,0.6,0.9,1.3,0.9,2.1c0,0.8-0.3,1.5-0.9,2.1c-0.6,0.6-1.3,0.8-2.1,0.8c-0.8,0-1.5-0.3-2.1-0.9
		C253.3,49.8,253,49.2,253,48.4"/>
	<polyline class="st0" points="152.1,84.4 157.6,46.3 158.1,46.3 173.6,77.5 189,46.3 189.6,46.3 195.1,84.4 191.3,84.4 187.6,57.1 
		174.1,84.4 173.2,84.4 159.5,56.9 155.8,84.4 152.1,84.4 	"/>
	<path class="st0" d="M226.5,70.4c0-3.2-1.1-5.9-3.2-8.1c-2.2-2.2-4.8-3.3-8-3.3c-3.1,0-5.7,1.1-7.9,3.4c-2.2,2.3-3.2,4.9-3.2,8.1
		s1.1,5.8,3.3,8.1c2.2,2.3,4.8,3.4,7.8,3.4c3.1,0,5.7-1.1,7.9-3.3C225.4,76.5,226.5,73.8,226.5,70.4 M229.9,56.2v28.2h-3.6v-4.8
		c-3.2,3.9-6.9,5.8-11,5.8c-4.1,0-7.6-1.5-10.5-4.4c-2.8-3-4.2-6.5-4.2-10.6c0-4.1,1.4-7.6,4.3-10.5c2.9-2.9,6.3-4.4,10.3-4.4
		c4.6,0,8.3,2,11.2,5.9v-5.1H229.9"/>
	<path class="st0" d="M236,56.2h3.7v4.1c1-1.7,1.9-2.9,2.9-3.7c1-0.8,2-1.2,3.1-1.2c1.2,0,2.3,0.3,3.5,1l-1.9,3.1
		c-0.5-0.3-1.1-0.5-1.6-0.5c-1.1,0-2.1,0.6-3.1,1.7c-1,1.1-1.7,2.6-2.1,4.4c-0.5,1.8-0.7,5-0.7,9.7v9.5H236V56.2"/>
	<g>
		<defs>
			<rect id="SVGID_1_" y="0" width="365" height="107.7"/>
		</defs>
		<clipPath id="SVGID_00000155145430594530825940000002436270090832446895_">
			<use xlink:href="#SVGID_1_"  style="overflow:visible;"/>
		</clipPath>
		<path style="clip-path:url(#SVGID_00000155145430594530825940000002436270090832446895_);fill:#AC743A;" d="M345.9,66v14.6h4.7
			c2.7,0,4.7-0.3,6-0.8c1.3-0.6,2.4-1.4,3.2-2.5c0.8-1.2,1.2-2.4,1.2-3.6c0-1.2-0.2-2.3-0.7-3.2c-0.5-0.9-1.1-1.7-2.1-2.4
			c-0.9-0.7-2-1.2-3.2-1.6c-1.2-0.4-3.6-0.5-7-0.5H345.9 M345.9,50v12.2h2.2c3.3,0,5.8-0.5,7.4-1.6c1.6-1.1,2.4-2.7,2.4-5
			c0-3.7-2.5-5.6-7.6-5.6H345.9 M342.1,46.3h7.5c4,0,7,0.8,9.1,2.4c2.1,1.6,3.1,3.9,3.1,6.9c0,1.7-0.4,3.2-1.3,4.6
			c-0.8,1.4-2,2.5-3.6,3.3c2.6,0.8,4.6,2.1,5.9,3.8c1.4,1.7,2.1,3.7,2.1,6c0,3.1-1.1,5.8-3.4,7.8c-2.3,2.1-5.3,3.1-8.9,3.1h-10.5
			V46.3"/>
		<path style="clip-path:url(#SVGID_00000155145430594530825940000002436270090832446895_);fill:#232D5C;" d="M158.7,0
			c-2.5,0.1-1.7,0.8-7.1,2.1c-5.5,1.3-12.2,0.9-18,3.4c-17.6,7.4-21.1,32.6-37.1,41.6c-11.9,6.7-24,7.3-34.8,10.7
			c-7.1,2.2-14.9,6.8-21.4,12.4c-5,4.3-5.1,8.1-10.4,13.5c-5.6,5.8-22.2,0.1-29.8,9c2.4,2.5,3.5,3.1,8.3,2.5c-1,1.9-6.8,3.5-5.7,6.2
			c1.2,2.9,15.3,4.9,28.2-2.9c6-3.6,10.8-8.8,20.1-10.1c12.1-1.6,26,1,39.9,3c-2.1,6.2-6.2,10.3-9.6,15.2c-1,1.1,2.1,1.2,5.6,0.6
			c6.4-1.6,11-2.8,15.8-5.6c5.9-3.4,6.8-12.2,14-14.2c4,6.2,15,7.7,21.8,2.7c-6-1.7-7.6-14.4-5.6-20c1.9-5.3,3.8-13.8,5.7-20.8
			c2.1-7.5,2.8-17,5.3-20.9c3.8-5.8,7.9-7.8,11.5-11c3.6-3.3,6.9-6.4,6.8-13.9C162.2,1.3,160.9-0.1,158.7,0L158.7,0L158.7,0z"/>
	</g>
	<path class="st3" d="M5.2,100.9c9.2,1.3,14.7,0,22.1-3.2c6.3-2.7,12.3-8.3,19.7-10.7c10.8-3.5,22.7,0,34.3,0.7
		c2.8,0.2,5.6,0.2,8.4-0.1C94,85,93.9,75,98.1,74.1c-0.1,13.9-5.8,22.3-11.8,30.4c12.6-2.2,20.1-9.5,25.2-19.2
		c1.5-2.9,2.9-6.1,4-9.4c1.8,1.4,0.8,5.6,1.7,7.9c8.7-4.8,13.6-15.8,16.9-27c3.8-12.9,5.4-26,7.8-29.8c2.4-3.7,6.1-6,9.5-8.4
		c3.9-2.7,7.3-5.5,7.9-10.7c-4.1-0.4-5-1.3-5.6-3.4c-2,1.2-3.9,1.4-6,1.5c-1.8,0.1-3.9,0-6.3,0.2c-20.4,2.1-23,24.6-36.1,37.3
		c-1,0.9-2,1.8-3.1,2.6c-4.6,3.4-10.2,5.9-15.4,7.8c-8.4,3.2-16.3,3.4-24.2,6.2c-5.8,2-11.6,5-16.4,8.2c-1.2,0.8-2.3,1.6-3.3,2.5
		c-2.8,2.3-4.6,4.8-6.4,7.4c-1.8,2.7-3.6,5.4-6.3,8C26,90.5,9.8,87.4,4.1,91.4c-0.6,0.4-1.1,1-1.5,1.6c3.1,1.4,5.2,0.5,8.8,0.9
		C11.9,97.3,4,99.3,5.2,100.9L5.2,100.9L5.2,100.9z"/>
	<path class="st3" d="M128.8,76.4c0.2,3.9,2.5,11.6,4.5,13.5c-3.9,1-10.7-0.6-12.4-3.4C121.9,82.6,126.5,78.9,128.8,76.4L128.8,76.4
		z"/>
	<path class="st4" d="M134.6,14.6c2.9,2.5,9,0.5,7.9-4.5C138,9.7,135.4,11.2,134.6,14.6L134.6,14.6z"/>
	<path class="st4" d="M154.7,8.7c-0.8,1.6-2.2,3.7-2.2,7.8c0,0.7-0.5,1.2-0.5,0.1c0-4,1.1-5.7,2.2-8C154.7,7.7,155,8,154.7,8.7
		L154.7,8.7z"/>
	<path class="st4" d="M154,8.1c-0.9,1.5-3.1,4.3-3.4,8.4c-0.1,0.7-0.6,1.1-0.6,0.1c0.4-4,2.1-6.5,3.5-8.7C154,7.1,154.3,7.5,154,8.1
		L154,8.1z"/>
	<path class="st4" d="M153.2,7.3c-1,1.5-4.4,4.8-5.1,8.9c-0.1,0.7-0.7,1.1-0.6,0c0.7-3.9,3.6-7,5.1-9.1
		C153.4,6.3,153.6,6.7,153.2,7.3L153.2,7.3z"/>
	<path class="st4" d="M152.6,6.4c-1.2,1.3-5.2,5.6-6.5,9.5c-0.2,0.7-0.9,1-0.5-0.1c1.3-3.8,4.8-7.9,6.6-9.7
		C152.9,5.4,153.1,5.9,152.6,6.4L152.6,6.4L152.6,6.4z"/>
</g>
</svg>
