<?xml version="1.0" encoding="utf-8"?>
<!-- Generator: Adobe Illustrator 28.0.0, SVG Export Plug-In . SVG Version: 6.00 Build 0)  -->
<svg version="1.1" id="Capa_1" xmlns="http://www.w3.org/2000/svg" xmlns:xlink="http://www.w3.org/1999/xlink" x="0px" y="0px"
	 viewBox="0 0 477 250" style="enable-background:new 0 0 477 250;" xml:space="preserve">
<style type="text/css">
	.st0{fill-rule:evenodd;clip-rule:evenodd;fill:#006189;}
	.st1{fill-rule:evenodd;clip-rule:evenodd;fill:#E48F00;}
</style>
<g>
	<path class="st0" d="M0.4,226.6h15.7v-62.3l24.6,54.4c2.8,6.5,6.8,8.9,14.5,8.9s11.5-2.4,14.4-8.9L94,164.4v62.3h15.8v-62.3
		c0-6-2.4-8.9-7.5-10.5c-12-3.6-20-0.5-23.6,7.6l-24,53.7l-23.2-53.7c-3.5-8.1-11.6-11.2-23.7-7.6c-5,1.6-7.4,4.5-7.4,10.5
		L0.4,226.6L0.4,226.6z"/>
	<path class="st0" d="M122.9,176h15.8v34.2c-0.1,1.9,0.6,6.3,9.2,6.4c4.5,0.1,34.1,0,34.3,0v-40.9H198c0,0,0,55.7,0,56
		c0,13.8-17.1,16.8-25,16.9h-49.8v-10.5c0.1,0,49.8,0,49.9,0c10.2-1.1,8.9-6.2,8.9-7.9v-4.1h-33.3c-15.6-0.1-25.6-7-25.8-14.9
		C122.9,210.6,123.3,176.2,122.9,176L122.9,176z"/>
	<path class="st0" d="M462.7,136.3c-9.7-0.2-17.2,0.7-23.5,3.4c-1.8,0.7-4.7,0.7-5,3c1,1,1.1,2.5,1.9,3.9c1.5,2.4,4,5.7,6.3,7.4
		c2.5,1.9,5.1,3.9,7.7,5.6c4.7,2.9,10,4.6,14.6,7.5c2.7,1.7,5.3,3.9,8,5.7c1.3,1,2.2,2.5,3.9,3.1c0-0.1,0-0.2,0-0.4
		c-0.8-1.1-1.1-2.7-1.9-3.9c-1.2-1.2-2.4-2.3-3.6-3.5c-3.5-4.7-7.9-8.8-12.6-12.2c-3.9-2.7-12.3-6.3-13.9-10.8c0,0-0.1-0.1-0.2-0.2
		c2.7-0.2,5.8-1.2,8.3-1.9c4.1-1.1,7.9-0.8,12.1-1.9c1.9-0.5,3.9-1.1,5.8-1.7c0-0.4,0-0.7,0-1.1c-2.2-2.2-3.7-5.1-6-7.1
		c-6.2-5.3-12.9-10.5-20-14.9c-3.7-2.4-8.6-4-12.6-6c-1.5-0.7-3.9-1.1-4.7-2.3c-2.2-2.7-3.4-6.2-5-9.3c-3.5-6.7-6.9-14-9.9-21
		c-2.2-4.7-3.5-9.4-6.2-13.8c-12.5-20.6-26-33-46.8-45.2c-4.5-2.5-9.8-3.6-15.5-5c-3-0.1-6-0.4-9.1-0.5c-1.9-0.8-3.9-3.1-5.6-4.2
		c-6.9-4.4-24.7-13.8-29.7-1.3c-3.3,7.9,4.8,15.6,7.6,19.6c2.1,2.8,4.7,5.9,6.2,9.1c0.8,2.1,1.1,4.2,1.9,6.4
		c1.9,5.3,3.7,11.2,6.3,16.2c1.3,2.5,2.8,5.2,4.5,7.5c1,1.3,2.7,1.9,3,4.1c-1.7,2.4-1.8,6-2.8,9.1c-4.4,13.7-2.7,30.6,3.5,40.6
		c1.9,3,6.5,9.7,12.7,7.1c5.4-2.2,4.2-9.1,5.8-15.1c0.4-1.5,0.1-2.4,0.8-3.4c0,0.1,0,0.2,0,0.2c1.7,3.4,3.4,6.7,5,10
		c3.7,5.9,10.3,12.1,15.7,16.2c2.9,2.2,5.2,5.9,8.8,7.3c0-0.1,0-0.2,0-0.4c-0.1,0-0.1,0-0.2,0c-0.7-1.1-1.8-1.6-2.8-2.4
		c-2.2-2.2-4.6-4.8-6.3-7.3c-5.1-6.8-9.6-14.3-13.5-22c-1.9-3.7-3.6-7.9-5.2-11.6c-0.7-1.5-0.7-3.6-1.9-4.4c-1.8,2.7-4.5,5-5.8,8.2
		c-2.3,5.2-2.5,11.6-3.4,18.3c-0.5,0.1-0.2,0-0.5,0.2c-3.9-1-5.2-5-6.7-8.3c-3.6-8.6-4.2-22.4-1.1-32.3c0.8-2.5,4.5-10.5,3-12.9
		c-0.7-2.3-3.1-3.6-4.5-5.4c-1.6-2.3-3.3-5.2-4.4-7.7c-2.9-6.8-4.4-14.3-7.5-21c-1.5-3.1-4-6.4-6-9.3c-2.3-3.3-4.8-5.6-6.7-9.4
		c-0.6-1.3-1.5-3.5-0.5-5c0.2-1,0.7-1.3,1.7-1.6c1.6-1.3,6,0.4,7.6,1.1c4.5,1.8,8.2,3.5,12,6c1.7,1.2,3.5,3.5,5.7,4.1
		c0.8,0,1.7,0,2.5,0c3.9,0.8,8.2,0.2,11.9,1.3c6.4,2.1,12.2,5.1,17.4,8.3c15.8,10,28.9,24.3,37.7,41.4c1.5,2.8,2.1,5.3,3.4,8.2
		c2.5,5.9,5.7,12,8.2,17.8c2.5,5.7,5,11.5,8.6,16.2c1.8,2.5,9.1,3.9,12.3,5.2c2.4,1.1,6.2,2.1,8.3,3.4c4.1,2.5,8.2,5.4,12.1,8.2
		C456.3,130.9,462.3,133.9,462.7,136.3L462.7,136.3z"/>
	<path class="st0" d="M339.4,31.2c-2.1,0-3.5,0.2-5,0.6c0,0,0,0.1,0,0.2c0.1,0,0.1,0,0.2,0c1,1.9,2.7,3.3,3.9,5
		c1,1.9,1.8,3.9,2.8,5.8c0.1-0.1,0.2-0.2,0.2-0.2c1.7-1.2,2.5-3.1,2.5-6c-0.7-0.8-0.8-1.7-1.5-2.5C341.9,32.8,340.3,32.2,339.4,31.2
		L339.4,31.2z"/>
	<path class="st1" d="M210.2,226.6h45.5c5.3,0,10.4-1.1,14.5-3c6.9-3.1,10.2-7.4,10.2-12.9v-11.6c0-4.5-3.7-8.7-11.2-11.6
		c-3.9-1.5-8.7-2.3-13.4-2.3h-19.1c-6.4,0-9.4-1.9-10.3-6.2c-0.1-0.5-0.1-1-0.1-1.5v-7.1c0-0.4,0-0.8,0.1-1.3
		c0.8-3.3,2.5-4.1,8.1-4.7c0.5,0,1.1,0,1.5,0h45.1v-10.5h-44.4c-6.4,0-9.8,0.4-12.8,1.3c-9.3,2.9-13.4,7.5-13.4,15.6v9.2
		c0,7.1,8,13.2,21.5,14.6c1.5,0.1,3,0.1,4.6,0.1h16.3c0.6,0,1.2,0,1.7,0.1c5,0.5,7.1,1.3,8.6,3.1c1,1,1.2,1.8,1.2,2.9v9.2
		c0,1.1-0.7,2.5-2.2,3.7s-3.7,2.1-6.8,2.2c-0.6,0-1,0.1-1.6,0.1h-43.7v10.6H210.2z"/>
	<path class="st1" d="M378.8,208.4c0,10.8,8.1,16.8,24.3,18c1.6,0.1,3,0.2,4.6,0.2h41.1v-10.5h-41.5c-9.2,0-12.7-2.3-12.7-7.9v-54.4
		h-15.8V208.4L378.8,208.4z"/>
	<path class="st1" d="M290.4,208.9v-37.5c0-9.6,6.8-15.4,20-17.2c1.5-0.1,2.9-0.2,4.2-0.2h30c1.6,0,2.9,0.1,4.5,0.2
		c13.2,1.8,19.8,7.6,19.8,17.2v37.5c0,7.7-2.8,11.9-9.3,14.6l15.5,14h-18.3l-12.6-11.4l-12.7,0.7h-16.9c-2.8,0-5.9-0.4-9.2-1.2
		C295.3,222.9,290.4,217.6,290.4,208.9L290.4,208.9z M307.4,208c0,0.5,0.2,1,0.4,1.6c0.8,4.4,5,6.8,11.2,6.8h14.3l-13.1-11.9h18.3
		l11.5,10.4c2.2-1.2,3.5-2.9,4-5.1c0.1-0.5,0.1-1.1,0.1-1.6v-35.9c0-0.5,0-1-0.1-1.5c-0.8-4.1-5-6.4-11.1-6.4h-23.8
		c-7,0-11.6,3-11.6,7.9L307.4,208L307.4,208z"/>
	<path class="st1" d="M456.1,226.8h2.3V218h3v-1.8h-8.5v1.8h3.1v8.8H456.1z M473.6,226.8h2.2v-10.6h-3.3l-2.7,7.3l-2.9-7.3h-3.1
		v10.6h2.1v-8.1h0.1l3,8.1h1.6l3-8.1l0,0L473.6,226.8L473.6,226.8z"/>
</g>
</svg>
