<?xml version="1.0" encoding="utf-8"?>
<!-- Generator: Adobe Illustrator 27.1.0, SVG Export Plug-In . SVG Version: 6.00 Build 0)  -->
<svg version="1.1" id="Capa_1" xmlns="http://www.w3.org/2000/svg" xmlns:xlink="http://www.w3.org/1999/xlink" x="0px" y="0px"
	 viewBox="0 0 973 250" style="enable-background:new 0 0 973 250;" xml:space="preserve">
<style type="text/css">
	.st0{fill:#6DB33F;}
	.st1{fill:#FFFFFF;}
</style>
<g>
	<path class="st0" d="M228.9,15.1c-3.3,8.2-8,16.2-13.4,23.4c-47.8-49.6-126.7-50.9-176-3.1s-50.9,126.7-3.1,176
		c1.5,1.8,3.3,3.3,5.1,4.9l4.6,4.1c52.4,44.2,131.1,37.5,175.3-14.9c17-20,27.2-45.2,29-71.4C254.1,103,244.5,62.9,228.9,15.1z
		 M59.5,217.6c-3.6,4.6-10.3,5.1-14.9,1.5c-4.6-3.6-5.1-10.3-1.5-14.9s10.3-5.1,14.9-1.5C62.4,206.3,63.1,212.9,59.5,217.6z
		 M228.1,180.3c-30.6,40.9-96.4,27-138.2,29c0,0-7.5,0.5-14.9,1.5c0,0,2.8-1.3,6.4-2.6c29.6-10.3,43.4-12.3,61.4-21.6
		c33.7-17.2,67.3-55,74-94c-12.8,37.5-51.9,69.9-87.4,83c-24.4,9-68.4,17.7-68.4,17.7l-1.8-1C29.5,177.7,28.4,113,82.9,92.2
		c23.9-9.3,46.5-4.1,72.5-10.3c27.5-6.4,59.4-27,72.2-54C242,71.4,259.4,138.7,228.1,180.3z"/>
	<path class="st0" d="M321.1,174.1c-3.3-2.1-5.4-5.7-5.1-9.5c0-6.2,4.9-11.3,11-11.3c0,0,0,0,0.3,0c2.1,0,4.1,0.5,5.9,1.5
		c10.3,7.2,22.4,11,34.7,11.6c11.8,0,18.8-5.1,18.8-13.1v-0.5c0-9.5-12.8-12.6-27-17c-17.7-5.1-37.8-12.3-37.8-35.5v-0.5
		c0-22.9,19-36.7,42.9-36.7c13.4,0.3,26.2,3.6,38,9.8c4.1,2.1,6.7,5.9,6.7,10.5c0,6.2-5.1,11.3-11.3,11.3H398
		c-1.8,0-3.6-0.5-5.4-1.3c-8.7-4.9-18.2-7.7-28.3-8.2c-10.8,0-17,5.1-17,11.8v0.5c0,9,13.1,12.6,27.2,17.2
		c17.7,5.4,37.5,13.6,37.5,35.2v0.5c0,25.4-19.8,38-44.7,38C350.9,188.3,334.7,183.4,321.1,174.1z"/>
	<path class="st0" d="M422.4,77.3c-0.3-7.5,5.9-13.6,13.4-13.9h0.3c7.7,0,13.9,6.2,13.9,13.9l0,0v8.2c9-12.6,21.6-22.6,41.1-22.6
		c28.3,0,56,22.4,56,62.7v0.5c0,40.1-27.5,62.7-56,62.7c-20,0-32.6-10-41.1-21.3v42.7c0,7.7-6.2,13.9-13.9,13.9l0,0
		c-7.5,0-13.6-6.2-13.6-13.6v-0.3V77.3z M519.2,126.1v-0.5c0-23.4-15.7-38.5-34.4-38.5s-35.2,15.7-35.2,38.5v0.5
		c0,23.1,16.4,38.5,35.2,38.5C503.6,164.6,519.2,150,519.2,126.1z"/>
	<path class="st0" d="M557.8,77.3c-0.3-7.5,5.9-13.6,13.4-13.9h0.3c7.7,0,13.9,6.2,13.9,13.9l0,0v6.7c1.3-10.3,18.2-20.6,30.3-20.6
		c6.9-0.5,13.1,4.6,13.6,11.6c0,0.8,0,1.3,0,2.1c0,6.7-4.6,12.3-11,13.4c-19.8,3.3-33.1,20.6-33.1,44.5v39.8
		c0,7.7-6.2,13.6-13.9,13.6c-7.5,0-13.6-5.9-13.6-13.4c0,0,0,0,0-0.3L557.8,77.3L557.8,77.3z"/>
	<path class="st0" d="M640.3,77.5c-0.3-7.5,5.9-13.6,13.4-13.9h0.3c7.7,0,13.9,6.2,13.9,13.9l0,0v97.4c0,7.7-6.2,13.6-13.9,13.6
		c-7.7,0-13.6-6.2-13.6-13.6V77.5z"/>
	<path class="st0" d="M681.9,77.5c-0.3-7.5,5.9-13.6,13.4-13.9h0.3c7.7,0,13.9,6.2,13.9,13.9l0,0v5.7c8.2-12.8,22.6-20.3,37.8-19.8
		c27.2,0,42.9,18.2,42.9,46.3v65c0.3,7.5-5.7,13.4-13.1,13.6c-0.3,0-0.3,0-0.5,0c-7.5,0.3-13.6-5.9-13.9-13.4v-0.3v-56.5
		c0-18.8-9.3-29.6-26-29.6c-15.9,0-27.2,11.3-27.2,30.1v56.3c0,7.7-6.2,13.9-13.9,13.9c-7.7,0-13.9-6.2-13.9-13.9L681.9,77.5
		L681.9,77.5z"/>
	<path class="st0" d="M911.9,63.1c-7.7,0-13.9,6.2-13.9,13.9l0,0v8.2c-9-12.6-21.6-22.6-41.1-22.6c-28.3,0-56,22.4-56,62.7v0.5
		c0,40.1,27.5,62.7,56,62.7c20,0,32.6-10,41.1-21.1c-1.3,21.8-14.6,33.1-38,33.1c-12.8,0-25.7-3.1-37-9.5c-1.5-0.8-3.1-1-4.9-1
		c-6.4,0-11.6,4.9-11.8,11.3c0,4.9,3.1,9.5,7.7,11c14.6,7.2,30.6,10.8,46.8,10.8c21.8,0,38.8-5.1,49.6-16.2
		c10-10,15.4-25.2,15.4-45.5V77.3c0.3-7.7-5.9-13.9-13.6-14.1C912.1,63.1,911.9,63.1,911.9,63.1z M863.3,164.6
		c-19,0-34.4-14.9-34.4-38.8v-0.5c0-23.4,15.7-38.5,34.4-38.5s35.2,15.7,35.2,38.5v0.5C898.8,149,882.3,164.6,863.3,164.6z"/>
	<path class="st0" d="M668,30.2c0,7.7-6.2,13.9-13.9,13.9c-7.7,0-13.9-6.2-13.9-13.9s6.2-13.9,13.9-13.9l0,0
		c7.5-0.3,13.6,5.9,13.9,13.4C668,30,668,30,668,30.2z"/>
	<path class="st0" d="M957.4,92.2c-7.7,0-14.1-6.4-14.1-14.1s6.4-14.1,14.1-14.1c7.7,0,14.1,6.4,14.1,14.1S965.1,92.2,957.4,92.2z
		 M957.4,66c-6.7,0-12.1,5.4-12.1,12.1s5.4,12.1,12.1,12.1c6.7,0,12.1-5.4,12.1-12.1c0-6.7-5.1-12.1-11.8-12.1H957.4z M961.2,86
		l-4.1-6.4h-2.8V86H952V69.8h6.7c2.8-0.3,5.1,2.1,5.4,4.9l0,0c0,2.3-1.8,4.4-4.1,4.9l4.4,6.4H961.2z M958.4,71.9h-4.1v5.7h4.4
		c1.5,0,2.8-1.3,2.8-2.8S960.2,71.9,958.4,71.9L958.4,71.9z"/>
	<path class="st0" d="M221.4,205.5c17-20,27.2-45.2,29-71.4"/>
	<path class="st1" d="M228.1,180.3c-30.6,40.9-96.4,27-138.2,29c0,0-7.5,0.5-14.9,1.5c0,0,2.8-1.3,6.4-2.6
		c29.6-10.3,43.4-12.3,61.4-21.6c33.7-17.2,67.3-55,74-94c-12.8,37.5-51.9,69.9-87.4,83c-24.4,9-68.4,17.7-68.4,17.7l-1.8-1
		C29.5,177.7,28.4,113,82.9,92.2c23.9-9.3,46.5-4.1,72.5-10.3c27.5-6.4,59.4-27,72.2-54C242,71.4,259.4,138.7,228.1,180.3z"/>
	<path class="st1" d="M59.5,217.6c-3.6,4.6-10.3,5.1-14.9,1.5c-4.6-3.6-5.1-10.3-1.5-14.9s10.3-5.1,14.9-1.5
		C62.4,206.3,63.1,212.9,59.5,217.6z"/>
</g>
</svg>
