<?xml version="1.0" encoding="utf-8"?>
<!-- Generator: Adobe Illustrator 28.0.0, SVG Export Plug-In . SVG Version: 6.00 Build 0)  -->
<svg version="1.1" id="Capa_1" xmlns="http://www.w3.org/2000/svg" xmlns:xlink="http://www.w3.org/1999/xlink" x="0px" y="0px"
	 viewBox="0 0 998 250" style="enable-background:new 0 0 998 250;" xml:space="preserve">
<style type="text/css">
	.st0{fill:#6CB33D;}
</style>
<g>
	<path class="st0" d="M275.3,101l-45.1-76.4c-4.1-6.9-9.8-12.6-16.5-16.5l-1.2-2H210c-6.3-3.1-13.4-4.7-20.6-4.7H97.5
		c-7.3,0-14.3,1.7-20.6,4.7h-3.2l-1.6,2.7c-6.2,3.9-11.5,9.3-15.4,15.9L11.6,101C7.4,108,5.2,115.8,5,123.7L4.3,125l0.7,1.3
		c0.2,7.9,2.4,15.7,6.6,22.7l45.1,76.4c3.9,6.6,9.2,11.9,15.4,15.9l1.5,2.6h3.1c6.4,3.1,13.4,4.8,20.7,4.8h91.9
		c7.3,0,14.3-1.7,20.7-4.8h2.3l1.1-1.9c6.8-4,12.5-9.6,16.6-16.6l45.1-76.4c4.4-7.4,6.6-15.7,6.6-24S279.7,108.4,275.3,101z
		 M112,161.9c19.4,17.5,49.4,15.9,66.8-3.5c17.5-19.4,15.9-49.4-3.5-66.8c-4.5-4.1-4.9-11-0.8-15.4c4-4.5,10.9-4.9,15.4-0.8
		c28.3,25.5,30.6,69.3,5.1,97.6c-13.6,15.1-32.5,22.9-51.4,22.9c-16.5,0-33.1-5.9-46.2-17.8c-28.3-25.5-30.6-69.3-5.1-97.6
		c2-2.2,4.1-4.3,6.3-6.2c4.6-3.9,11.5-3.3,15.4,1.2c3.9,4.6,3.4,11.5-1.2,15.4c-1.5,1.3-3,2.7-4.4,4.2
		C91,114.5,92.6,144.5,112,161.9z M132.6,114.1v-51c0-6,5-10.9,10.9-10.9c6,0,10.9,4.9,10.9,10.9v51c0,6-4.9,10.9-10.9,10.9
		C137.6,125,132.6,120.1,132.6,114.1z"/>
	<g>
		<path class="st0" d="M312.6,143.3c7.5,2.8,14.5,5.1,21.5,5.1c6.9,0,10.9-2.6,10.9-6.6c0-4.3-3.9-5.5-10.3-7.4
			c-21.9-5.4-25.6-13-25.6-22.5c0-9.9,7.1-22.1,27.3-20.4c17.9,1.5,16,2.8,27.6,5v14.3c-6.1-1.8-13.9-4.3-22.7-4.3
			c-6.2,0-9.6,2.2-9.6,5.3c0,3.3,3.5,4.7,10.2,6.5c22.4,5.2,24.1,12.5,24.1,22.4c0,11.1-8.5,23-29,21.3c-14.7-1.2-18.3-1.7-24.6-3.5
			L312.6,143.3z"/>
		<path class="st0" d="M396.7,154.4v31.7h-18.5v-76.8c0-5.4,0-10.8-0.1-16.2h18c0.3,1.8,0.6,5.9,0.6,8.4c2.9-4.9,8.9-9.9,19.6-9.9
			c15.1,0,26.8,12.6,26.8,33.5c0,23.7-13,36.9-29.3,36.9C404.2,162,399.3,158.4,396.7,154.4z M424.2,125.8c0-12.3-5-19.3-13.8-19.3
			c-10.6,0-14.3,6.8-14.3,20.3c0,12.8,3.5,20.3,13.5,20.3C419.4,147.2,424.2,139.5,424.2,125.8z"/>
		<path class="st0" d="M455.9,111.4c0-6.7,0-12.6-0.1-18.2h18.3c0.2,1.5,0.5,8.2,0.5,11.8c3-7.7,10.1-13.3,21.6-13.4v17.8
			c-13.5-0.3-21.6,3.3-21.6,21.7v29.3h-18.6V111.4z"/>
		<path class="st0" d="M506.6,65.5h18.6v16.6h-18.6V65.5z M506.6,93.1h18.6v67.3h-18.6V93.1z"/>
		<path class="st0" d="M542,110.1c0-5.7,0-12-0.1-16.9h18c0.4,1.7,0.6,6.4,0.7,8.6c2.3-4.2,7.7-10.1,19.5-10.1
			c13.5,0,22.3,9.1,22.3,26v42.8h-18.6v-40.7c0-7.6-2.5-13-10.7-13c-7.9,0-12.4,4.4-12.4,16.3v37.5H542V110.1z"/>
		<path class="st0" d="M680.2,152.2c0,21.6-8,35.3-33.4,35.3c-24.6,0-29.4-13.7-30-21.3h19c1.3,4.6,4.7,7.8,11.9,7.8
			c12.1,0,14.4-7.4,14.4-20.6v-3.2c-3.5,5.8-9.1,9.4-19,9.4c-17.7,0-27.8-14.5-27.8-32.6c0-21,12.6-35.4,29.4-35.4
			c11.5,0,16.3,5.4,17.4,8.6c0.1-1.8,0.6-5.9,0.7-7h17.7c-0.1,6-0.1,12.8-0.1,19.3V152.2z M634.3,126.2c0,11.6,5.8,18.4,14,18.4
			c11.2,0,14.2-7.7,14.2-19c0-11.3-2-19.1-13.8-19.1C640.6,106.5,634.3,112.7,634.3,126.2z"/>
		<path class="st0" d="M728.1,65.5h18.6v34.7c2.8-4.3,8.3-8.7,19.2-8.7c18.3,0,27.4,15.1,27.4,34c0,19.3-9.9,36.4-29.2,36.4
			c-10,0-14.4-3-17.7-7.9c0,2.2-0.4,4.7-0.7,6.4H728c0.1-7.3,0.1-14.7,0.1-22V65.5z M774.5,125.9c0-11.2-4.2-19.4-14.2-19.4
			c-10.6,0-14.4,6.9-14.4,20.6c0,11.3,3.4,20,14.2,20C769.6,147.2,774.5,138.6,774.5,125.9z"/>
		<path class="st0" d="M869.6,126.6c0,20.3-12.2,35.3-33.5,35.3c-20.9,0-33-14.9-33-35c0-20.8,12.6-35.4,33.9-35.4
			C856.8,91.6,869.6,105.6,869.6,126.6z M821.9,126.8c0,12.9,5.6,20.6,14.5,20.6c9.1,0,14.2-7.7,14.2-20.5
			c0-14.1-5.2-20.7-14.4-20.7C827.6,106.2,821.9,112.5,821.9,126.8z"/>
		<path class="st0" d="M945.7,126.6c0,20.3-12.2,35.3-33.5,35.3c-20.9,0-33-14.9-33-35c0-20.8,12.6-35.4,33.9-35.4
			C932.9,91.6,945.7,105.6,945.7,126.6z M898.1,126.8c0,12.9,5.6,20.6,14.5,20.6c9.1,0,14.2-7.7,14.2-20.5
			c0-14.1-5.2-20.7-14.4-20.7C903.7,106.2,898.1,112.5,898.1,126.8z"/>
		<path class="st0" d="M951.5,93.1h10.4V74.9h18.6v18.2h13.2v14h-13.2v33.2c0,5.1,1.6,7.1,7.1,7.1c1,0,2.8,0,4.2-0.2V160
			c-3.7,1.3-8.8,1.3-12.5,1.3c-13.1,0-17.5-7-17.5-18.8v-35.4h-10.4V93.1z"/>
	</g>
</g>
</svg>
