<?xml version="1.0" encoding="utf-8"?>
<!-- Generator: Adobe Illustrator 27.1.0, SVG Export Plug-In . SVG Version: 6.00 Build 0)  -->
<svg version="1.1" id="Capa_1" xmlns="http://www.w3.org/2000/svg" xmlns:xlink="http://www.w3.org/1999/xlink" x="0px" y="0px"
	 viewBox="0 0 9809.7 2333" style="enable-background:new 0 0 9809.7 2333;" xml:space="preserve">
<style type="text/css">
	.st0{fill:#96C03A;}
	.st1{fill:#404040;}
</style>
<g>
	<g>
		<path class="st0" d="M8079.1,1445.8c0,78.7-63.8,142.4-142.4,142.4c-78.7,0-142.4-63.8-142.4-142.4V876.2
			c1-78.7,65.5-141.6,144.1-140.7c77.3,0.9,139.8,63.4,140.7,140.7V1445.8z M8683.5,2188.3c0,78.7-63.8,142.4-142.4,142.4
			c-78.7,0-142.4-63.8-142.4-142.4l0,0v-569.7c1-78.7,65.5-141.6,144.1-140.7c77.3,0.9,139.8,63.4,140.7,140.7V2188.3z
			 M9186.3,2188.3c0,78.7-63.8,142.4-142.4,142.4c-78.7,0-142.4-63.8-142.4-142.4l0,0v-569.7c1-78.7,65.5-141.6,144.1-140.7
			c77.3,0.9,139.8,63.4,140.7,140.7V2188.3z M9793.3,1445.8c0,78.7-63.8,142.4-142.4,142.4s-142.4-63.8-142.4-142.4V876.2
			c1-78.7,65.5-141.6,144.1-140.7c77.3,0.9,139.8,63.4,140.7,140.7V1445.8z"/>
		<path class="st0" d="M9423.3,732.1v1024c0,65.6-53.2,118.8-118.8,118.8H8284.7c-65.6,0-118.8-53.2-118.8-118.8c0,0,0,0,0,0v-1024
			H9423.3z M8794.7,141.5c-341.5,0-619.1,227.5-627.4,510.6h1254.8C9413.7,369,9136.1,141.5,8794.7,141.5L8794.7,141.5z
			 M8524.5,471.3c-38.9,0-70.4-31.5-70.4-70.4c0.9-38.9,33.2-69.7,72.1-68.7c37.6,0.9,67.8,31.1,68.7,68.7
			C8594.9,439.7,8563.4,471.2,8524.5,471.3L8524.5,471.3z M9065.1,471.3c-38.9,0-70.4-31.5-70.4-70.4s31.5-70.4,70.4-70.4
			c38.9,0,70.4,31.5,70.4,70.4S9104,471.3,9065.1,471.3z"/>
		<path class="st0" d="M8560.8,235.7c5.4,8.9,2.5,20.6-6.4,26c-8.4,5.1-19.3,2.9-25.1-5.1l-149.1-225c-5.8-8.7-3.4-20.5,5.3-26.2
			c8.7-5.8,20.5-3.4,26.2,5.3l0,0L8560.8,235.7z M9028.3,235.7c-5.8,8.7-3.4,20.4,5.3,26.2c8.7,5.8,20.4,3.4,26.2-5.3l0,0l149.1-225
			c5.8-8.7,3.4-20.5-5.3-26.2s-20.5-3.4-26.2,5.3L9028.3,235.7z"/>
	</g>
	<path class="st1" d="M838.9,1641V893.2H482.4c-148.2,0.3-270.4,122.5-270.4,276c0,153.4,122.2,275.6,270.4,275.9h193.5v195.5H482.4
		c-258.5-0.3-465.4-212.2-466-471.5c0.6-259.4,207.5-471.2,466-471.5h552.1V1641h0.1L838.9,1641L838.9,1641z M1980.7,1641.8v-505.3
		c-0.3-141-118.2-258.7-267.9-258.8c-149.8,0.1-267.6,117.8-267.9,258.8v505.3h0.1h-193.1v-505.3c0.3-251.5,208.2-451.3,460.9-451.9
		c252.7,0.6,460.6,200.3,460.9,451.9l0.1,505.3H1980.7z M2397.3,1444.8h411.8c144.4-0.2,265.1-121.2,265.2-275.4
		c-0.2-154.3-120.8-275.2-265.2-275.5h-411.8V695.7h411.8c258.1,0.4,463,214.1,463.5,473.7c-0.5,259.5-205.4,473.2-463.5,473.6
		l-411.8,0.1L2397.3,1444.8z M2397.3,893.9v0.1V893.9z M6072.6,1444.8h411.7c144.5-0.3,265.1-121.2,265.4-275.5
		c-0.2-154.2-120.9-275.2-265.4-275.4h-411.7V695.7h411.7c258.2,0.3,463,214.1,463.5,473.6c-0.6,259.5-205.4,473.2-463.5,473.6
		l-411.7,0.1V1444.8z M4478.7,1168.6c0.1-265.1,215.2-479.8,480.5-479.8c265.2,0,480.3,214.6,480.4,479.8
		c-0.1,265.1-215.2,479.8-480.4,479.8C4693.9,1648.4,4478.8,1433.7,4478.7,1168.6z M4675.7,1168.6
		c0.4,156.3,127.3,282.8,283.6,282.9c156.3,0,283.1-126.6,283.5-282.9C5240,1012,5110.9,887.3,4954.3,890
		C4801.5,892.6,4678.3,1015.8,4675.7,1168.6L4675.7,1168.6z M5642,695.8h198.3v946.9H5642V695.8z M4154.6,1313.7
		c101.5-59.3,163.9-167.9,164-285.5c-0.1-182.8-148.3-331.1-331.1-331.1h-483.9v198.1h483.9c73.4,0.2,132.8,59.6,132.9,133
		c-0.1,73.4-59.6,132.8-132.9,132.9h-482.8v198.3l398.2-0.1c87.7,52.6,130.7,113,155.1,167c16.6,36.7,26.1,76.2,28,116.4h198.1
		c-0.7-38.6-7.3-112-45.2-197.2C4217.5,1397.7,4189.1,1353.3,4154.6,1313.7L4154.6,1313.7z"/>
</g>
</svg>
