<?xml version="1.0" encoding="utf-8"?>
<!-- Generator: Adobe Illustrator 27.1.0, SVG Export Plug-In . SVG Version: 6.00 Build 0)  -->
<svg version="1.1" xmlns="http://www.w3.org/2000/svg" xmlns:xlink="http://www.w3.org/1999/xlink" x="0px" y="0px"
	 viewBox="0 0 1099.7 175" style="enable-background:new 0 0 1099.7 175;" xml:space="preserve">
<style type="text/css">
	.st0{fill:#7AB852;}
</style>
<g id="Capa_1">
</g>
<g id="Capa_2">
	<g>
		<g>
			<path class="st0" d="M138.1,174c6-0.9,12.9-2.6,16.4-4.3c3.4-1.7,6-4.3,6-6c0,0-0.9-1.7-1.7-3.4c-1.7-2.6-3.4-6-7.7-15.5
				c-1.7-4.3-5.6-15.6-6.9-20.7c-1.3-7.6-1.4-15.7,0-23.2c1.2-4.4,3-8.7,6-12.1c3.4-4.5,7.5-9,12.9-11.2c17-6.8,37-21.5,47.4-37.9
				c3.4-6,5.1-8.6,6.3-12.1c3.1-8.5,5.8-17.6,5.7-26.7V0.1h-94.7H32.2v1.7c-0.1,22.6,13.2,42.9,29.3,57.7c8.6,7.7,18.9,13.8,31,18.1
				c4.3,1.7,6,2.6,9.5,6c4.3,5.2,7.7,11.2,9.5,18.1c1,10,0.3,20.5-2.6,30.1l-1.7,5.2c-0.9,3.4-3.4,8.6-7.7,17.2
				c-4.3,8.6-4.3,9.5-4.3,10.3c1.7,5.2,12.1,8.6,27.5,10.3C126.1,174.9,131.2,174.9,138.1,174L138.1,174z M65.8,144.8
				c6-0.9,11.2-2.6,12.9-5.2v-0.9l-0.9-2.6c-6-11.2-9.5-20.7-9.5-30.1c0-5.2,0.9-7.7,2.6-12.1c2.6-4.3,3.4-5.7,7.7-7.4
				c1.7-0.9,3.8-1.2,4.6-1.7c2.3-0.7,4.8-2,4.8-2s-1.5-0.3-3.3-1.2c-5.2-1.7-7-3.1-11.3-5.7c-13.8-7.7-22.4-15.5-31-26.7
				c-2.6-4.3-3.9-6.2-5.2-7.9l-0.9-1.5c-0.9-0.9-35.3-0.9-36.2,0c-0.6,12.1,5.2,22.7,12.9,31.9c9,10.7,16.4,13.8,23.2,15.5
				c6,1.7,6.9,2.6,9.5,6c1.7,4.3,2.6,6.9,2.6,12.1c0.9,7.7-1.7,15.5-6.9,26.7c-1.7,3.4-3.4,6.9-3.4,6.9c0,0.9,1.7,2.6,3.4,3.4
				C46,144.8,58.1,146.5,65.8,144.8L65.8,144.8z M206.1,144.8c6.9-0.9,11.2-2.6,12.1-5.2c0-0.9,0-1.7-2.6-6.9
				c-5.4-10.7-9.2-23.4-6-35.3c1.8-4.8,4.1-9.8,9.5-10.7c8.6-2.6,15.5-6.5,24.1-15.2c5.2-5.2,10-13.9,11.3-18.9
				c1.1-4.1,2.4-8.9,1.6-12.9c-0.9-0.9-36.2-0.9-37,0c0,0-0.9,0.9-1.7,1.7c-0.9,2.6-4.3,7.7-6.9,10.3c-3.4,4.3-13.8,14.6-17.2,17.2
				c-6.3,6.5-18.5,10.9-25,13.8c0.9,0.9,5.2,3.4,8.6,4.3c6.9,2.6,6.9,2.6,9.5,6.9c1.7,4.3,2.6,6.9,2.6,12.1
				c0.5,11.9-5.6,23-10.3,32.7C184.7,145.6,197.6,145.4,206.1,144.8L206.1,144.8z"/>
		</g>
		<g>
			<path class="st0" d="M293.2,88.6c0-54.1,35.9-85.4,79.4-85.4c23.6,0,40.4,10.1,51.4,21.1l-19.4,23.6c-8.1-7.4-16.8-13-30.8-13
				C348.8,35,331,54.7,331,87.3c0,33.5,15.2,53,45.8,53c6.5,0,13.3-1.7,17.3-4.8v-28.1h-27V77.2h59.7v75.1
				c-11.2,11-31,19.7-53.8,19.7C328.1,172.1,293.2,143.4,293.2,88.6z"/>
			<path class="st0" d="M460.4,6.2h58.7c34.6,0,62.9,12,62.9,50.7c0,37.4-28.3,53.6-62.9,53.6h-21.8v58.6h-36.8V6.2z M516.1,81.2
				c19.4,0,29.8-8.3,29.8-24.3c0-16.1-10.4-21.5-29.8-21.5h-18.8v45.8H516.1z M512.4,100.7l25.5-23.6l52,91.9h-41.2L512.4,100.7z"/>
			<path class="st0" d="M660.7,6.2h44.1L756,169.1h-39l-21.3-82.5c-4.5-16.3-8.9-35.6-13.2-52.6h-1c-3.9,17.2-8.3,36.3-12.8,52.6
				l-21.4,82.5h-37.7L660.7,6.2z M643.3,101.6h78.4v28.6h-78.4V101.6z"/>
			<path class="st0" d="M790.4,6.2h36.8v162.9h-36.8V6.2z"/>
			<path class="st0" d="M865.7,6.2h36.8v132h64.3v30.9H865.7V6.2z"/>
			<path class="st0" d="M977.6,148.5l21.2-25.3c11.6,10.1,26.6,17,40,17c15.4,0,22.9-6.1,22.9-15.7c0-10.3-9.3-13.6-23.5-19.4
				l-21.2-9c-16.9-6.9-32.9-20.7-32.9-44.4c0-27,24.1-48.6,58-48.6c18.8,0,38.4,7.4,52.4,21.4L1076,47.7
				c-10.7-8.2-20.9-12.8-33.8-12.8c-12.7,0-20.8,5.3-20.8,14.6c0,10,10.7,13.6,24.9,19.3l20.8,8.4c19.9,8,32.3,21.3,32.3,44.3
				c0,27.1-22.6,50.5-61.4,50.5C1016.8,172.1,994.3,164.1,977.6,148.5z"/>
		</g>
	</g>
</g>
</svg>
