<?xml version="1.0" encoding="utf-8"?>
<!-- Generator: Adobe Illustrator 28.0.0, SVG Export Plug-In . SVG Version: 6.00 Build 0)  -->
<svg version="1.1" id="Layer_1" xmlns="http://www.w3.org/2000/svg" xmlns:xlink="http://www.w3.org/1999/xlink" x="0px" y="0px"
	 viewBox="0 0 805.8 458" style="enable-background:new 0 0 805.8 458;" xml:space="preserve">
<style type="text/css">
	.st0{fill:#E22022;stroke:#E22022;stroke-width:9.375000e-02;stroke-miterlimit:10;}
	.st1{fill:#0B6FB7;stroke:#0B6FB7;stroke-width:9.375000e-02;stroke-miterlimit:10;}
</style>
<g>
	<path class="st0" d="M217.2,0c10.5,11.9,13.9,29,10.9,44.4C224.9,61.7,215.3,77,204,90.1c-9,10.6-19.4,20-30.2,28.7
		c-12.6,10.2-25,21.1-32.9,35.4c-6.7,11.6-8.3,25.9-3.7,38.5c7.5,21.6,24.9,37.7,34.4,58.1c-10.5-9.3-20.7-18.9-30.3-29
		c-10-10.7-19.5-22.1-25.8-35.5c-4.2-9.4-6.1-20.3-2.9-30.2c3.2-10.2,10.5-18.3,17.7-25.9c20.2-20.2,45.1-35,64.8-55.6
		c10.9-11.3,20-24.8,23.1-40.3C220.8,23,219.6,11.3,217.2,0L217.2,0z"/>
	<path class="st0" d="M200.7,127.1c21.6-16,47-26.1,72.6-33.5c-20.3,12.9-41.5,24.8-59,41.4c-6.4,6.1-12.4,13.2-15.2,21.8
		c-2.1,6.4-1.2,13.4,1.3,19.4c4.7,10.7,12.6,19.4,18.6,29.2c5.1,8.4,6,19.1,2.1,28.1c-5.9,13.3-17.5,23-29.6,30.7
		c-1.6,0.9-2.9,2.6-4.8,2.8c8-7.3,14.3-17.5,14.1-28.6c-0.2-8.3-4.8-15.5-10.2-21.4c-11-13.2-20.3-29.9-18.4-47.6
		C174.3,151.6,187,137.3,200.7,127.1L200.7,127.1z"/>
	<path class="st1" d="M277.5,256c4.7-5.7,12.2-7.1,19-8c11.8-1.6,24.4,1.5,33.4,9.6c7.4,6.6,11.5,16.8,9.9,26.8
		c-1.7,11.5-9.4,21.1-18.1,28.3c-15.7,12.6-35.1,20-54.6,24.9c1.1-1.2,2.3-2.3,3.8-3.2c14.7-7.9,29.3-17.2,40.2-30.1
		c6.6-8,11.7-18.5,9.6-29.1c-2.2-12.3-14.2-21.2-26.3-21.9C288.5,252.7,283,254.9,277.5,256L277.5,256z"/>
	<path class="st1" d="M53.2,266.2c20.5-8.8,42.8-14.5,65.3-14.2c-13.1,3.8-26.4,7-38.7,12.8c-2.9,1.6-6.2,3-7.9,6
		c-0.9,2.3,1.6,3.9,3.3,4.7c7.6,3.1,16,3.6,24.1,4.4c28.6,1.9,57.2,0.8,85.7-1c28.1-1.8,56-5.6,83.8-10c-6.1,2.9-12.4,5.8-18.1,9.5
		c-2.9,2-6.5,2.6-9.7,3.3c-34.1,7.6-69.2,9.9-104,10.5c-13.5,0.1-26.9-0.1-40.3-1c-14.9-1-30-2.1-44.6-6c-4.2-1.2-8.7-2.6-12-5.6
		c-1.7-1.3-1.7-4-0.2-5.6C43.5,270.2,48.6,268.4,53.2,266.2L53.2,266.2z"/>
	<path class="st1" d="M79.5,313.8c5.8-4.6,12.7-7.1,19.6-9.6c-2.2,2.7-5.4,5.2-5.6,8.9c-0.1,2.3,1.8,4.1,3.7,5.2
		c3.7,1.9,7.8,2.6,11.9,3.1c21.4,2.2,43.1,3.5,64.7,2c19.7-1,39.4-4.2,58.9-7.7c5.4,5,11.7,8.5,18.4,11.5
		c-23.5,6.9-47.7,10.9-72.1,12.8c-23,1.6-46.3,1.5-69.2-2.2c-9-1.7-18.3-3.6-26.6-7.8c-3.3-1.8-7.1-4.1-8.1-8
		C74.6,318.7,77.1,315.7,79.5,313.8L79.5,313.8z"/>
	<path class="st1" d="M92.5,362.4c5.1-4.1,11.5-6.2,17.7-8c-2,1.9-5.6,4.2-4,7.5c3,3.9,8.6,4.4,13.1,5.4c18.9,2.3,37.9,3.9,56.8,2.5
		c14.3-0.9,28.3-3.5,42.3-5.9c8,4.7,16.4,8.7,25,12.3c-13.2,5.9-27.3,9.7-41.5,12.4c-23.9,4.2-48.5,4.8-72.5,1
		c-10.6-1.9-21.4-4.4-31-9.6c-3.7-2.1-7.6-4.6-9.1-8.7C87.9,367.9,89.9,364.5,92.5,362.4L92.5,362.4z"/>
	<path class="st1" d="M30.6,394c10.3-3.5,20.9-6.2,31.7-6.6c4.4-0.1,8.8,0.1,12.6,2.3c-12.9,0.8-25.9,4-37.5,9.9
		c-2.6,1.5-5.5,3.1-6.5,6.1c0,3.5,3.9,4.6,6.5,5.7c16.2,6,33.5,7.9,50.4,9.7c50.5,4.2,101.4,3.1,151.9-1.5
		c19.1-2.1,38.3-4.2,56.8-9.5c5.9-2,12.6-4,16.5-9.3c2.3-3.1,0.8-7-1.6-9.7c3.8,2.1,9.1,4.8,8.4,9.9c-1.5,5.4-6.9,8.1-11.4,10.7
		c-14.3,7.3-30,10.9-45.6,14.2c-45.4,8.9-91.9,10.9-138.1,9.6c-34.8-1.2-69.6-4.6-104-10.5c-6.1-1.5-13.1-2.7-17.5-7.5
		c-2.9-3.3-0.3-8,2.5-10.5C12.7,400.8,21.8,397.3,30.6,394L30.6,394z"/>
	<path class="st1" d="M308.6,432.2c11.3-3.9,23.3-8,31.7-17c-1.4,9.7-9.8,16.4-18.1,20.7c-15.8,8.3-33.6,12-51.2,15.2
		c-37.3,5.9-75.1,7.4-112.9,6.7c-25.8-0.8-51.8-1.8-77.1-7.1c-6-1.7-12.5-2.8-17.7-6.4c22.5,3.8,45.4,5.4,68.3,6.2
		c37.6,1.1,75.3-0.3,112.7-5C265.8,442.5,287.6,438.9,308.6,432.2L308.6,432.2z"/>
	<path class="st0" d="M411.3,309.9c0.1-45.3-0.1-90.5,0.1-136c9.4,0.3,18.8,0,28.2,0.3c-0.1,50.7,0,101.4-0.1,152.2
		c-0.3,14.2-0.6,29.1-7.5,41.8c-7.6,13.5-21.1,23.1-35.5,28.6c-4.6-5-8.7-10.2-13.3-15.2l0,0c11.6-6.8,23.2-16.4,25.9-30.4
		C411.8,337.7,411,323.7,411.3,309.9L411.3,309.9z"/>
	<path class="st0" d="M465.7,228.5c18.6-8,39.3-12.1,59.6-9.9c10.5,1.2,21.4,5.1,28.2,13.5c5.7,7.2,7.7,16.4,7.6,25.4
		c0,30.9,0,61.7,0,92.6c-6.9,0-13.8,0-20.8,0c-0.7-4.6-1.4-9.2-1.9-13.9c-7.9,6.2-16.3,12.1-26.1,14.6c-11.2,2.9-23.5,2.6-34.4-1.7
		c-8.4-3.5-15-11-17.4-19.9c-3.5-12.8-1.7-27.9,7.5-38.2c8.1-9.5,20.4-14.2,32.6-16.4c11.2-2.2,22.6-2.2,34.1-2.2
		c-0.3-8.7,1.4-18.2-3.6-25.9c-4-5.9-11.3-8.3-18.1-8.7c-14.8-1.2-29.4,2.5-43.3,7.3C468.2,239.5,466.9,234,465.7,228.5
		 M499.9,292.5c-6.1,1.9-11.7,6.3-13.4,12.7c-1.9,7-1.4,15.3,3.2,21.3c4.4,5.8,12.4,7.2,19.3,6.3c9.7-1.1,18.1-6.6,25.5-12.6
		c0-10.4-0.1-20.6,0-30.9C523,289.4,511.1,288.7,499.9,292.5L499.9,292.5z"/>
	<path class="st0" d="M708.3,228.5c18.8-8,39.5-12.3,59.9-9.9c10.2,1.2,20.7,5,27.5,13c6.4,7.6,8.3,17.7,8.1,27.3
		c-0.1,30.5,0.1,60.9-0.3,91.4c-6.9-0.3-13.8,0.1-20.7-0.3c-0.7-4.7-1.2-9.2-2.1-13.8c-9.7,8.3-21.3,15-34.4,16.1
		c-12,1.1-25.5-0.4-34.9-9c-9.8-9.1-11.5-23.9-9-36.4c2.3-11.6,11-21.1,21.5-26.2c16.4-8,35.2-8.4,53.1-8.3c-0.3-8.4,1.2-17.4-3-25
		c-3.3-6.1-10.4-8.8-17-9.5c-15.3-1.7-30.6,2.2-45,7.2C710.9,239.5,709.6,234,708.3,228.5 M742.1,292.7c-5.8,1.9-11.2,6.3-13,12.4
		c-1.9,7-1.4,15.3,3,21.4c4.6,5.9,12.7,7.2,19.7,6.3c9.5-1.4,18.2-6.6,25.4-13c-0.3-10.1-0.1-20.3-0.1-30.5
		C765.5,289.4,753.4,288.7,742.1,292.7L742.1,292.7z"/>
	<path class="st0" d="M576.8,220.2c9.7,0,19.3,0,29,0c5.7,18.2,11.2,36.3,16.8,54.5c3.3,11.2,7.5,22.2,9.8,33.7
		c1.2,5.1,2.3,10.4,3.9,15.3c11.9-33.5,21-68.2,25.7-103.5c9.4,0,18.8,0,28.2,0c-8.1,44.7-21,88.7-40.3,129.9c-11,0-22.1,0-33.1,0
		C603.4,306.8,590,263.6,576.8,220.2L576.8,220.2z"/>
</g>
</svg>
