<?xml version="1.0" encoding="utf-8"?>
<!-- Generator: Adobe Illustrator 28.0.0, SVG Export Plug-In . SVG Version: 6.00 Build 0)  -->
<svg version="1.1" id="Capa_1" xmlns="http://www.w3.org/2000/svg" xmlns:xlink="http://www.w3.org/1999/xlink" x="0px" y="0px"
	 viewBox="0 0 217.4 60" style="enable-background:new 0 0 217.4 60;" xml:space="preserve">
<style type="text/css">
	.st0{fill:#326CE5;}
	.st1{fill:#FFFFFF;stroke:#FFFFFF;stroke-width:1.165838e-02;stroke-miterlimit:2.1595;}
</style>
<g transform="matrix(.215948 0 0 .215948 2.339411 32.398966)">
	<path class="st0" d="M133-149.8c-2.6,0.2-5.1,0.8-7.4,2l-99.5,47.5c-5.2,2.5-9,7.2-10.3,12.8L-8.5,19c-1.2,5-0.2,10.2,2.6,14.5
		c0.3,0.5,0.7,1,1.1,1.5L64,120.6c3.6,4.5,9.1,7,14.8,7h110.3c5.8,0,11.2-2.6,14.9-7.1L272.8,35c3.6-4.5,5-10.4,3.7-16L251.9-87.7
		c-1.3-5.6-5.1-10.3-10.3-12.8l-99.4-47.4C139.3-149.3,136.2-149.9,133-149.8z"/>
	<path class="st1" d="M134-113.5c-3.4,0.2-6,3.2-5.9,6.6v1.7c0.2,1.9,0.4,3.8,0.8,5.7c0.5,3.6,0.7,7.2,0.6,10.8
		c-0.3,1.2-1,2.3-2,3.1l-0.1,2.5c-3.6,0.3-7.2,0.9-10.8,1.7C101.7-78,88.2-70.3,77.7-59.2l-2.1-1.5c-1.2,0.3-2.4,0.2-3.5-0.4
		c-2.9-2.1-5.6-4.6-8-7.2c-1.2-1.5-2.5-2.8-3.9-4.2l-1.3-1.1c-1.2-0.9-2.6-1.5-4.1-1.6c-1.8-0.1-3.6,0.7-4.7,2.1
		c-2,2.8-1.4,6.8,1.5,8.8l1.2,1c1.6,1.1,3.2,2,4.9,2.9c3.2,1.8,6.2,3.8,8.9,6.2c0.7,1,1.1,2.2,1.2,3.4l2,1.7
		c-10.7,15.8-15,34.9-12.3,53.7L55,5.3c-0.7,1-1.5,1.9-2.6,2.6c-3.4,0.9-7,1.5-10.6,1.7c-1.9,0-3.8,0.2-5.7,0.4l-1.6,0.4h-0.2
		c-3.3,0.4-5.6,3.4-5.1,6.7c0.2,1.3,0.8,2.5,1.7,3.4c1.6,1.6,4,2.2,6.1,1.5h0.1l1.6-0.2c1.8-0.5,3.6-1.2,5.3-2
		c3.4-1.3,6.8-2.4,10.4-3c1.2,0.1,2.4,0.5,3.4,1.2l2.6-0.4c5.8,18,18,33.3,34.3,42.9l-1.1,2.3c0.5,1,0.7,2.2,0.5,3.4
		c-1.5,3.4-3.3,6.7-5.4,9.8c-1.2,1.5-2.2,3.1-3.2,4.8l-0.8,1.6c-1.7,2.8-0.7,6.5,2.1,8.2c1.1,0.6,2.4,0.9,3.7,0.8
		c2.2-0.2,4.2-1.7,4.9-3.9l0.7-1.5c0.7-1.8,1.3-3.6,1.7-5.5c1.6-3.9,2.4-8.1,4.6-10.7c0.7-0.7,1.6-1.1,2.6-1.2l1.4-2.4
		c17.7,6.8,37.2,6.8,54.9,0.1l1.2,2.3c1.2,0.2,2.3,0.8,3,1.8c1.7,3.2,3,6.5,4.1,10c0.5,1.9,1.1,3.7,1.7,5.5l0.7,1.5
		c1.1,3.1,4.6,4.7,7.7,3.5c1.2-0.4,2.2-1.3,2.9-2.3c1.2-1.9,1.3-4.3,0.1-6.3l-0.8-1.6c-1-1.6-2-3.2-3.2-4.7c-2.1-3-3.8-6.1-5.3-9.4
		c-0.3-1.2-0.1-2.5,0.6-3.6c-0.4-0.8-0.7-1.6-1-2.4c16.3-9.7,28.4-25,34.2-43.1l2.5,0.4c0.9-0.8,2.1-1.3,3.3-1.2
		c3.6,0.7,7,1.7,10.4,3c1.7,0.8,3.5,1.5,5.3,2.1c0.4,0.1,1.1,0.2,1.6,0.3h0.1c3.1,1,6.5-0.7,7.5-3.8c0.4-1.2,0.4-2.6,0-3.8
		c-0.7-2.1-2.6-3.7-4.9-4l-1.8-0.4c-1.9-0.3-3.8-0.4-5.7-0.4c-3.6-0.2-7.2-0.8-10.7-1.8c-1.1-0.6-2-1.5-2.6-2.6l-2.4-0.7
		c2.6-18.8-1.8-37.8-12.4-53.6l2.1-2c-0.1-1.2,0.3-2.4,1.1-3.4c2.7-2.4,5.7-4.4,8.9-6.2c1.7-0.9,3.3-1.8,4.9-2.9l1.3-1.1
		c2.8-1.7,3.7-5.4,1.9-8.2c-0.7-1.2-1.8-2-3.1-2.5c-2.2-0.8-4.6-0.2-6.2,1.4l-1.3,1.1c-1.4,1.3-2.7,2.7-3.9,4.2
		c-2.4,2.7-5,5.2-7.8,7.4c-1.1,0.5-2.4,0.6-3.6,0.4l-2.3,1.6c-13.1-13.7-30.6-22.2-49.5-23.9c0-0.8-0.1-2.2-0.1-2.7
		c-1-0.7-1.7-1.8-2-3c-0.1-3.6,0.1-7.2,0.7-10.8c0.4-1.9,0.7-3.8,0.8-5.7v-1.7C140.1-110.3,137.5-113.2,134-113.5L134-113.5z
		 M126.5-67.4l-1.8,31.2h-0.1c-0.1,2.9-2.6,5.1-5.5,5c-1,0-2-0.4-2.9-1L90.7-50.3c8.1-8,18.4-13.6,29.5-16.1
		C122.3-66.8,124.4-67.1,126.5-67.4L126.5-67.4z M141.4-67.4c13.4,1.7,26,7.7,35.6,17.2l-25.4,18c-2.3,1.8-5.6,1.4-7.4-0.8
		c-0.7-0.9-1.1-2-1.1-3.2L141.4-67.4z M81.4-38.5l23.4,20.9v0.1c2.2,1.9,2.4,5.2,0.5,7.4c-0.7,0.8-1.6,1.3-2.6,1.6v0.1l-30,8.6
		C71.2-13.3,74.2-26.9,81.4-38.5L81.4-38.5z M186.4-38.5c7.1,11.6,10.3,25.1,9,38.7l-30.1-8.7v-0.1c-2.8-0.8-4.4-3.7-3.7-6.4
		c0.3-1,0.8-1.9,1.6-2.6L186.4-38.5L186.4-38.5z M129.2-16h9.6l5.9,7.4l-2.1,9.3L134,4.8l-8.6-4.1l-2-9.3L129.2-16z M159.9,9.4
		c0.4,0,0.8,0,1.2,0l31,5.2c-4.6,12.9-13.3,23.9-24.8,31.2l-12-29c-1.1-2.7,0.1-5.8,2.8-6.9C158.6,9.7,159.2,9.5,159.9,9.4
		L159.9,9.4z M107.8,9.5c2.9,0,5.2,2.4,5.2,5.3c0,0.7-0.2,1.4-0.4,2V17l-11.9,28.7c-11.4-7.3-20-18.2-24.6-30.9l30.7-5.2
		C107.1,9.5,107.4,9.5,107.8,9.5L107.8,9.5z M133.8,22.1c2-0.1,3.8,1,4.8,2.8h0.1l15.1,27.3c-2,0.7-4,1.2-6,1.7
		c-11.1,2.5-22.8,1.9-33.6-1.7l15.1-27.3C130.2,23.2,131.9,22.2,133.8,22.1L133.8,22.1z"/>
	<path class="st0" d="M339.3-5.6l5.8-6.3c2-2.2,3.9-4.3,5.8-6.5l5.3-6.1c1.6-1.9,3.1-3.6,4.2-5h22.4c-4.5,5.1-8.8,10-13.1,14.7
		c-4.3,4.7-8.9,9.5-14,14.4c2.8,2.6,5.4,5.3,7.8,8.2c2.7,3.2,5.3,6.4,7.8,9.8c2.5,3.3,4.8,6.7,6.9,10.1s3.9,6.5,5.3,9.2h-21.7
		c-1.3-2.2-2.8-4.6-4.6-7.3c-1.8-2.7-3.6-5.3-5.5-7.8c-2-2.6-4-5.2-6.1-7.7c-1.9-2.2-4.1-4.3-6.4-6.2V37h-18.8v-95l18.8-3L339.3-5.6
		L339.3-5.6z M449.1,34.8c-4.1,1.1-8.2,2-12.4,2.6c-5.3,0.8-10.6,1.2-15.9,1.2c-4.8,0.1-9.6-0.6-14.1-2.3c-3.5-1.3-6.5-3.5-8.9-6.4
		c-2.3-2.9-3.9-6.2-4.7-9.8c-1-4.1-1.4-8.3-1.4-12.5v-37.1h18.8V5.3c0,6.1,0.8,10.5,2.4,13.1c1.6,2.7,4.6,4,9,4
		c1.3,0,2.7-0.1,4.3-0.2s2.9-0.3,4-0.4v-51.3H449v64.3H449.1z M528.7,3.8c0.1,4.9-0.7,9.8-2.3,14.4c-1.4,4.1-3.8,7.9-6.8,11
		c-3.1,3.1-6.8,5.5-10.9,7c-4.7,1.7-9.7,2.5-14.7,2.5c-2.3,0-4.7-0.1-7.1-0.3c-2.5-0.2-4.9-0.5-7.3-0.8s-4.7-0.7-6.9-1.2
		c-2.2-0.5-4.1-1-5.9-1.5V-58l18.8-3v33.2c2.1-0.9,4.3-1.6,6.6-2.1c2.4-0.5,4.9-0.8,7.3-0.8c4.3-0.1,8.6,0.8,12.5,2.5
		c3.6,1.6,6.7,4,9.1,7c2.6,3.2,4.4,7,5.6,10.9C528.1-5.8,528.8-1,528.7,3.8z M509.5,3.3c0-12.1-4.5-18.2-13.4-18.2
		c-1.9,0-3.9,0.3-5.8,0.8c-1.6,0.4-3.2,1.1-4.6,2V22c0.9,0.2,2.1,0.3,3.5,0.4s3,0.2,4.7,0.2c4.5,0.3,8.9-1.7,11.7-5.3
		C508.4,13.2,509.7,8.3,509.5,3.3L509.5,3.3z M540.1,4.3c-0.1-5.3,0.8-10.6,2.7-15.5c1.6-4.1,4-7.9,7.1-11.1
		c2.9-2.9,6.4-5.1,10.2-6.6s7.8-2.3,11.8-2.3c9.4,0,16.9,2.9,22.4,8.7s8.2,14.3,8.2,25.5c0,1.1,0,2.3-0.1,3.6s-0.2,2.5-0.3,3.5
		h-42.7c0.3,3.7,2.3,7.1,5.4,9.2c3.8,2.5,8.3,3.6,12.9,3.4c3.4,0,6.8-0.3,10.2-1c2.8-0.5,5.5-1.3,8.2-2.3l2.5,15.3
		c-1.3,0.6-2.7,1.1-4,1.5c-1.8,0.5-3.7,1-5.6,1.3c-2.1,0.4-4.3,0.7-6.6,1c-2.4,0.2-4.7,0.4-7.1,0.4c-5.3,0.1-10.6-0.8-15.6-2.7
		c-4.2-1.6-7.9-4.1-11-7.3c-2.9-3.1-5.1-6.9-6.4-10.9C540.7,13.6,540,9,540.1,4.3L540.1,4.3z M584.3-2.9c-0.1-1.6-0.4-3.2-0.8-4.7
		c-0.4-1.5-1.2-2.8-2.1-4c-1-1.2-2.3-2.2-3.7-2.9c-1.7-0.8-3.6-1.2-5.5-1.1c-1.9,0-3.7,0.3-5.4,1.1c-1.4,0.7-2.7,1.6-3.8,2.8
		c-1,1.2-1.8,2.6-2.3,4.1s-1,3.1-1.2,4.7H584.3L584.3-2.9z M657.1-12.8c-1.7-0.4-3.6-0.9-5.9-1.3c-2.4-0.5-4.9-0.7-7.3-0.7
		c-1.4,0-2.8,0.1-4.2,0.3c-1.3,0.1-2.5,0.4-3.7,0.7V37h-18.8v-62.9c3.9-1.3,7.9-2.4,11.9-3.3c5-1.1,10.2-1.6,15.4-1.6
		c1,0,2.2,0.1,3.7,0.2c1.4,0.1,2.9,0.3,4.3,0.5s2.9,0.5,4.3,0.8c1.3,0.2,2.5,0.6,3.7,1.1L657.1-12.8z M670.4-27.2
		c4.1-1.1,8.2-2,12.4-2.6c5.3-0.8,10.6-1.2,15.9-1.2c4.8-0.1,9.6,0.6,14.1,2.2c3.5,1.3,6.5,3.4,8.9,6.3c2.2,2.8,3.8,6.1,4.7,9.6
		c1,4.1,1.4,8.2,1.4,12.4v37.6H709V1.8c0-6.1-0.8-10.4-2.4-12.9c-1.6-2.5-4.6-3.8-9-3.8c-1.3,0-2.7,0.1-4.3,0.2
		c-1.6,0.1-2.9,0.3-4,0.4V37h-18.8L670.4-27.2L670.4-27.2z M741.7,4.3c-0.1-5.3,0.8-10.6,2.7-15.5c1.6-4.1,4-7.9,7.1-11.1
		c2.9-2.9,6.3-5.1,10.1-6.6s7.8-2.3,11.8-2.3c9.4,0,16.9,2.9,22.4,8.7S804-8.2,804,3c0,1.1,0,2.3-0.1,3.6s-0.2,2.5-0.3,3.5h-42.7
		c0.3,3.7,2.3,7.1,5.4,9.2c3.8,2.5,8.3,3.6,12.9,3.4c3.4,0,6.8-0.3,10.2-1c2.8-0.5,5.5-1.3,8.2-2.3l2.5,15.3c-1.3,0.6-2.7,1.1-4,1.5
		c-1.8,0.5-3.7,1-5.6,1.3c-2.1,0.4-4.3,0.7-6.6,1c-2.4,0.2-4.7,0.4-7.1,0.4c-5.3,0.1-10.6-0.8-15.6-2.7c-4.2-1.6-7.9-4.1-11-7.3
		c-2.9-3.1-5.1-6.9-6.4-11C742.3,13.6,741.6,9,741.7,4.3L741.7,4.3z M785.9-2.9c-0.1-1.6-0.4-3.2-0.8-4.7c-0.4-1.5-1.2-2.8-2.1-4
		c-1-1.2-2.3-2.2-3.7-2.9c-1.7-0.8-3.6-1.2-5.5-1.1c-1.9,0-3.7,0.3-5.4,1.1c-1.4,0.7-2.7,1.6-3.8,2.8c-1,1.2-1.8,2.6-2.3,4.1
		s-1,3.1-1.2,4.7H785.9L785.9-2.9z M818-46l18.8-3v19.5h22.6v15.6h-22.6V9.5c-0.2,3.3,0.6,6.6,2.1,9.5c1.4,2.3,4.2,3.5,8.4,3.5
		c2.1,0,4.2-0.2,6.3-0.6c2-0.3,4-0.9,5.9-1.6l2.7,14.7c-2.5,1-5,1.8-7.6,2.4c-3.4,0.7-6.8,1.1-10.2,1c-4.3,0.1-8.7-0.6-12.8-2.1
		c-3.2-1.2-5.9-3.2-8.1-5.9c-2.1-2.6-3.5-5.7-4.2-9c-0.8-3.8-1.2-7.8-1.2-11.7L818-46L818-46z M869.5,4.3
		c-0.1-5.3,0.8-10.6,2.7-15.5c1.6-4.1,4-7.9,7.1-11.1c2.9-2.9,6.4-5.1,10.2-6.6s7.8-2.3,11.8-2.3c9.4,0,16.9,2.9,22.4,8.7
		s8.2,14.2,8.2,25.4c0,1.1,0,2.3-0.1,3.6s-0.2,2.5-0.3,3.5h-42.7c0.3,3.7,2.3,7.1,5.5,9.2c3.8,2.5,8.3,3.6,12.9,3.4
		c3.4,0,6.8-0.3,10.2-1c2.8-0.5,5.5-1.3,8.2-2.3l2.5,15.3c-1.3,0.6-2.7,1.1-4,1.5c-1.8,0.5-3.7,1-5.6,1.3c-2.1,0.4-4.3,0.7-6.6,1
		c-2.4,0.2-4.7,0.4-7.1,0.4c-5.3,0.1-10.6-0.8-15.6-2.7c-4.2-1.6-7.9-4.1-11-7.3c-3-3.1-5.2-6.9-6.5-10.9
		C870.2,13.6,869.5,9,869.5,4.3L869.5,4.3z M913.8-2.9c-0.1-1.6-0.4-3.2-0.8-4.7c-0.4-1.5-1.2-2.8-2.1-4c-1-1.2-2.3-2.2-3.7-2.9
		c-1.7-0.8-3.6-1.2-5.5-1.1c-1.9,0-3.7,0.3-5.4,1.1c-1.5,0.7-2.8,1.6-3.9,2.8c-1,1.2-1.8,2.6-2.3,4.1s-1,3.1-1.2,4.7H913.8z
		 M965.6,23.5c2.5,0.2,5-0.2,7.3-1c1.5-0.7,2.3-2.3,2.1-3.9c-0.2-1.7-1.2-3.2-2.8-3.9c-2.7-1.5-5.5-2.9-8.5-3.9
		c-2.7-1-5.4-2.1-8-3.4c-2.3-1.1-4.3-2.5-6.1-4.2c-1.7-1.7-3-3.7-3.9-5.9c-1-2.6-1.5-5.4-1.4-8.2c-0.2-5.8,2.4-11.3,6.9-14.8
		c4.6-3.6,11-5.5,19.1-5.5c3.9,0,7.8,0.3,11.7,1.1c3,0.5,6,1.3,8.9,2.3l-3.3,14.7c-2.3-0.8-4.7-1.4-7.1-2c-2.8-0.6-5.8-0.9-8.7-0.9
		c-5.9,0-8.9,1.6-8.9,4.9c0,0.7,0.1,1.3,0.4,2c0.3,0.7,0.9,1.3,1.5,1.7c1,0.7,2,1.3,3.1,1.8c1.3,0.7,3,1.4,5,2.1
		c3.5,1.3,6.9,2.8,10.2,4.5c2.4,1.2,4.5,2.9,6.4,4.8c1.5,1.6,2.6,3.6,3.3,5.7c0.7,2.4,1,4.8,1,7.3c0.3,5.9-2.5,11.6-7.4,14.9
		c-4.9,3.4-11.9,5-20.9,5.1c-5,0.1-9.9-0.4-14.7-1.5c-2.8-0.6-5.5-1.5-8.2-2.5l3.2-15.3c3.2,1.3,6.5,2.3,9.9,3
		C958.9,23.2,962.3,23.5,965.6,23.5z"/>
</g>
</svg>
