<?xml version="1.0" encoding="utf-8"?>
<!-- Generator: Adobe Illustrator 28.0.0, SVG Export Plug-In . SVG Version: 6.00 Build 0)  -->
<svg version="1.1" id="Capa_1" xmlns="http://www.w3.org/2000/svg" xmlns:xlink="http://www.w3.org/1999/xlink" x="0px" y="0px"
	 viewBox="0 0 1925 250" style="enable-background:new 0 0 1925 250;" xml:space="preserve">
<style type="text/css">
	
		.st0{clip-path:url(#SVGID_00000132795184154651310580000006478628050306472841_);fill-rule:evenodd;clip-rule:evenodd;fill:#E6301A;}
</style>
<g>
	<defs>
		<rect id="SVGID_1_" width="1925" height="250"/>
	</defs>
	<clipPath id="SVGID_00000039131708199168717590000004512502332109018001_">
		<use xlink:href="#SVGID_1_"  style="overflow:visible;"/>
	</clipPath>
	
		<polygon style="clip-path:url(#SVGID_00000039131708199168717590000004512502332109018001_);fill-rule:evenodd;clip-rule:evenodd;fill:#E6301A;" points="
		1387.3,5.8 1347.9,5.8 1347.9,247.1 1533,247.1 1558.1,207.7 1387.3,207.7 1387.3,5.8 	"/>
	
		<path style="clip-path:url(#SVGID_00000039131708199168717590000004512502332109018001_);fill-rule:evenodd;clip-rule:evenodd;fill:#E6301A;" d="
		M846.9,17.8L702.4,247.1h47.8l43.6-69.3H887l24.5-39.4h-93.2L869,59l118.8,188.1h47.8L889.9,17.2l0,0C880.9,2.2,857,2.2,846.9,17.8
		L846.9,17.8L846.9,17.8L846.9,17.8z"/>
	
		<path style="clip-path:url(#SVGID_00000039131708199168717590000004512502332109018001_);fill-rule:evenodd;clip-rule:evenodd;fill:#E6301A;" d="
		M1127,45.2h165.7l24.5-39.4l-191.4,0.1l0,0c-66.6,0-110.4,54-110.4,120.6s43.8,120.6,110.4,120.6l0,0l161.9-0.2l25.3-39.1h-186l0,0
		c-44.9,0-71.1-36.4-71.1-81.3C1055.8,81.6,1082.1,45.2,1127,45.2L1127,45.2L1127,45.2L1127,45.2z"/>
	
		<path style="clip-path:url(#SVGID_00000039131708199168717590000004512502332109018001_);fill-rule:evenodd;clip-rule:evenodd;fill:#E6301A;" d="
		M281.2,5.9H110.4l0,0C43.8,5.9,0,59.9,0,126.5C0,193,43.8,247,110.4,247l0,0h170.8l0,0c66.6,0,110.4-54,110.4-120.6
		C391.6,59.9,347.8,5.9,281.2,5.9L281.2,5.9L281.2,5.9L281.2,5.9z M281.2,207.8H110.4l0,0c-44.9,0-71.1-36.4-71.1-81.3
		s26.2-81.3,71.1-81.3l0,0h170.8l0,0c44.9,0,71.1,36.4,71.1,81.3C352.4,171.4,326.1,207.8,281.2,207.8L281.2,207.8L281.2,207.8
		L281.2,207.8z"/>
	
		<path style="clip-path:url(#SVGID_00000039131708199168717590000004512502332109018001_);fill-rule:evenodd;clip-rule:evenodd;fill:#E6301A;" d="
		M1670.8,45.2h165.7L1861,5.8l-191.4,0.1l0,0c-66.6,0-110.4,54-110.4,120.6s43.8,120.6,110.4,120.6l0,0l161.9-0.2l25.3-39.1h-186
		l0,0c-38.3,0-62.9-26.5-69.3-62.2l0,0h208.7l25.1-39.4h-233.8l0,0C1608.3,71.2,1633,45.2,1670.8,45.2L1670.8,45.2L1670.8,45.2
		L1670.8,45.2z"/>
	
		<path style="clip-path:url(#SVGID_00000039131708199168717590000004512502332109018001_);fill-rule:evenodd;clip-rule:evenodd;fill:#E6301A;" d="
		M616.3,149.1c39.5,0,71.6-32,71.6-71.6c0-39.5-32-71.6-71.6-71.6l0,0l-201-0.1v241.3h44.2V45.2h156.8l0,0
		c17.8,0,32.3,14.5,32.3,32.3s-14.5,32.3-32.3,32.3l0,0H490.5l141.8,137h57.1l-101.5-97.7H616.3L616.3,149.1L616.3,149.1z"/>
	
		<path style="clip-path:url(#SVGID_00000039131708199168717590000004512502332109018001_);fill-rule:evenodd;clip-rule:evenodd;fill:#E6301A;" d="
		M1903.2,2.9c-11.8,0-21.9,9.1-21.9,21.5c0,12.5,10,21.6,21.9,21.6c11.7,0,21.8-9.1,21.8-21.6C1925,12,1915,2.9,1903.2,2.9
		L1903.2,2.9L1903.2,2.9L1903.2,2.9z M1903.2,42.4c-9.9,0-17.5-7.6-17.5-18c0-10.2,7.7-17.9,17.5-17.9c9.7,0,17.4,7.7,17.4,17.9
		C1920.7,34.7,1913,42.4,1903.2,42.4L1903.2,42.4L1903.2,42.4L1903.2,42.4z"/>
	
		<path style="clip-path:url(#SVGID_00000039131708199168717590000004512502332109018001_);fill-rule:evenodd;clip-rule:evenodd;fill:#E6301A;" d="
		M1906.7,25.9c3.6-0.5,6.4-2.4,6.4-6.8c0-4.9-2.9-7.1-8.8-7.1l0,0h-9.5v24.8h3.8V26.1h4.3l6.6,10.8h4.2L1906.7,25.9L1906.7,25.9
		L1906.7,25.9z M1898.7,22.9v-7.7h5.1l0,0c2.6,0,5.4,0.6,5.4,3.6c0,3.8-2.8,4-6,4l0,0h-4.5V22.9L1898.7,22.9z"/>
</g>
</svg>
