<?xml version="1.0" encoding="utf-8"?>
<!-- Generator: Adobe Illustrator 27.1.0, SVG Export Plug-In . SVG Version: 6.00 Build 0)  -->
<svg version="1.1" id="Capa_1" xmlns="http://www.w3.org/2000/svg" xmlns:xlink="http://www.w3.org/1999/xlink" x="0px" y="0px"
	 viewBox="0 0 472 250" style="enable-background:new 0 0 472 250;" xml:space="preserve">
<style type="text/css">
	.st0{clip-path:url(#SVGID_00000163790663799811338030000016194463976460847503_);}
	.st1{fill-rule:evenodd;clip-rule:evenodd;fill:#FFFFFF;}
	.st2{clip-path:url(#SVGID_00000041997404287063455680000013330741716892177825_);}
	.st3{fill-rule:evenodd;clip-rule:evenodd;fill:#6984BC;}
	.st4{fill-rule:evenodd;clip-rule:evenodd;fill:#1D1D1B;}
</style>
<g>
	<defs>
		<ellipse id="SVGID_1_" cx="236" cy="125" rx="235.4" ry="124"/>
	</defs>
	<clipPath id="SVGID_00000081629809662672117580000016767239242351224987_">
		<use xlink:href="#SVGID_1_"  style="overflow:visible;"/>
	</clipPath>
	<g style="clip-path:url(#SVGID_00000081629809662672117580000016767239242351224987_);">
		<polygon class="st1" points="-27.9,-138.3 499.6,-138.3 499.6,389.2 -27.9,389.2 -27.9,-138.3 		"/>
		<g>
			<defs>
				<path id="SVGID_00000063603347809451317970000001569046676696773279_" d="M235.9,249.3c130.1,0,235.5-55.5,235.5-123.9
					C471.4,57,365.9,1.6,235.9,1.6C105.8,1.6,0.4,57,0.4,125.4C0.4,193.9,105.8,249.3,235.9,249.3L235.9,249.3z"/>
			</defs>
			<clipPath id="SVGID_00000023986955934326251500000016636431091775279493_">
				<use xlink:href="#SVGID_00000063603347809451317970000001569046676696773279_"  style="overflow:visible;"/>
			</clipPath>
			<g style="clip-path:url(#SVGID_00000023986955934326251500000016636431091775279493_);">
				<defs>
					<rect id="SVGID_00000103954762618777174200000015093680487046797977_" x="0.4" y="1.6" width="471" height="247.8"/>
				</defs>
				<clipPath id="SVGID_00000121277155100272572880000016706226317466759832_">
					<use xlink:href="#SVGID_00000103954762618777174200000015093680487046797977_"  style="overflow:visible;"/>
				</clipPath>
				<g style="clip-path:url(#SVGID_00000121277155100272572880000016706226317466759832_);">
					
						<image style="overflow:visible;" width="364" height="193" xlink:href="A89350B4.png"  transform="matrix(1.3135 0 0 -1.3135 -2.7082 252.7699)">
					</image>
				</g>
			</g>
			<g style="clip-path:url(#SVGID_00000023986955934326251500000016636431091775279493_);">
				<defs>
					<rect id="SVGID_00000065033897809477331990000016806856361794033036_" x="0.4" y="1.6" width="471" height="247.8"/>
				</defs>
				<clipPath id="SVGID_00000043432957417814834390000003910427284425109919_">
					<use xlink:href="#SVGID_00000065033897809477331990000016806856361794033036_"  style="overflow:visible;"/>
				</clipPath>
				<g style="clip-path:url(#SVGID_00000043432957417814834390000003910427284425109919_);">
					
						<image style="overflow:visible;" width="364" height="193" xlink:href="A89350B5.png"  transform="matrix(1.3135 0 0 -1.3135 -2.7082 252.7699)">
					</image>
				</g>
			</g>
		</g>
		<path class="st3" d="M235.9,240.1c125,0,226.3-51.3,226.3-114.7c0-63.3-101.3-114.7-226.3-114.7c-125,0-226.3,51.3-226.3,114.7
			C9.6,188.8,110.9,240.1,235.9,240.1L235.9,240.1z"/>
		<path class="st1" d="M281.7,162.5l11.2-57.8c2.5-13,0.4-22.8-6.3-28.9c-6.5-5.9-17.5-8.8-33.6-8.8h-19.4l5.6-28.6
			c0.2-1.1-0.1-2.2-0.8-3c-0.7-0.8-1.7-1.3-2.8-1.3h-26.8c-1.8,0-3.3,1.2-3.6,3l-11.9,61.3c-1.1-6.9-3.8-12.8-8-17.7
			c-7.9-9-20.3-13.6-37-13.6h-52c-1.8,0-3.3,1.2-3.6,3L68.4,194.1c-0.2,1.1,0.1,2.2,0.8,3c0.7,0.8,1.7,1.3,2.8,1.3h27
			c1.8,0,3.3-1.2,3.6-3l5.8-30h20.1c10.6,0,19.4-1.1,26.4-3.4c7.1-2.3,13.6-6.2,19.4-11.6c4.6-4.3,8.5-9,11.4-14.2l-4.8,24.8
			c-0.2,1.1,0.1,2.2,0.8,3c0.7,0.8,1.7,1.3,2.8,1.3h26.8c1.8,0,3.3-1.2,3.6-3l13.2-68.1h18.4c7.8,0,10.1,1.6,10.8,2.2
			c0.6,0.6,1.7,2.8,0.4,9.6l-10.7,54.9c-0.2,1.1,0.1,2.2,0.8,3c0.7,0.8,1.7,1.3,2.8,1.3h27.3C279.9,165.5,281.4,164.2,281.7,162.5
			L281.7,162.5z M157.3,114.8c-1.7,8.7-4.9,14.8-9.4,18.4c-4.7,3.6-12.1,5.4-22.1,5.4h-12l8.7-44.6h15.5c11.4,0,16,2.4,17.8,4.5
			C158.3,101.2,158.8,106.9,157.3,114.8L157.3,114.8z"/>
		<path class="st1" d="M394.7,80.6c-7.9-9-20.3-13.6-37-13.6h-52c-1.8,0-3.3,1.2-3.6,3L278,194.1c-0.2,1.1,0.1,2.2,0.8,3
			c0.7,0.8,1.7,1.3,2.8,1.3h27c1.8,0,3.3-1.2,3.6-3l5.8-30h20.1c10.6,0,19.4-1.1,26.4-3.4c7.1-2.3,13.6-6.2,19.4-11.6
			c4.8-4.4,8.7-9.3,11.7-14.7c3-5.3,5.1-11.3,6.4-17.7C405.1,102.3,402.7,89.6,394.7,80.6L394.7,80.6z M368.4,114.8
			c-1.7,8.7-4.9,14.8-9.4,18.4c-4.7,3.6-12.1,5.4-22.1,5.4h-12l8.7-44.6H349c11.4,0,16,2.4,17.8,4.5
			C369.4,101.2,369.9,106.9,368.4,114.8L368.4,114.8z"/>
		<path class="st4" d="M137.9,90.3c10.3,0,17.1,1.9,20.5,5.7c3.4,3.8,4.2,10.3,2.4,19.5c-1.9,9.6-5.5,16.5-10.8,20.6
			c-5.3,4.1-13.5,6.2-24.4,6.2h-16.5l10.1-52H137.9L137.9,90.3z M72,194.8h27l6.4-33h23.2c10.2,0,18.6-1.1,25.2-3.2
			c6.6-2.1,12.6-5.7,18-10.8c4.5-4.2,8.2-8.8,11-13.8c2.8-5,4.8-10.6,6-16.6c2.9-14.7,0.7-26.2-6.5-34.4
			c-7.2-8.2-18.6-12.3-34.2-12.3h-52L72,194.8L72,194.8z"/>
		<path class="st4" d="M208.7,37.7h26.8l-6.4,33h23.9c15,0,25.4,2.6,31.1,7.9c5.7,5.2,7.4,13.7,5.1,25.5l-11.2,57.8h-27.3l10.7-54.9
			c1.2-6.2,0.8-10.5-1.3-12.8c-2.1-2.3-6.6-3.4-13.5-3.4h-21.4l-13.8,71.1h-26.8L208.7,37.7L208.7,37.7z"/>
		<path class="st4" d="M349,90.3c10.3,0,17.1,1.9,20.5,5.7c3.4,3.8,4.2,10.3,2.4,19.5c-1.9,9.6-5.5,16.5-10.8,20.6
			c-5.3,4.1-13.5,6.2-24.4,6.2h-16.5l10.1-52H349L349,90.3z M283.1,194.8h27l6.4-33h23.2c10.2,0,18.6-1.1,25.2-3.2
			c6.6-2.1,12.6-5.7,18-10.8c4.5-4.2,8.2-8.8,11-13.8c2.8-5,4.8-10.6,6-16.6c2.9-14.7,0.7-26.2-6.5-34.4
			c-7.2-8.2-18.6-12.3-34.2-12.3h-52L283.1,194.8L283.1,194.8z"/>
	</g>
</g>
</svg>
