<?xml version="1.0" encoding="utf-8"?>
<!-- Generator: Adobe Illustrator 27.1.0, SVG Export Plug-In . SVG Version: 6.00 Build 0)  -->
<svg version="1.1" id="Capa_1" xmlns="http://www.w3.org/2000/svg" xmlns:xlink="http://www.w3.org/1999/xlink" x="0px" y="0px"
	 viewBox="0 0 881 250" style="enable-background:new 0 0 881 250;" xml:space="preserve">
<style type="text/css">
	.st0{fill:#FF6C37;}
	.st1{fill:#FFFFFF;}
</style>
<g id="g1038" transform="matrix(1.2951512,0,0,1.2951512,-22.279008,-8.854536)">
	<g id="g997" transform="translate(0,-0.94636033)">
		<path id="path18" class="st0" d="M188.1,46C155.9,4.3,96-3.4,54.4,28.8S5,120.9,37.2,162.6s92.1,49.4,133.7,17.2c0,0,0,0,0,0
			C212.6,147.6,220.3,87.7,188.1,46z"/>
		<path id="path20" class="st1" d="M144.8,69.7l-40.2,40.5L93.2,98.5C132.8,59,136.8,62.5,144.8,69.7z"/>
		<path id="path22" class="st0" d="M104.6,111.3L104.6,111.3c-0.4,0-0.7-0.2-1-0.4L92.2,99.5c-0.5-0.6-0.5-1.4,0-2
			c39-39,44.3-37.2,53.6-28.8c0.3,0.3,0.5,0.6,0.5,1c0.1,0.4-0.1,0.8-0.4,1l-40.2,40.2C105.4,111.2,105,111.3,104.6,111.3z
			 M95.2,98.5l9.4,9.4l38.1-38.1c-2.7-3.4-7.6-4.2-11.3-1.9C124.5,71,113.4,80.4,95.2,98.5z"/>
		<path id="path24" class="st1" d="M116.1,121.4l-11-11.2l40.2-39.7C156.2,81.1,140.1,98.7,116.1,121.4z"/>
		<path id="path26" class="st0" d="M116.1,122.9L116.1,122.9c-0.4,0-0.7-0.2-1-0.4l-11.2-11c-0.2-0.4-0.2-0.9,0-1.3
			c-0.1-0.3-0.1-0.7,0-1L144.2,69c0.6-0.5,1.5-0.5,2.1,0c2.6,2.4,4.1,5.9,4,9.5c0,10.7-12.2,24.2-33.1,43.9
			C116.9,122.7,116.5,122.8,116.1,122.9z M107.2,110.2l9,9c15.9-15,31.1-30.5,31.1-41c0.1-2.2-0.6-4.4-2.1-6.1L107.2,110.2z"/>
		<path id="path28" class="st1" d="M93.6,98.8l7.9,7.9c0.2,0.2,0.2,0.5,0,0.7c0,0,0,0,0,0L84.7,111c-0.9,0.2-1.7-0.4-1.9-1.2
			c-0.1-0.5,0.1-1.1,0.5-1.5l9.8-9.7C93.1,98.6,93.4,98.6,93.6,98.8z"/>
		<path id="path30" class="st0" d="M84.3,112.6c-1.1,0-2.1-0.6-2.6-1.5c-0.6-1.2-0.4-2.6,0.6-3.6l9.7-9.8c0.7-0.6,1.8-0.6,2.5,0
			l7.9,7.9c0.5,0.4,0.7,1.1,0.5,1.7c-0.2,0.6-0.7,1.1-1.4,1.3l-16.8,3.6L84.3,112.6z M93.2,100.5l-9,9l0,0l0,0l14.9-3.2L93.2,100.5z
			"/>
		<path id="path32" class="st1" d="M166.2,47.4c-6.1-5.9-15.9-5.7-21.8,0.4s-5.7,15.9,0.4,21.8c5,4.8,12.7,5.7,18.6,2.1l-10.8-10.8
			L166.2,47.4z"/>
		<path id="path34" class="st0" d="M155.5,75.3c-9.3-0.1-16.7-7.8-16.6-17.1c0.1-4.4,1.8-8.5,4.9-11.6c6.6-6.5,17.2-6.5,23.8,0
			c0.6,0.5,0.6,1.3,0.2,1.9c0,0.1-0.1,0.1-0.2,0.2l-12.9,12.2l9.8,9.6c0.3,0.3,0.5,0.8,0.4,1.2c0,0.4-0.3,0.8-0.6,1
			C161.6,74.4,158.6,75.3,155.5,75.3z M155.5,44.5c-7.7,0-14,6.3-13.9,14.1c0,3.7,1.5,7.2,4.1,9.8c4,4.1,10.2,5.2,15.4,2.9l-9.4-9.4
			c-0.3-0.3-0.5-0.6-0.5-1c0-0.4,0.2-0.7,0.5-1L164,47.4C161.6,45.6,158.6,44.5,155.5,44.5z"/>
		<path id="path36" class="st1" d="M166.4,47.6L166.4,47.6l-13.6,13.5l10.8,10.8c1.1-0.6,2.1-1.4,3-2.2
			C172.5,63.5,172.4,53.7,166.4,47.6z"/>
		<path id="path38" class="st0" d="M163.4,73.1c-0.4,0-0.7-0.1-1-0.4l-10.8-10.8c-0.3-0.3-0.5-0.6-0.5-1c0-0.4,0.2-0.7,0.5-1
			l13.5-13.3c0.4-0.7,1.3-0.8,2-0.4c0.2,0.1,0.3,0.2,0.4,0.4l0,0c6.6,6.4,6.7,17,0.2,23.6c-0.1,0.1-0.2,0.2-0.2,0.2
			c-0.9,1-2,1.8-3.2,2.5C164.1,73.2,163.7,73.2,163.4,73.1z M154.7,60.9l9,9c0.6-0.4,1.2-0.9,1.7-1.4c2.6-2.6,4.1-6.2,4.1-9.9
			c0-3.3-1.2-6.6-3.4-9.1L154.7,60.9z"/>
		<path id="path40" class="st1" d="M146.5,71.4L146.5,71.4c-2.2-2.1-5.7-2.1-7.9,0l-36,35.9l6,6l38.1-33.4c2.3-2.2,2.4-6,0.2-8.3
			C146.7,71.5,146.6,71.5,146.5,71.4z"/>
		<path id="path42" class="st0" d="M108.2,114.7c-0.4,0-0.7-0.2-1-0.4l-6-6c-0.5-0.6-0.5-1.4,0-2l36-35.8c2.9-2.8,7.5-2.8,10.3,0
			l0,0c1.4,1.4,2.2,3.4,2.1,5.4c-0.1,2-1,3.9-2.5,5.2l-38.1,33.4C108.9,114.7,108.5,114.8,108.2,114.7z M104,107.3l4,4.1l37.3-32.5
			c0.9-0.8,1.5-2,1.5-3.2c0-1.2-0.4-2.4-1.4-3.3c-1.7-1.7-4.5-1.7-6.3,0L104,107.3z"/>
		<path id="path44" class="st1" d="M74.6,148.2c-0.2,0.3-0.2,0.7,0,1l1.6,6.9c0.2,1.1-0.6,2.1-1.6,2.3c-0.6,0.1-1.2-0.1-1.6-0.5
			l-10.9-10.5L96,113.2h11.8l7.9,7.9C103.3,132,89.5,141.1,74.6,148.2z"/>
		<path id="path46" class="st0" d="M73.9,159.9c-0.9,0-1.8-0.4-2.4-1l-10.4-10.4c-0.3-0.3-0.5-0.6-0.5-1c0-0.4,0.2-0.7,0.5-1
			l34.2-34.2c0.2-0.2,0.4-0.3,0.7-0.4h11.8c0.3-0.1,0.6-0.1,1,0l7.9,7.9c0.3,0.3,0.5,0.7,0.4,1.1c0,0.4-0.2,0.8-0.5,1l-0.6,0.6
			c-12.4,10.4-26.1,19.2-40.8,26.1l1.5,6.4c0.4,1.8-0.7,3.7-2.5,4.1c-0.2,0.1-0.5,0.1-0.7,0.1L73.9,159.9z M64.2,147.4l9.4,9.5
			c0.2,0.2,0.5,0.2,0.6,0c0.1-0.2,0.1-0.4,0-0.6l-1.6-6.9c-0.3-1,0.2-2.1,1.2-2.5l0,0c14.2-6.9,27.6-15.5,39.7-25.6l-6.5-6.5H96.4
			L64.2,147.4z"/>
		<path id="path48" class="st1" d="M53.9,155.6l7.9-7.9l12.2,12.2l-19.5-1.4c-0.9-0.1-1.5-0.8-1.5-1.7
			C53.2,156.3,53.5,155.9,53.9,155.6z"/>
		<path id="path50" class="st0" d="M74.3,161.1L74.3,161.1l-19.4-1.4c-1.7-0.2-2.9-1.6-2.7-3.3c0.1-0.7,0.4-1.3,0.8-1.8l0,0l7.9-7.9
			c0.6-0.5,1.4-0.5,2,0l12.2,12.2c0.3,0.5,0.3,1.1,0,1.6C74.9,160.7,74.7,161,74.3,161.1z M54.9,156.6l15.9,1l-8.7-8.2L54.9,156.6z"
			/>
		<polygon id="polygon52" class="st1" points="108.9,114.2 92.8,116.7 102.1,107.4 		"/>
		<path id="path54" class="st0" d="M92.8,118.2c-0.5,0-1-0.3-1.3-0.8c-0.3-0.5-0.3-1.1,0-1.6l9.2-9.3c0.6-0.5,1.5-0.5,2.1,0l6.8,6.8
			c0.3,0.4,0.3,1,0,1.4c-0.1,0.5-0.6,0.9-1.1,1l-15.9,2.5L92.8,118.2z M102.1,109.5l-5.2,5.2l8.9-1.4L102.1,109.5z"/>
		<path id="path56" class="st1" d="M108.9,114.2l-11.2,1.4c-0.8,0.2-1.5-0.3-1.7-1.1c-0.1-0.5,0-1,0.4-1.3l5.8-5.8L108.9,114.2z"/>
		<path id="path58" class="st0" d="M97.4,117.1c-1.1,0-2-0.6-2.5-1.5c-0.6-1.1-0.4-2.5,0.5-3.4l5.8-5.8c0.6-0.5,1.5-0.5,2.1,0
			l6.8,6.8c0.6,0.5,0.6,1.4,0.1,2c-0.2,0.3-0.6,0.4-0.9,0.4l-11.1,1.4L97.4,117.1z M97.4,114.2L97.4,114.2l8.4-1l-3.7-3.7
			L97.4,114.2L97.4,114.2z"/>
		<path id="path60" class="st0" d="M166.5,56.7c-0.3-0.5-1-0.7-1.5-0.5c-0.5,0.3-0.8,1-0.5,1.5c0,0,0,0,0,0c0.6,1.2,0.4,2.6-0.4,3.6
			c-0.4,0.4-0.4,1,0,1.5c0,0,0,0,0,0c0.2,0.1,0.4,0.1,0.6,0c0.4,0.1,0.8,0,1-0.3C167.1,60.9,167.4,58.7,166.5,56.7z"/>
	</g>
	<g id="g46" transform="matrix(0.35821397,0,0,0.35821397,33.230012,-16.871323)">
		<g id="g44">
			<path id="path30-9" class="st0" d="M1438.8,294.7c-9.5,19.9-17.5,38.1-26.2,56.4c-2.4,4.8-4,11.1-8.7,11.1
				c-6.4,0-7.2-6.4-9.5-11.9c-7.2-15.9-14.3-31.8-21.5-46.9c-1.6-2.4-1.6-7.2-4.8-6.4c-4,0.8-3.2,5.6-3.2,8.7c0,31.8,0,63.6,0,96.1
				c0,4.8,0,9.5-0.8,14.3c-0.8,4.8-4,7.9-8.7,7.9c-4.8-0.8-6.4-4-7.2-7.9c0-3.2,0-6.4,0-9.5c0-46.9,0-93,0-139.8
				c0-6.4-1.6-15.1,5.6-17.5c7.9-2.4,12.7,4,15.9,11.1c8.7,18.3,15.9,36.6,24.6,54c2.4,4.8,3.2,13.5,9.5,14.3
				c7.2,0,7.9-9.5,10.3-14.3c8.7-17.5,15.9-35,24.6-52.4c3.2-7.2,7.2-14.3,15.9-12.7c8.7,2.4,6.4,11.1,6.4,18.3
				c0,46.1,0,92.2,0,138.3c0,7.2,2.4,18.3-7.9,18.3c-11.1,0-8.7-11.1-8.7-19.1c0-30.2,0-60.4,0-91.4
				C1443.6,307.4,1445.2,301.1,1438.8,294.7L1438.8,294.7z"/>
			<path id="path32-1" class="st0" d="M1779.7,298.7c-4.8,4.8-3.2,11.1-3.2,16.7c0,31.8,0,62.8,0,94.6c0,5.6,1.6,14.3-6.4,14.3
				c-8.7,0.8-8.7-7.9-8.7-14.3c0-48.5,0-96.9,0-146.2c0-5.6-0.8-12.7,5.6-14.3c7.2-2.4,11.1,3.2,14.3,9.5
				c12.7,28.6,26.2,57.2,38.9,86.6c2.4,6.4,5.6,11.9,7.9,18.3c1.6,3.2,1.6,7.9,6.4,6.4c4-1.6,3.2-6.4,3.2-9.5c0-31,0-62,0-93
				c0-4,0-7.2,0.8-11.1c0.8-5.6,4-7.9,8.7-7.9c4.8,0.8,6.4,4.8,6.4,9.5c0,11.9,0,23.8,0,35.8c0,37.3,0,73.9,0,111.2
				c0,6.4,2.4,15.1-5.6,17.5c-8.7,3.2-11.9-5.6-15.1-12.7c-15.1-32.6-29.4-66-44.5-98.5C1786.1,306.6,1785.3,301.1,1779.7,298.7z"/>
			<path id="path34-7" class="st0" d="M877.9,336c-0.8,17.5,0.8,34.2-1.6,51.6c-4,24.6-17.5,36.6-42.1,36.6
				c-26.2,0-41.3-11.1-44.5-35.8c-4-35.8-4.8-72.3,0-108.1c3.2-23,19.1-34.2,42.9-34.2s38.9,11.9,42.9,34.2
				C879.5,299.5,877.1,317.8,877.9,336z M862,336c0-13.5,0.8-27,0-40.5c-0.8-20.7-11.9-32.6-30.2-31.8c-17.5,0-27.8,11.1-28.6,31.8
				c-0.8,27-0.8,54.8,0,81.8c0.8,20.7,11.1,31.8,28.6,32.6c18.3,0,29.4-11.1,30.2-32.6C862.8,363.8,862,350.3,862,336z"/>
			<path id="path36-4" class="st0" d="M1662.9,413.1c0,5.6-0.8,9.5-5.6,10.3c-4,0.8-7.2,0-8.7-4.8c-0.8-3.2-2.4-7.2-3.2-10.3
				c-7.2-24.6-7.2-24.6-28.6-24.6c-2.4,0-4.8,0-7.2,0c-27,0-27,0-36.6,28.6c-1.6,5.6-2.4,13.5-10.3,11.1c-7.9-3.2-5.6-11.1-4-17.5
				c12.7-47.7,25.4-96.1,38.9-143.8c2.4-7.2,3.2-17.5,13.5-16.7c8.7,0.8,10.3,9.5,11.9,16.7c11.9,45.3,24.6,90.6,36.6,136.7
				C1661.3,403.6,1662.1,408.3,1662.9,413.1z M1609.7,368.6c2.4,0,5.6,0,7.9,0c17.5,0,18.3-0.8,12.7-20.7
				c-4.8-19.1-9.5-38.1-15.1-56.4c-0.8-4,0-9.5-4.8-9.5s-5.6,5.6-6.4,10.3c-4,15.9-7.9,31.8-12.7,47.7
				C1583.5,368.6,1584.3,368.6,1609.7,368.6z"/>
			<path id="path38-1" class="st0" d="M598.2,336c0-24.6,0-49.3,0-73.9c0-11.9,4-15.9,13.5-15.9c8.7,0,18.3,0,27,0
				c36.6,0.8,50.1,17.5,49.3,59.6c-0.8,28.6-15.1,45.3-39.7,46.9c-7.2,0-13.5,0.8-20.7,0c-11.1-0.8-15.1,4.8-14.3,16.7
				c0.8,14.3,0,28.6,0,42.1c0,5.6-0.8,11.9-7.9,11.9c-7.2,0-7.2-6.4-7.2-12.7C598.2,386.1,598.2,360.7,598.2,336z M635.5,338.4
				c23,0,31.8-5.6,35.8-22.2c4-16.7,4-32.6-7.9-45.3c-12.7-12.7-29.4-7.2-44.5-6.4c-5.6,0-5.6,7.2-5.6,12.7c0,11.9,0,23.8,0,35.8
				C613.3,338.4,613.3,338.4,635.5,338.4z"/>
			<path id="path40-0" class="st0" d="M1019.3,425.8c-16.7,0-30.2-3.2-40.5-15.9c-3.2-4-7.2-9.5-2.4-15.1c4-4.8,8.7-1.6,11.9,2.4
				c9.5,10.3,19.9,13.5,32.6,12.7c11.9-0.8,20.7-6.4,25.4-19.9c4.8-13.5,1.6-26.2-7.2-35.8c-8.7-9.5-19.9-13.5-31-19.1
				c-15.9-7.2-27.8-17.5-29.4-38.9c-2.4-28.6,10.3-44.5,38.1-50.1c11.9-2.4,23,0.8,33.4,4.8c5.6,1.6,10.3,6.4,7.9,13.5
				c-2.4,7.9-7.9,4.8-12.7,2.4c-10.3-5.6-21.5-5.6-31.8-4c-8.7,1.6-16.7,7.2-18.3,18.3c-1.6,11.1,0,20.7,7.9,27.8
				c10.3,8.7,22.2,11.9,33.4,17.5c17.5,8.7,27,23.8,27,46.1c0,20.7-4.8,36.6-22.2,46.9C1033.6,425,1024.9,424.2,1019.3,425.8z"/>
			<path id="path42-6" class="st0" d="M1193.3,342.4c0-20.7-0.8-40.5,0-61.2c0.8-15.1-4.8-19.9-16.7-18.3c-4.8,0.8-10.3,0-15.1,0
				s-7.9-2.4-7.9-8.7c0-4.8,3.2-7.9,7.2-7.9c27,0,54,0,81,0c4,0,7.2,2.4,7.2,7.2c0,5.6-3.2,8.7-7.9,8.7c-5.6,0-11.9,0.8-17.5,0
				c-11.1-0.8-14.3,4.8-14.3,16.7c0,38.9,0,78.7,0,117.6c0,4,0,8.7,0,12.7c0,6.4-0.8,13.5-7.9,13.5c-7.9,0-7.9-7.2-7.9-13.5
				c0-19.1,0-37.3,0-56.4C1193.3,349.5,1193.3,346.4,1193.3,342.4z"/>
		</g>
	</g>
</g>
</svg>
