<?xml version="1.0" encoding="utf-8"?>
<!-- Generator: Adobe Illustrator 28.0.0, SVG Export Plug-In . SVG Version: 6.00 Build 0)  -->
<svg version="1.1" id="Capa_1" xmlns="http://www.w3.org/2000/svg" xmlns:xlink="http://www.w3.org/1999/xlink" x="0px" y="0px"
	 viewBox="0 0 985 250" style="enable-background:new 0 0 985 250;" xml:space="preserve">
<style type="text/css">
	.st0{fill:#FFFFFF;}
	.st1{fill:url(#SVGID_1_);}
	.st2{fill:url(#SVGID_00000098935349878212894310000014325406481209780144_);}
</style>
<path class="st0" d="M407.1,130.2c0-32.5-9.3-48.7-27.9-49.3c-7.5-0.6-14.5,1.2-21.5,3.5c-5.8,1.7-9.3,4.1-11,5.8v76.6
	c11.6,7.5,22,11,31.3,10.4C397.2,175.5,407.1,159.8,407.1,130.2z M429.7,131.4c0,16.3-3.5,29.6-11.6,40.6
	c-8.7,12.2-20.3,18.6-36,18.6c-11.6,0.6-23.2-3.5-35.4-11v69.6l-19.7-7V87.3c3.5-4.1,7.5-7.5,12.2-10.4
	c11.6-6.9,26.1-10.4,42.3-10.4c15.1,0,27.3,6.4,35.4,18.6C425.6,98.3,429.7,112.8,429.7,131.4L429.7,131.4z M549.8,177.2
	c0,22-2.3,37.1-6.4,45.3c-4.7,8.1-12.8,15.1-25,20.3c-10.4,4.1-20.9,6.4-32.5,6.4l-3.5-12.2c12.2-1.7,20.3-3.5,25-4.7
	c9.3-3.5,16.3-8.1,19.7-15.1c2.9-5.2,4.1-15.7,4.1-30.7v-5.2c-13.3,6.4-27.9,9.3-42.3,9.3c-9.9,0-18.6-2.9-25.5-9.3
	c-8.1-6.4-12.2-15.1-12.2-25.5V73.9l19.7-6.9v82.4c0,8.7,2.9,15.7,8.7,20.3c5.8,4.7,12.8,6.9,22,6.9s18.6-3.5,29-10.4V69.9h19.7
	L549.8,177.2z M626.4,190H620c-11,0-19.7-2.9-26.1-8.1c-6.4-5.2-9.3-12.8-9.3-22V82.1h-13.3V69.9h13.3V36.8l19.7-6.9v40h22v12.2h-22
	v76.6c0,7.5,1.7,12.8,5.8,15.7c3.5,2.3,8.7,4.1,16.3,4.7V190z M745.9,188.2h-19.7v-76c0-7.5-1.7-14.5-5.2-19.7
	c-4.1-6.4-9.9-9.3-17.4-9.3c-9.3,0-20.3,4.7-33.6,14.5v91.1h-19.7V7.2L670,0.8v82.4c12.8-9.3,26.1-13.9,41.2-13.9
	c10.4,0,18.6,3.5,25.5,10.4c6.4,6.9,9.9,15.7,9.9,26.1L745.9,188.2z M850.4,126.7c0-12.2-2.3-22.6-6.9-30.7
	c-5.8-9.9-13.9-15.1-26.1-15.7c-21.5,1.2-32.5,16.8-32.5,46.4c0,13.9,2.3,25,6.9,34.2c5.8,11.6,14.5,17.4,26.1,17.4
	C839.3,177.8,850.4,161,850.4,126.7z M871.8,126.7c0,17.4-4.7,32.5-13.3,44.1c-9.9,12.8-23.8,19.7-40.6,19.7
	c-17.4,0-30.7-6.4-40.6-19.7c-8.7-11.6-13.3-26.1-13.3-44.1c0-16.8,4.7-30.7,14.5-41.8c10.4-12.2,23.2-18,39.5-18s29.6,5.8,40,18
	C867.2,96.5,871.8,110.5,871.8,126.7z M985,188.2h-19.7v-80.1c0-8.7-2.9-15.7-8.1-20.3c-5.2-4.7-12.2-7.5-21.5-6.9
	c-9.3,0-18.6,3.5-26.7,9.3v99.2h-19.7V87.8c11-8.1,21.5-13.9,31.3-16.3c9.3-2.3,16.8-3.5,23.8-3.5c4.7,0,9.3,0.6,13.3,1.2
	c7.5,1.7,13.9,5.2,18.6,9.9c5.2,5.2,8.1,12.2,8.1,19.7L985,188.2z"/>
<g>
	
		<linearGradient id="SVGID_1_" gradientUnits="userSpaceOnUse" x1="12846.7285" y1="-26258.752" x2="12861.459" y2="-26271.4258" gradientTransform="matrix(9.2563 0 0 -9.3468 -118919.7891 -245428.4531)">
		<stop  offset="0" style="stop-color:#5CA0D5"/>
		<stop  offset="1" style="stop-color:#316A99"/>
	</linearGradient>
	<path class="st1" d="M121.9,0.1c-10.2,0-20,0.9-28.6,2.5C68,7,63.5,16.3,63.5,33.7v22.8h59.7v7.6H41.3c-17.1,0-32.4,10.5-37.1,30.1
		c-5.4,22.8-5.7,36.8,0,60.6c4.1,17.8,14.3,30.1,31.7,30.1h20.6v-27.3c0-19.7,17.1-37.1,37.1-37.1H153c16.5,0,29.8-13.7,29.8-30.5
		V33.4c0-16.2-13.7-28.2-29.8-31.1C142.5,0.7,132-0.3,121.9,0.1z M89.5,18.1c6,0,11.1,5.1,11.1,11.4S95.5,41,89.5,41
		s-11.1-5.1-11.1-11.4S83.2,18.1,89.5,18.1z"/>
	
		<linearGradient id="SVGID_00000124151457990844408050000002211012692217269677_" gradientUnits="userSpaceOnUse" x1="12867.1758" y1="-26279.0879" x2="12861.916" y2="-26271.6465" gradientTransform="matrix(9.2563 0 0 -9.3468 -118919.7891 -245428.4531)">
		<stop  offset="0" style="stop-color:#FFD43E"/>
		<stop  offset="1" style="stop-color:#FFE975"/>
	</linearGradient>
	<path style="fill:url(#SVGID_00000124151457990844408050000002211012692217269677_);" d="M190.1,63.5v26.3
		c0,20.6-17.5,37.8-37.4,37.8H93.3c-16.2,0-29.8,14-29.8,30.5v56.8c0,16.2,14,25.7,29.8,30.5c18.7,5.7,36.8,6.7,59.7,0
		c14.9-4.4,29.8-13,29.8-30.5V192h-59.7v-7.6h89.5c17.1,0,23.8-12.1,29.8-30.1c6.3-18.7,6-36.5,0-60.6
		c-4.1-17.1-12.4-30.1-29.8-30.1L190.1,63.5z M156.5,207.3c6,0,11.1,5.1,11.1,11.4s-5.1,11.4-11.1,11.4s-11.1-5.1-11.1-11.4
		S150.4,207.3,156.5,207.3z"/>
</g>
</svg>
