<?xml version="1.0" encoding="utf-8"?>
<!-- Generator: Adobe Illustrator 27.1.0, SVG Export Plug-In . SVG Version: 6.00 Build 0)  -->
<svg version="1.1" id="Capa_1" xmlns="http://www.w3.org/2000/svg" xmlns:xlink="http://www.w3.org/1999/xlink" x="0px" y="0px"
	 viewBox="0 0 279 250" style="enable-background:new 0 0 279 250;" xml:space="preserve">
<style type="text/css">
	.st0{fill:#FFFFFF;}
	.st1{fill:#53C1DE;}
</style>
<path class="st0" d="M0.7,124.6c0,21,20.5,40.6,52.8,51.7c-6.5,32.5-1.2,58.7,16.5,68.9c18.2,10.5,45.3,3.2,71-19.3
	c25.1,21.6,50.4,30.1,68.1,19.8c18.2-10.5,23.7-38.5,17.1-72c33.7-11.1,52.5-27.8,52.5-49.1c0-20.5-20.5-38.3-52.4-49.2
	c7.1-34.9,1.1-60.5-17.3-71.1C191.2-6,165.6,2.9,140.2,25.1C113.7,1.6,88.3-5.6,69.9,5C52.1,15.3,47.1,42,53.6,75.1
	C22.3,86,0.7,104.1,0.7,124.6z"/>
<path class="st1" d="M219.6,86.2c-2.6-0.9-5.2-1.7-7.9-2.5c0.4-1.8,0.9-3.6,1.2-5.4c6-29.2,2.1-52.7-11.4-60.5
	c-12.9-7.4-34,0.3-55.2,18.8c-2,1.8-4.1,3.7-6.1,5.6c-1.4-1.3-2.7-2.6-4.1-3.8C113.7,18.7,91.4,10.4,78,18.1
	c-12.9,7.5-16.7,29.6-11.3,57.3c0.5,2.7,1.1,5.4,1.8,8.2c-3.2,0.9-6.2,1.9-9.1,2.9c-26.1,9.1-42.8,23.4-42.8,38.2
	c0,15.3,17.9,30.7,45.2,40c2.1,0.7,4.4,1.4,6.7,2.1c-0.7,3-1.4,5.9-1.9,8.8c-5.2,27.2-1.1,48.8,11.7,56.2
	c13.3,7.6,35.5-0.2,57.2-19.2c1.7-1.5,3.4-3.1,5.2-4.7c2.2,2.1,4.5,4.2,6.7,6.1c21,18.1,41.7,25.4,54.5,17.9
	c13.2-7.7,17.5-30.9,12-59.1c-0.4-2.2-0.9-4.4-1.5-6.6c1.6-0.5,3.1-0.9,4.6-1.4c28.3-9.4,46.7-24.5,46.7-40.1
	C263.5,109.8,246.3,95.4,219.6,86.2L219.6,86.2L219.6,86.2z"/>
<path class="st0" d="M213.5,154.7c-1.4,0.4-2.7,0.9-4.1,1.3c-3.1-9.9-7.3-20.4-12.5-31.3c4.9-10.6,9-21,12-30.8
	c2.5,0.7,5,1.5,7.3,2.3c22.9,7.9,36.8,19.5,36.8,28.5C252.9,134.2,237.9,146.6,213.5,154.7L213.5,154.7L213.5,154.7z M203.3,174.8
	c2.5,12.5,2.8,23.8,1.2,32.6c-1.5,7.9-4.4,13.2-8.1,15.3c-7.8,4.5-24.4-1.4-42.4-16.8c-2.1-1.8-4.1-3.7-6.2-5.7
	c7-7.6,13.9-16.5,20.7-26.3c11.9-1.1,23.2-2.8,33.4-5.2C202.5,170.8,202.9,172.8,203.3,174.8L203.3,174.8L203.3,174.8z M100.7,221.9
	c-7.6,2.7-13.7,2.8-17.3,0.7c-7.8-4.5-11-21.8-6.6-45.1c0.5-2.7,1.1-5.4,1.8-8.2c10.1,2.2,21.3,3.8,33.3,4.8
	c6.8,9.6,14,18.5,21.2,26.2c-1.6,1.5-3.1,3-4.7,4.3C118.8,213,109.2,218.9,100.7,221.9L100.7,221.9L100.7,221.9z M65.1,154.6
	c-12-4.1-22-9.5-28.8-15.3c-6.1-5.2-9.2-10.5-9.2-14.7c0-9,13.4-20.5,35.8-28.3c2.7-0.9,5.6-1.8,8.5-2.7c3.1,10.1,7.1,20.6,12,31.2
	c-5,10.8-9.1,21.5-12.2,31.6C69.1,155.9,67.1,155.3,65.1,154.6L65.1,154.6L65.1,154.6z M77.1,73.4c-4.6-23.7-1.6-41.6,6.2-46.1
	c8.3-4.8,26.5,2,45.8,19.1c1.2,1.1,2.5,2.2,3.7,3.4c-7.2,7.7-14.3,16.5-21,26c-11.6,1.1-22.7,2.8-33,5.1
	C78.1,78.4,77.5,75.8,77.1,73.4L77.1,73.4L77.1,73.4z M183.6,99.7c-2.4-4.2-5-8.3-7.5-12.3c7.9,1,15.4,2.3,22.5,3.9
	c-2.1,6.8-4.8,14-7.9,21.3C188.4,108.3,186.1,104,183.6,99.7L183.6,99.7L183.6,99.7z M140.1,57.3c4.9,5.3,9.7,11.2,14.5,17.5
	c-4.8-0.2-9.7-0.3-14.6-0.3c-4.9,0-9.7,0.1-14.5,0.3C130.3,68.6,135.2,62.7,140.1,57.3L140.1,57.3L140.1,57.3z M96.4,99.7
	c-2.4,4.2-4.8,8.5-7,12.8c-3.1-7.3-5.7-14.4-7.8-21.4c7-1.6,14.6-2.9,22.4-3.8C101.4,91.3,98.9,95.5,96.4,99.7L96.4,99.7L96.4,99.7z
	 M104.2,162.8c-8.1-0.9-15.7-2.1-22.8-3.7c2.2-7,4.9-14.4,8-21.8c2.2,4.3,4.5,8.5,7,12.8h0C99,154.4,101.6,158.6,104.2,162.8
	L104.2,162.8L104.2,162.8z M140.4,192.7c-5-5.4-10-11.4-14.9-17.8c4.7,0.2,9.5,0.3,14.4,0.3c5,0,10-0.1,14.9-0.3
	C150.1,181.4,145.3,187.4,140.4,192.7L140.4,192.7L140.4,192.7z M190.8,136.9c3.3,7.5,6.1,14.8,8.3,21.7c-7.2,1.6-14.9,2.9-23,3.9
	c2.6-4.1,5.1-8.3,7.6-12.6C186.1,145.7,188.5,141.3,190.8,136.9L190.8,136.9L190.8,136.9z M174.5,144.7c-3.9,6.7-7.8,13.1-11.8,19.1
	c-7.3,0.5-14.9,0.8-22.6,0.8c-7.7,0-15.2-0.2-22.4-0.7c-4.2-6.1-8.2-12.5-12.1-19.1h0c-3.8-6.6-7.3-13.3-10.5-19.9
	c3.2-6.6,6.7-13.3,10.5-19.9l0,0c3.8-6.6,7.8-13,12-19.1c7.3-0.6,14.9-0.8,22.5-0.8h0c7.6,0,15.2,0.3,22.5,0.9
	c4.1,6,8.1,12.4,11.9,19c3.9,6.7,7.4,13.3,10.6,19.8C181.9,131.4,178.3,138.1,174.5,144.7L174.5,144.7L174.5,144.7z M196.3,26.9
	c8.3,4.8,11.5,24,6.3,49.2c-0.3,1.6-0.7,3.2-1.1,4.9c-10.2-2.4-21.4-4.1-33-5.2c-6.8-9.7-13.8-18.4-20.9-26.1
	c1.9-1.8,3.8-3.6,5.7-5.2C171.4,28.7,188.5,22.5,196.3,26.9L196.3,26.9L196.3,26.9z"/>
<path class="st1" d="M140,102.6c12.2,0,22.1,9.9,22.1,22.1c0,12.2-9.9,22.1-22.1,22.1s-22.1-9.9-22.1-22.1
	C118,112.5,127.8,102.6,140,102.6"/>
</svg>
