<?xml version="1.0" encoding="utf-8"?>
<!-- Generator: Adobe Illustrator 28.0.0, SVG Export Plug-In . SVG Version: 6.00 Build 0)  -->
<svg version="1.1" id="Capa_1" xmlns="http://www.w3.org/2000/svg" xmlns:xlink="http://www.w3.org/1999/xlink" x="0px" y="0px"
	 viewBox="0 0 513 250" style="enable-background:new 0 0 513 250;" xml:space="preserve">
<style type="text/css">
	
		.st0{clip-path:url(#SVGID_00000169529653643825611290000016996411433909057421_);fill-rule:evenodd;clip-rule:evenodd;fill:#E4151B;}
	
		.st1{clip-path:url(#SVGID_00000169529653643825611290000016996411433909057421_);fill-rule:evenodd;clip-rule:evenodd;fill:#1C52A1;}
</style>
<g>
	<defs>
		<rect id="SVGID_1_" x="0.5" y="-0.6" width="512" height="251.1"/>
	</defs>
	<clipPath id="SVGID_00000103985526573317260010000007758931474069579184_">
		<use xlink:href="#SVGID_1_"  style="overflow:visible;"/>
	</clipPath>
	
		<path style="clip-path:url(#SVGID_00000103985526573317260010000007758931474069579184_);fill-rule:evenodd;clip-rule:evenodd;fill:#E4151B;" d="
		M182.3,110.2c12-9.8,24.9-14.5,40.5-5.3c10.6,5.9,20.4,5.9,29.7,2.8c-6.1,9.2-10.3,18.7-12.7,28.5c-8.8,1.3-17-2.2-24.1-12.9
		C208.1,106.8,196.1,105.2,182.3,110.2L182.3,110.2z"/>
	
		<path style="clip-path:url(#SVGID_00000103985526573317260010000007758931474069579184_);fill-rule:evenodd;clip-rule:evenodd;fill:#E4151B;" d="
		M214.2,55.8c14.7-4.7,28.5-4.3,39.6,10.2c7.7,9.4,16.8,13.1,26.6,13.6c-9,6.3-16.5,13.5-22.3,21.7c-8.7-2-14.9-8.4-17.6-21
		C239.4,62.3,228.9,56.3,214.2,55.8L214.2,55.8z"/>
	
		<path style="clip-path:url(#SVGID_00000103985526573317260010000007758931474069579184_);fill-rule:evenodd;clip-rule:evenodd;fill:#E4151B;" d="
		M263.1,17.7c15.4,1,28.1,6.5,33.1,23.9C300,53.2,307.1,59.9,316,64c-10.7,2.5-20.3,6.5-28.7,12.1c-7.3-5.1-10.8-13.2-8.7-25.9
		C284.2,32.9,276.6,23.5,263.1,17.7L263.1,17.7z"/>
	
		<path style="clip-path:url(#SVGID_00000103985526573317260010000007758931474069579184_);fill-rule:evenodd;clip-rule:evenodd;fill:#E4151B;" d="
		M323.6,0c13.9,6.7,23.7,16.4,21.9,34.5c-0.8,12.1,3.2,21,10.1,28.1c-10.9-1.6-21.3-1.5-31.2,0.5c-4.9-7.4-5.1-16.3,1.5-27.3
		C337.5,21.9,334,10.3,323.6,0L323.6,0z"/>
	
		<path style="clip-path:url(#SVGID_00000103985526573317260010000007758931474069579184_);fill-rule:evenodd;clip-rule:evenodd;fill:#E4151B;" d="
		M385.9,5.8c10.5,11.4,16,24,7.6,40.2c-5.2,11-4.7,20.7-1,29.9c-9.5-5.5-19.2-9.2-29.2-11c-1.8-8.7,1.2-17.1,11.5-24.8
		C390.8,31.3,391.7,19.3,385.9,5.8L385.9,5.8z"/>
	
		<path style="clip-path:url(#SVGID_00000103985526573317260010000007758931474069579184_);fill-rule:evenodd;clip-rule:evenodd;fill:#E4151B;" d="
		M441.6,34.2c5.6,14.4,6,28.2-7.7,40.1c-8.9,8.3-12,17.5-11.9,27.4c-6.8-8.6-14.5-15.6-23.1-21c1.5-8.8,7.4-15.4,19.8-18.8
		C436.7,59.7,442,48.9,441.6,34.2L441.6,34.2z"/>
	
		<path style="clip-path:url(#SVGID_00000103985526573317260010000007758931474069579184_);fill-rule:evenodd;clip-rule:evenodd;fill:#E4151B;" d="
		M482.9,81c-0.1,15.5-4.8,28.4-21.9,34.5c-11.3,4.4-17.7,11.9-21.2,21.1c-3.1-10.5-7.7-19.9-13.8-28c4.6-7.6,12.6-11.6,25.4-10.2
		C469,102.9,477.9,94.8,482.9,81L482.9,81z"/>
	
		<path style="clip-path:url(#SVGID_00000103985526573317260010000007758931474069579184_);fill-rule:evenodd;clip-rule:evenodd;fill:#1C52A1;" d="
		M438.9,243.2l1.2-11.9c9.6,3.2,19,4.5,30,3.4c9.6-0.8,17.2-12.9,8.1-20.5c-4.8-3.7-11.2-6.3-16.6-8.7c-16-7.3-22.3-12.9-22.2-27.1
		c0.5-16,12.6-24.6,27.6-26.2c9.9-0.9,19,1.1,28.7,5l-2.3,11.2c-8.5-2.5-14.4-2.9-23.3-2.4c-6,0.5-13.2,6.9-10.6,14.1
		c1.5,3.5,5.7,7,9,8.6c12.4,5.6,28.8,8.7,33.4,23.2c4.6,15.7-4.5,29.6-19.4,34.9C468,251.6,452.9,247.8,438.9,243.2L438.9,243.2z
		 M400,246.9v-93.2h18.9v93.2H400L400,246.9z M382.8,153.1l-2,18.2c-12.1-4.6-22.2,3.3-28.3,15.5v60h-19.2v-93.2h16.5l1,15
		C362.6,153.8,370.9,148.3,382.8,153.1L382.8,153.1z M283.1,203.9c-18.9-1.9-31.2,3.7-31.8,16.2c-0.1,8.7,4.6,16.5,18.3,14.7
		c5.7-1,12.1-4.5,16.6-8v-22.7L283.1,203.9L283.1,203.9z M276.8,245.8c-7.7,3.3-20.6,5-28.7,2.3c-20.1-7.3-20.9-34.4-4.8-47.8
		c11.4-8.9,28.8-9.4,42.8-9.4c0-8.9,2.6-21.3-8.2-23.4c-11.9-1.9-27.6-1.7-37.8,3.7l-3.4-12c14.4-5.7,37.1-10,52.4-5.6
		c13.1,4.2,17.6,15,17.7,28v65.8h-15.6l-1.7-9.9C285.7,240.8,281.5,243.6,276.8,245.8L276.8,245.8z M137,223.9
		c6.1-12.3,5.1-35.2-0.7-47.5c-7.2-15.3-28.3-13.4-35.1,1.2c-5.9,12.6-6.1,33.7-0.1,46.2C108.1,238.6,129.7,238.6,137,223.9
		L137,223.9z M86.9,236.4c-14.2-18-13.7-53,0.8-70.7c15-18.2,49.5-19.8,64.2-0.3c13.8,18.3,11.1,53.1-3.2,70.3
		C134.2,253.1,101.4,254.8,86.9,236.4L86.9,236.4z M198.2,227.6c0.8,11.7,11.1,7.8,19.8,6.8c0.8,3.6,1.6,7.3,2.4,10.9
		c-12.8,3.7-41.1,11-41.4-12v-80.6h19.2C198.2,177.8,198.2,202.6,198.2,227.6L198.2,227.6z M1.1,243.2l1.2-11.9
		c9.6,3.2,19,4.5,30,3.4c9.6-0.8,17.2-12.9,8.1-20.5c-4.8-3.7-11.2-6.3-16.6-8.7c-16-7.3-22.3-12.9-22.2-27.1
		c0.5-16,12.6-24.6,27.6-26.2c9.9-0.9,19,1.1,28.7,5l-2.3,11.2c-8.5-2.5-14.4-2.9-23.3-2.4c-6,0.5-13.2,6.9-10.6,14.1
		c1.5,3.5,5.7,7,9,8.6c12.4,5.6,28.8,8.7,33.4,23.2c4.6,15.7-4.5,29.6-19.4,34.9C30.2,251.6,15.1,247.8,1.1,243.2L1.1,243.2z
		 M499.5,161.9v-6.7h-2.4v-1.3h6.4v1.4h-2.4v6.7L499.5,161.9L499.5,161.9z M504.5,161.9v-8h2.4l1.5,5.5l1.4-5.5h2.4v8h-1.5v-6.3
		l-1.6,6.3h-1.6l-1.6-6.3v6.3H504.5L504.5,161.9z"/>
</g>
</svg>
