<?xml version="1.0" encoding="utf-8"?>
<!-- Generator: Adobe Illustrator 28.0.0, SVG Export Plug-In . SVG Version: 6.00 Build 0)  -->
<svg version="1.1" id="Capa_1" xmlns="http://www.w3.org/2000/svg" xmlns:xlink="http://www.w3.org/1999/xlink" x="0px" y="0px"
	 viewBox="0 0 2019 250" style="enable-background:new 0 0 2019 250;" xml:space="preserve">
<style type="text/css">
	.st0{fill:#FFFFFF;}
	.st1{fill:#06B6D4;}
</style>
<g>
	<path class="st0" d="M625.2,105.4h-36.4v70.1c0,18.7,12.3,18.4,36.4,17.2V221c-48.7,5.9-68.1-7.6-68.1-45.6v-70.1h-27V75h27V35.8
		l31.7-9.3V75h36.4L625.2,105.4L625.2,105.4z M763.9,75h31.7v146h-31.7v-21c-11.1,15.5-28.5,24.8-51.4,24.8c-39.9,0-73-33.6-73-76.8
		c0-43.5,33.1-76.8,73-76.8c22.9,0,40.2,9.3,51.4,24.5V75z M717.5,194.8c26.4,0,46.4-19.6,46.4-46.7s-20-46.7-46.4-46.7
		s-46.3,19.6-46.3,46.7S691.1,194.8,717.5,194.8z M848.4,53.1c-11.1,0-20.3-9.4-20.3-20.2c0-2.6,0.6-5.3,1.6-7.7
		c2.1-4.9,6-8.9,10.9-10.9c2.4-1,5.1-1.5,7.7-1.5s5.3,0.5,7.7,1.5s4.7,2.5,6.6,4.4c1.9,1.9,3.4,4.1,4.4,6.5s1.5,5.1,1.5,7.7
		C868.6,43.8,859.5,53.1,848.4,53.1z M832.5,221.1V75h31.7v146h-31.7V221.1z M900.9,221.1V7.9h31.7v213.2L900.9,221.1L900.9,221.1z
		 M1138.2,75h33.4l-46.1,146h-31.1l-30.5-98.4l-30.8,98.4H1002L956,75h33.4l28.5,100.8L1048.7,75h30.2l30.5,100.8L1138.2,75z
		 M1210.9,53.1c-11.1,0-20.2-9.4-20.2-20.2c0-2.6,0.5-5.3,1.5-7.7s2.5-4.6,4.4-6.5s4.1-3.4,6.6-4.4s5.1-1.5,7.7-1.5
		c5.4,0,10.5,2.1,14.3,5.9c1.9,1.9,3.4,4.1,4.4,6.5s1.6,5.1,1.6,7.7C1231.2,43.8,1222.1,53.1,1210.9,53.1z M1195.1,221.1V75h31.7
		v146h-31.7V221.1z M1396.9,131.4v89.7h-31.7v-86.4c0-22.2-12.9-33.9-32.9-33.9c-20.8,0-37.3,12.3-37.3,42.1v78.3h-31.7V75h31.7
		v18.7c9.7-15.2,25.5-22.5,45.5-22.5C1373.4,71.3,1396.9,93.4,1396.9,131.4L1396.9,131.4z M1547.1,16.6h31.7v204.5h-31.7v-21
		c-11.1,15.5-28.5,24.8-51.3,24.8c-39.9,0-73-33.6-73-76.8c0-43.5,33.1-76.8,73-76.8c22.9,0,40.2,9.3,51.3,24.5V16.6z M1500.8,194.8
		c26.4,0,46.3-19.6,46.3-46.7s-20-46.7-46.3-46.7c-26.4,0-46.4,19.6-46.4,46.7S1474.4,194.8,1500.8,194.8z M1607.5,148.1
		c0-43.5,33.1-76.8,77.4-76.8c28.8,0,53.7,14.9,65.4,37.7l-27.3,15.8c-6.5-13.7-20.8-22.5-38.4-22.5c-25.8,0-45.5,19.6-45.5,45.9
		s19.6,45.9,45.5,45.9c17.6,0,32-9.1,39-22.5l27.3,15.5c-12.3,23.1-37.3,38-66,38C1640.7,224.9,1607.5,191.3,1607.5,148.1z
		 M1882.1,179.9c0,29.2-25.5,45-57.2,45c-29.3,0-50.4-13.2-59.8-34.2l27.3-15.8c4.7,13.2,16.4,21,32.6,21c14.1,0,24.9-4.7,24.9-16.3
		c0-26-78.9-11.4-78.9-63.7c0-27.4,23.8-44.7,53.7-44.7c24,0,44,11.1,54.3,30.4l-26.7,14.9c-5.3-11.4-15.5-16.6-27.6-16.6
		c-11.5,0-21.4,4.9-21.4,15.5C1803.2,141.9,1882.1,125.9,1882.1,179.9L1882.1,179.9z M2017.3,179.9c0,29.2-25.5,45-57.2,45
		c-29.3,0-50.5-13.2-59.9-34.2l27.3-15.8c4.7,13.2,16.4,21,32.6,21c14.1,0,24.9-4.7,24.9-16.3c0-26-78.9-11.4-78.9-63.7
		c0-27.4,23.8-44.7,53.7-44.7c24.1,0,44,11.1,54.3,30.4l-26.7,14.9c-5.3-11.4-15.5-16.6-27.6-16.6c-11.4,0-21.4,4.9-21.4,15.5
		C1938.4,141.9,2017.3,125.9,2017.3,179.9L2017.3,179.9z"/>
	<path class="st1" d="M208.4,0.5c-55.6,0-90.3,27.7-104.2,83c20.9-27.7,45.2-38.1,73-31.2c15.8,4,27.2,15.4,39.7,28.1
		c20.4,20.6,44.1,44.5,95.7,44.5c55.6,0,90.3-27.7,104.2-83c-20.8,27.7-45.1,38-72.9,31.1c-15.9-3.8-27.2-15.3-39.7-28
		C283.7,24.4,260.1,0.5,208.4,0.5z M104.2,125C48.6,125,13.9,152.7,0,208c20.8-27.7,45.1-38,72.9-31.1c15.9,3.9,27.2,15.4,39.7,28.1
		c20.4,20.7,44.1,44.5,95.7,44.5c55.6,0,90.3-27.7,104.2-83c-20.9,27.7-45.2,38.1-72.9,31.2c-15.9-4-27.2-15.4-39.8-28.1
		C179.5,148.9,155.9,125,104.2,125L104.2,125z"/>
</g>
</svg>
